<mxfile host="app.diagrams.net" agent="Mozilla/5.0 (Windows NT 10.0; Win64; x64) AppleWebKit/537.36 (KHTML, like Gecko) Chrome/136.0.0.0 Safari/537.36" version="26.2.14">
  <diagram id="0hyi6kRi4JA0hDVE_DkZ" name="PÃ¡gina-1">
    <mxGraphModel dx="938" dy="726" grid="1" gridSize="10" guides="1" tooltips="1" connect="1" arrows="1" fold="1" page="0" pageScale="1" pageWidth="827" pageHeight="1169" background="none" math="0" shadow="0">
      <root>
        <mxCell id="0" />
        <mxCell id="1" parent="0" />
        <mxCell id="node48" value="AddPasswordHashedToUsuarios" style="label;fontStyle=0;strokeColor=default;fillColor=none;align=left;verticalAlign=middle;overflow=hidden;spacingLeft=28;spacingRight=4;rotatable=0;points=[[0,0.5],[1,0.5]];portConstraint=eastwest;imageWidth=16;imageHeight=16;image=data:image/png,iVBORw0KGgoAAAANSUhEUgAAACAAAAAgCAYAAABzenr0AAACPklEQVR4Xu2WuUsDQRTG03hbe7USi9jZaGNjtNBokyjZFQUrG/GsbATvUtTOSm2DuyERBMH7qtIE2VWwEDz+Aa2s1vf2kNmXZNfsERD8YIqdnZnfN2/fvNlA4F+/VGZnvEwWuQlZ4Bay4mgdfe+rXhNDVQA/gabo7eU+GW+m43wRC7/bjymHW/2lM0Hhgz2tSrgjqKQ2S2AiH7yzrVltOSZSfD2d70pWcNZEelszIYn8El3DsX4DxxbtCik3e1EtCgI/Q9dxJEdwkbt63h2rpGsVLSkxVO4Enj0eraFrscJ1JYGflARu0TJXcJDX8MzhQDXkx5k+3vrUYCLhoPRmRAm3B+3gRbVb2JSRsA8i9wpRaaD8gCyMNMKAdxyU3OgzmXADx4jGurX6kd6KaP1JbpnyVT2I8RZqwi7sBsh4fjrqrYDnc+zDnSM8zyZm2TVMYk1gsbGCo6gBSeSmbODXtqeGNWEFR+UaMOcShcP3r2XnF9RjimuCo7MOZuasHOcYgASD5zfDhCN4MaIG1L6D4aBhwlc4Shb5D4RgxEz9cKrgyK3ZRdC1AHKKBgA0T9+h1FMBdwX8Sa3kPf9uBQtH9DB/oQkWgokLEbo0PgUWoYKV0I1wd8z3zmm3kIg/RciP/wcURkKv+58UHg2HzP8PcDHR+Z5Jq4Ra2A24Woy6Q8qdfiSxWNF5nklNOAs4tHM0Sed5JrxoEPRTCc3wC7yi6RxPRSshCy9Uzj1XnkpYOrghLRL8qpyMT/v6zf+8vgFG80iK7km8qAAAAABJRU5ErkJggg==" parent="1" vertex="1">
          <mxGeometry x="5204" y="64" width="230" height="25" as="geometry" />
        </mxCell>
        <mxCell id="node1" value="ApiSettings" style="label;fontStyle=0;strokeColor=default;fillColor=none;align=left;verticalAlign=middle;overflow=hidden;spacingLeft=28;spacingRight=4;rotatable=0;points=[[0,0.5],[1,0.5]];portConstraint=eastwest;imageWidth=16;imageHeight=16;image=data:image/png,iVBORw0KGgoAAAANSUhEUgAAACAAAAAgCAYAAABzenr0AAACPklEQVR4Xu2WuUsDQRTG03hbe7USi9jZaGNjtNBokyjZFQUrG/GsbATvUtTOSm2DuyERBMH7qtIE2VWwEDz+Aa2s1vf2kNmXZNfsERD8YIqdnZnfN2/fvNlA4F+/VGZnvEwWuQlZ4Bay4mgdfe+rXhNDVQA/gabo7eU+GW+m43wRC7/bjymHW/2lM0Hhgz2tSrgjqKQ2S2AiH7yzrVltOSZSfD2d70pWcNZEelszIYn8El3DsX4DxxbtCik3e1EtCgI/Q9dxJEdwkbt63h2rpGsVLSkxVO4Enj0eraFrscJ1JYGflARu0TJXcJDX8MzhQDXkx5k+3vrUYCLhoPRmRAm3B+3gRbVb2JSRsA8i9wpRaaD8gCyMNMKAdxyU3OgzmXADx4jGurX6kd6KaP1JbpnyVT2I8RZqwi7sBsh4fjrqrYDnc+zDnSM8zyZm2TVMYk1gsbGCo6gBSeSmbODXtqeGNWEFR+UaMOcShcP3r2XnF9RjimuCo7MOZuasHOcYgASD5zfDhCN4MaIG1L6D4aBhwlc4Shb5D4RgxEz9cKrgyK3ZRdC1AHKKBgA0T9+h1FMBdwX8Sa3kPf9uBQtH9DB/oQkWgokLEbo0PgUWoYKV0I1wd8z3zmm3kIg/RciP/wcURkKv+58UHg2HzP8PcDHR+Z5Jq4Ra2A24Woy6Q8qdfiSxWNF5nklNOAs4tHM0Sed5JrxoEPRTCc3wC7yi6RxPRSshCy9Uzj1XnkpYOrghLRL8qpyMT/v6zf+8vgFG80iK7km8qAAAAABJRU5ErkJggg==" parent="1" vertex="1">
          <mxGeometry x="3745" y="264" width="98" height="25" as="geometry" />
        </mxCell>
        <mxCell id="node65" value="ApplicationDbContext" style="label;fontStyle=0;strokeColor=default;fillColor=none;align=left;verticalAlign=middle;overflow=hidden;spacingLeft=28;spacingRight=4;rotatable=0;points=[[0,0.5],[1,0.5]];portConstraint=eastwest;imageWidth=16;imageHeight=16;image=data:image/png,iVBORw0KGgoAAAANSUhEUgAAACAAAAAgCAYAAABzenr0AAACPklEQVR4Xu2WuUsDQRTG03hbe7USi9jZaGNjtNBokyjZFQUrG/GsbATvUtTOSm2DuyERBMH7qtIE2VWwEDz+Aa2s1vf2kNmXZNfsERD8YIqdnZnfN2/fvNlA4F+/VGZnvEwWuQlZ4Bay4mgdfe+rXhNDVQA/gabo7eU+GW+m43wRC7/bjymHW/2lM0Hhgz2tSrgjqKQ2S2AiH7yzrVltOSZSfD2d70pWcNZEelszIYn8El3DsX4DxxbtCik3e1EtCgI/Q9dxJEdwkbt63h2rpGsVLSkxVO4Enj0eraFrscJ1JYGflARu0TJXcJDX8MzhQDXkx5k+3vrUYCLhoPRmRAm3B+3gRbVb2JSRsA8i9wpRaaD8gCyMNMKAdxyU3OgzmXADx4jGurX6kd6KaP1JbpnyVT2I8RZqwi7sBsh4fjrqrYDnc+zDnSM8zyZm2TVMYk1gsbGCo6gBSeSmbODXtqeGNWEFR+UaMOcShcP3r2XnF9RjimuCo7MOZuasHOcYgASD5zfDhCN4MaIG1L6D4aBhwlc4Shb5D4RgxEz9cKrgyK3ZRdC1AHKKBgA0T9+h1FMBdwX8Sa3kPf9uBQtH9DB/oQkWgokLEbo0PgUWoYKV0I1wd8z3zmm3kIg/RciP/wcURkKv+58UHg2HzP8PcDHR+Z5Jq4Ra2A24Woy6Q8qdfiSxWNF5nklNOAs4tHM0Sed5JrxoEPRTCc3wC7yi6RxPRSshCy9Uzj1XnkpYOrghLRL8qpyMT/v6zf+8vgFG80iK7km8qAAAAABJRU5ErkJggg==" parent="1" vertex="1">
          <mxGeometry x="488" y="64" width="163" height="25" as="geometry" />
        </mxCell>
        <mxCell id="node55" value="ApplicationDbContextModelSnapshot" style="label;fontStyle=0;strokeColor=default;fillColor=none;align=left;verticalAlign=middle;overflow=hidden;spacingLeft=28;spacingRight=4;rotatable=0;points=[[0,0.5],[1,0.5]];portConstraint=eastwest;imageWidth=16;imageHeight=16;image=data:image/png,iVBORw0KGgoAAAANSUhEUgAAACAAAAAgCAYAAABzenr0AAACPklEQVR4Xu2WuUsDQRTG03hbe7USi9jZaGNjtNBokyjZFQUrG/GsbATvUtTOSm2DuyERBMH7qtIE2VWwEDz+Aa2s1vf2kNmXZNfsERD8YIqdnZnfN2/fvNlA4F+/VGZnvEwWuQlZ4Bay4mgdfe+rXhNDVQA/gabo7eU+GW+m43wRC7/bjymHW/2lM0Hhgz2tSrgjqKQ2S2AiH7yzrVltOSZSfD2d70pWcNZEelszIYn8El3DsX4DxxbtCik3e1EtCgI/Q9dxJEdwkbt63h2rpGsVLSkxVO4Enj0eraFrscJ1JYGflARu0TJXcJDX8MzhQDXkx5k+3vrUYCLhoPRmRAm3B+3gRbVb2JSRsA8i9wpRaaD8gCyMNMKAdxyU3OgzmXADx4jGurX6kd6KaP1JbpnyVT2I8RZqwi7sBsh4fjrqrYDnc+zDnSM8zyZm2TVMYk1gsbGCo6gBSeSmbODXtqeGNWEFR+UaMOcShcP3r2XnF9RjimuCo7MOZuasHOcYgASD5zfDhCN4MaIG1L6D4aBhwlc4Shb5D4RgxEz9cKrgyK3ZRdC1AHKKBgA0T9+h1FMBdwX8Sa3kPf9uBQtH9DB/oQkWgokLEbo0PgUWoYKV0I1wd8z3zmm3kIg/RciP/wcURkKv+58UHg2HzP8PcDHR+Z5Jq4Ra2A24Woy6Q8qdfiSxWNF5nklNOAs4tHM0Sed5JrxoEPRTCc3wC7yi6RxPRSshCy9Uzj1XnkpYOrghLRL8qpyMT/v6zf+8vgFG80iK7km8qAAAAABJRU5ErkJggg==" parent="1" vertex="1">
          <mxGeometry x="164" y="64" width="260" height="25" as="geometry" />
        </mxCell>
        <mxCell id="node34" value="AuthController" style="label;fontStyle=0;strokeColor=default;fillColor=none;align=left;verticalAlign=middle;overflow=hidden;spacingLeft=28;spacingRight=4;rotatable=0;points=[[0,0.5],[1,0.5]];portConstraint=eastwest;imageWidth=16;imageHeight=16;image=data:image/png,iVBORw0KGgoAAAANSUhEUgAAACAAAAAgCAYAAABzenr0AAACPklEQVR4Xu2WuUsDQRTG03hbe7USi9jZaGNjtNBokyjZFQUrG/GsbATvUtTOSm2DuyERBMH7qtIE2VWwEDz+Aa2s1vf2kNmXZNfsERD8YIqdnZnfN2/fvNlA4F+/VGZnvEwWuQlZ4Bay4mgdfe+rXhNDVQA/gabo7eU+GW+m43wRC7/bjymHW/2lM0Hhgz2tSrgjqKQ2S2AiH7yzrVltOSZSfD2d70pWcNZEelszIYn8El3DsX4DxxbtCik3e1EtCgI/Q9dxJEdwkbt63h2rpGsVLSkxVO4Enj0eraFrscJ1JYGflARu0TJXcJDX8MzhQDXkx5k+3vrUYCLhoPRmRAm3B+3gRbVb2JSRsA8i9wpRaaD8gCyMNMKAdxyU3OgzmXADx4jGurX6kd6KaP1JbpnyVT2I8RZqwi7sBsh4fjrqrYDnc+zDnSM8zyZm2TVMYk1gsbGCo6gBSeSmbODXtqeGNWEFR+UaMOcShcP3r2XnF9RjimuCo7MOZuasHOcYgASD5zfDhCN4MaIG1L6D4aBhwlc4Shb5D4RgxEz9cKrgyK3ZRdC1AHKKBgA0T9+h1FMBdwX8Sa3kPf9uBQtH9DB/oQkWgokLEbo0PgUWoYKV0I1wd8z3zmm3kIg/RciP/wcURkKv+58UHg2HzP8PcDHR+Z5Jq4Ra2A24Woy6Q8qdfiSxWNF5nklNOAs4tHM0Sed5JrxoEPRTCc3wC7yi6RxPRSshCy9Uzj1XnkpYOrghLRL8qpyMT/v6zf+8vgFG80iK7km8qAAAAABJRU5ErkJggg==" parent="1" vertex="1">
          <mxGeometry x="3111" y="189" width="117" height="25" as="geometry" />
        </mxCell>
        <mxCell id="node13" value="AuthService" style="label;fontStyle=0;strokeColor=default;fillColor=none;align=left;verticalAlign=middle;overflow=hidden;spacingLeft=28;spacingRight=4;rotatable=0;points=[[0,0.5],[1,0.5]];portConstraint=eastwest;imageWidth=16;imageHeight=16;image=data:image/png,iVBORw0KGgoAAAANSUhEUgAAACAAAAAgCAYAAABzenr0AAACPklEQVR4Xu2WuUsDQRTG03hbe7USi9jZaGNjtNBokyjZFQUrG/GsbATvUtTOSm2DuyERBMH7qtIE2VWwEDz+Aa2s1vf2kNmXZNfsERD8YIqdnZnfN2/fvNlA4F+/VGZnvEwWuQlZ4Bay4mgdfe+rXhNDVQA/gabo7eU+GW+m43wRC7/bjymHW/2lM0Hhgz2tSrgjqKQ2S2AiH7yzrVltOSZSfD2d70pWcNZEelszIYn8El3DsX4DxxbtCik3e1EtCgI/Q9dxJEdwkbt63h2rpGsVLSkxVO4Enj0eraFrscJ1JYGflARu0TJXcJDX8MzhQDXkx5k+3vrUYCLhoPRmRAm3B+3gRbVb2JSRsA8i9wpRaaD8gCyMNMKAdxyU3OgzmXADx4jGurX6kd6KaP1JbpnyVT2I8RZqwi7sBsh4fjrqrYDnc+zDnSM8zyZm2TVMYk1gsbGCo6gBSeSmbODXtqeGNWEFR+UaMOcShcP3r2XnF9RjimuCo7MOZuasHOcYgASD5zfDhCN4MaIG1L6D4aBhwlc4Shb5D4RgxEz9cKrgyK3ZRdC1AHKKBgA0T9+h1FMBdwX8Sa3kPf9uBQtH9DB/oQkWgokLEbo0PgUWoYKV0I1wd8z3zmm3kIg/RciP/wcURkKv+58UHg2HzP8PcDHR+Z5Jq4Ra2A24Woy6Q8qdfiSxWNF5nklNOAs4tHM0Sed5JrxoEPRTCc3wC7yi6RxPRSshCy9Uzj1XnkpYOrghLRL8qpyMT/v6zf+8vgFG80iK7km8qAAAAABJRU5ErkJggg==" parent="1" vertex="1">
          <mxGeometry x="3269" y="339" width="100" height="25" as="geometry" />
        </mxCell>
        <mxCell id="node70" value="Carrito" style="label;fontStyle=0;strokeColor=default;fillColor=none;align=left;verticalAlign=middle;overflow=hidden;spacingLeft=28;spacingRight=4;rotatable=0;points=[[0,0.5],[1,0.5]];portConstraint=eastwest;imageWidth=16;imageHeight=16;image=data:image/png,iVBORw0KGgoAAAANSUhEUgAAACAAAAAgCAYAAABzenr0AAACPklEQVR4Xu2WuUsDQRTG03hbe7USi9jZaGNjtNBokyjZFQUrG/GsbATvUtTOSm2DuyERBMH7qtIE2VWwEDz+Aa2s1vf2kNmXZNfsERD8YIqdnZnfN2/fvNlA4F+/VGZnvEwWuQlZ4Bay4mgdfe+rXhNDVQA/gabo7eU+GW+m43wRC7/bjymHW/2lM0Hhgz2tSrgjqKQ2S2AiH7yzrVltOSZSfD2d70pWcNZEelszIYn8El3DsX4DxxbtCik3e1EtCgI/Q9dxJEdwkbt63h2rpGsVLSkxVO4Enj0eraFrscJ1JYGflARu0TJXcJDX8MzhQDXkx5k+3vrUYCLhoPRmRAm3B+3gRbVb2JSRsA8i9wpRaaD8gCyMNMKAdxyU3OgzmXADx4jGurX6kd6KaP1JbpnyVT2I8RZqwi7sBsh4fjrqrYDnc+zDnSM8zyZm2TVMYk1gsbGCo6gBSeSmbODXtqeGNWEFR+UaMOcShcP3r2XnF9RjimuCo7MOZuasHOcYgASD5zfDhCN4MaIG1L6D4aBhwlc4Shb5D4RgxEz9cKrgyK3ZRdC1AHKKBgA0T9+h1FMBdwX8Sa3kPf9uBQtH9DB/oQkWgokLEbo0PgUWoYKV0I1wd8z3zmm3kIg/RciP/wcURkKv+58UHg2HzP8PcDHR+Z5Jq4Ra2A24Woy6Q8qdfiSxWNF5nklNOAs4tHM0Sed5JrxoEPRTCc3wC7yi6RxPRSshCy9Uzj1XnkpYOrghLRL8qpyMT/v6zf+8vgFG80iK7km8qAAAAABJRU5ErkJggg==" parent="1" vertex="1">
          <mxGeometry x="2610" y="914" width="69" height="25" as="geometry" />
        </mxCell>
        <mxCell id="node14" value="CarritoDto" style="label;fontStyle=0;strokeColor=default;fillColor=none;align=left;verticalAlign=middle;overflow=hidden;spacingLeft=28;spacingRight=4;rotatable=0;points=[[0,0.5],[1,0.5]];portConstraint=eastwest;imageWidth=16;imageHeight=16;image=data:image/png,iVBORw0KGgoAAAANSUhEUgAAACAAAAAgCAYAAABzenr0AAACPklEQVR4Xu2WuUsDQRTG03hbe7USi9jZaGNjtNBokyjZFQUrG/GsbATvUtTOSm2DuyERBMH7qtIE2VWwEDz+Aa2s1vf2kNmXZNfsERD8YIqdnZnfN2/fvNlA4F+/VGZnvEwWuQlZ4Bay4mgdfe+rXhNDVQA/gabo7eU+GW+m43wRC7/bjymHW/2lM0Hhgz2tSrgjqKQ2S2AiH7yzrVltOSZSfD2d70pWcNZEelszIYn8El3DsX4DxxbtCik3e1EtCgI/Q9dxJEdwkbt63h2rpGsVLSkxVO4Enj0eraFrscJ1JYGflARu0TJXcJDX8MzhQDXkx5k+3vrUYCLhoPRmRAm3B+3gRbVb2JSRsA8i9wpRaaD8gCyMNMKAdxyU3OgzmXADx4jGurX6kd6KaP1JbpnyVT2I8RZqwi7sBsh4fjrqrYDnc+zDnSM8zyZm2TVMYk1gsbGCo6gBSeSmbODXtqeGNWEFR+UaMOcShcP3r2XnF9RjimuCo7MOZuasHOcYgASD5zfDhCN4MaIG1L6D4aBhwlc4Shb5D4RgxEz9cKrgyK3ZRdC1AHKKBgA0T9+h1FMBdwX8Sa3kPf9uBQtH9DB/oQkWgokLEbo0PgUWoYKV0I1wd8z3zmm3kIg/RciP/wcURkKv+58UHg2HzP8PcDHR+Z5Jq4Ra2A24Woy6Q8qdfiSxWNF5nklNOAs4tHM0Sed5JrxoEPRTCc3wC7yi6RxPRSshCy9Uzj1XnkpYOrghLRL8qpyMT/v6zf+8vgFG80iK7km8qAAAAABJRU5ErkJggg==" parent="1" vertex="1">
          <mxGeometry x="2074" y="1064" width="91" height="25" as="geometry" />
        </mxCell>
        <mxCell id="node5" value="CarritoProducto" style="label;fontStyle=0;strokeColor=default;fillColor=none;align=left;verticalAlign=middle;overflow=hidden;spacingLeft=28;spacingRight=4;rotatable=0;points=[[0,0.5],[1,0.5]];portConstraint=eastwest;imageWidth=16;imageHeight=16;image=data:image/png,iVBORw0KGgoAAAANSUhEUgAAACAAAAAgCAYAAABzenr0AAACPklEQVR4Xu2WuUsDQRTG03hbe7USi9jZaGNjtNBokyjZFQUrG/GsbATvUtTOSm2DuyERBMH7qtIE2VWwEDz+Aa2s1vf2kNmXZNfsERD8YIqdnZnfN2/fvNlA4F+/VGZnvEwWuQlZ4Bay4mgdfe+rXhNDVQA/gabo7eU+GW+m43wRC7/bjymHW/2lM0Hhgz2tSrgjqKQ2S2AiH7yzrVltOSZSfD2d70pWcNZEelszIYn8El3DsX4DxxbtCik3e1EtCgI/Q9dxJEdwkbt63h2rpGsVLSkxVO4Enj0eraFrscJ1JYGflARu0TJXcJDX8MzhQDXkx5k+3vrUYCLhoPRmRAm3B+3gRbVb2JSRsA8i9wpRaaD8gCyMNMKAdxyU3OgzmXADx4jGurX6kd6KaP1JbpnyVT2I8RZqwi7sBsh4fjrqrYDnc+zDnSM8zyZm2TVMYk1gsbGCo6gBSeSmbODXtqeGNWEFR+UaMOcShcP3r2XnF9RjimuCo7MOZuasHOcYgASD5zfDhCN4MaIG1L6D4aBhwlc4Shb5D4RgxEz9cKrgyK3ZRdC1AHKKBgA0T9+h1FMBdwX8Sa3kPf9uBQtH9DB/oQkWgokLEbo0PgUWoYKV0I1wd8z3zmm3kIg/RciP/wcURkKv+58UHg2HzP8PcDHR+Z5Jq4Ra2A24Woy6Q8qdfiSxWNF5nklNOAs4tHM0Sed5JrxoEPRTCc3wC7yi6RxPRSshCy9Uzj1XnkpYOrghLRL8qpyMT/v6zf+8vgFG80iK7km8qAAAAABJRU5ErkJggg==" parent="1" vertex="1">
          <mxGeometry x="2582" y="1214" width="125" height="25" as="geometry" />
        </mxCell>
        <mxCell id="node61" value="CarritoProductoDto" style="label;fontStyle=0;strokeColor=default;fillColor=none;align=left;verticalAlign=middle;overflow=hidden;spacingLeft=28;spacingRight=4;rotatable=0;points=[[0,0.5],[1,0.5]];portConstraint=eastwest;imageWidth=16;imageHeight=16;image=data:image/png,iVBORw0KGgoAAAANSUhEUgAAACAAAAAgCAYAAABzenr0AAACPklEQVR4Xu2WuUsDQRTG03hbe7USi9jZaGNjtNBokyjZFQUrG/GsbATvUtTOSm2DuyERBMH7qtIE2VWwEDz+Aa2s1vf2kNmXZNfsERD8YIqdnZnfN2/fvNlA4F+/VGZnvEwWuQlZ4Bay4mgdfe+rXhNDVQA/gabo7eU+GW+m43wRC7/bjymHW/2lM0Hhgz2tSrgjqKQ2S2AiH7yzrVltOSZSfD2d70pWcNZEelszIYn8El3DsX4DxxbtCik3e1EtCgI/Q9dxJEdwkbt63h2rpGsVLSkxVO4Enj0eraFrscJ1JYGflARu0TJXcJDX8MzhQDXkx5k+3vrUYCLhoPRmRAm3B+3gRbVb2JSRsA8i9wpRaaD8gCyMNMKAdxyU3OgzmXADx4jGurX6kd6KaP1JbpnyVT2I8RZqwi7sBsh4fjrqrYDnc+zDnSM8zyZm2TVMYk1gsbGCo6gBSeSmbODXtqeGNWEFR+UaMOcShcP3r2XnF9RjimuCo7MOZuasHOcYgASD5zfDhCN4MaIG1L6D4aBhwlc4Shb5D4RgxEz9cKrgyK3ZRdC1AHKKBgA0T9+h1FMBdwX8Sa3kPf9uBQtH9DB/oQkWgokLEbo0PgUWoYKV0I1wd8z3zmm3kIg/RciP/wcURkKv+58UHg2HzP8PcDHR+Z5Jq4Ra2A24Woy6Q8qdfiSxWNF5nklNOAs4tHM0Sed5JrxoEPRTCc3wC7yi6RxPRSshCy9Uzj1XnkpYOrghLRL8qpyMT/v6zf+8vgFG80iK7km8qAAAAABJRU5ErkJggg==" parent="1" vertex="1">
          <mxGeometry x="2221" y="1064" width="147" height="25" as="geometry" />
        </mxCell>
        <mxCell id="node57" value="CarritoRepository" style="label;fontStyle=0;strokeColor=default;fillColor=none;align=left;verticalAlign=middle;overflow=hidden;spacingLeft=28;spacingRight=4;rotatable=0;points=[[0,0.5],[1,0.5]];portConstraint=eastwest;imageWidth=16;imageHeight=16;image=data:image/png,iVBORw0KGgoAAAANSUhEUgAAACAAAAAgCAYAAABzenr0AAACPklEQVR4Xu2WuUsDQRTG03hbe7USi9jZaGNjtNBokyjZFQUrG/GsbATvUtTOSm2DuyERBMH7qtIE2VWwEDz+Aa2s1vf2kNmXZNfsERD8YIqdnZnfN2/fvNlA4F+/VGZnvEwWuQlZ4Bay4mgdfe+rXhNDVQA/gabo7eU+GW+m43wRC7/bjymHW/2lM0Hhgz2tSrgjqKQ2S2AiH7yzrVltOSZSfD2d70pWcNZEelszIYn8El3DsX4DxxbtCik3e1EtCgI/Q9dxJEdwkbt63h2rpGsVLSkxVO4Enj0eraFrscJ1JYGflARu0TJXcJDX8MzhQDXkx5k+3vrUYCLhoPRmRAm3B+3gRbVb2JSRsA8i9wpRaaD8gCyMNMKAdxyU3OgzmXADx4jGurX6kd6KaP1JbpnyVT2I8RZqwi7sBsh4fjrqrYDnc+zDnSM8zyZm2TVMYk1gsbGCo6gBSeSmbODXtqeGNWEFR+UaMOcShcP3r2XnF9RjimuCo7MOZuasHOcYgASD5zfDhCN4MaIG1L6D4aBhwlc4Shb5D4RgxEz9cKrgyK3ZRdC1AHKKBgA0T9+h1FMBdwX8Sa3kPf9uBQtH9DB/oQkWgokLEbo0PgUWoYKV0I1wd8z3zmm3kIg/RciP/wcURkKv+58UHg2HzP8PcDHR+Z5Jq4Ra2A24Woy6Q8qdfiSxWNF5nklNOAs4tHM0Sed5JrxoEPRTCc3wC7yi6RxPRSshCy9Uzj1XnkpYOrghLRL8qpyMT/v6zf+8vgFG80iK7km8qAAAAABJRU5ErkJggg==" parent="1" vertex="1">
          <mxGeometry x="902" y="1589" width="135" height="25" as="geometry" />
        </mxCell>
        <mxCell id="node12" value="CarritoService" style="label;fontStyle=0;strokeColor=default;fillColor=none;align=left;verticalAlign=middle;overflow=hidden;spacingLeft=28;spacingRight=4;rotatable=0;points=[[0,0.5],[1,0.5]];portConstraint=eastwest;imageWidth=16;imageHeight=16;image=data:image/png,iVBORw0KGgoAAAANSUhEUgAAACAAAAAgCAYAAABzenr0AAACPklEQVR4Xu2WuUsDQRTG03hbe7USi9jZaGNjtNBokyjZFQUrG/GsbATvUtTOSm2DuyERBMH7qtIE2VWwEDz+Aa2s1vf2kNmXZNfsERD8YIqdnZnfN2/fvNlA4F+/VGZnvEwWuQlZ4Bay4mgdfe+rXhNDVQA/gabo7eU+GW+m43wRC7/bjymHW/2lM0Hhgz2tSrgjqKQ2S2AiH7yzrVltOSZSfD2d70pWcNZEelszIYn8El3DsX4DxxbtCik3e1EtCgI/Q9dxJEdwkbt63h2rpGsVLSkxVO4Enj0eraFrscJ1JYGflARu0TJXcJDX8MzhQDXkx5k+3vrUYCLhoPRmRAm3B+3gRbVb2JSRsA8i9wpRaaD8gCyMNMKAdxyU3OgzmXADx4jGurX6kd6KaP1JbpnyVT2I8RZqwi7sBsh4fjrqrYDnc+zDnSM8zyZm2TVMYk1gsbGCo6gBSeSmbODXtqeGNWEFR+UaMOcShcP3r2XnF9RjimuCo7MOZuasHOcYgASD5zfDhCN4MaIG1L6D4aBhwlc4Shb5D4RgxEz9cKrgyK3ZRdC1AHKKBgA0T9+h1FMBdwX8Sa3kPf9uBQtH9DB/oQkWgokLEbo0PgUWoYKV0I1wd8z3zmm3kIg/RciP/wcURkKv+58UHg2HzP8PcDHR+Z5Jq4Ra2A24Woy6Q8qdfiSxWNF5nklNOAs4tHM0Sed5JrxoEPRTCc3wC7yi6RxPRSshCy9Uzj1XnkpYOrghLRL8qpyMT/v6zf+8vgFG80iK7km8qAAAAABJRU5ErkJggg==" parent="1" vertex="1">
          <mxGeometry x="2062" y="1139" width="114" height="25" as="geometry" />
        </mxCell>
        <mxCell id="node22" value="CarritosController" style="label;fontStyle=0;strokeColor=default;fillColor=none;align=left;verticalAlign=middle;overflow=hidden;spacingLeft=28;spacingRight=4;rotatable=0;points=[[0,0.5],[1,0.5]];portConstraint=eastwest;imageWidth=16;imageHeight=16;image=data:image/png,iVBORw0KGgoAAAANSUhEUgAAACAAAAAgCAYAAABzenr0AAACPklEQVR4Xu2WuUsDQRTG03hbe7USi9jZaGNjtNBokyjZFQUrG/GsbATvUtTOSm2DuyERBMH7qtIE2VWwEDz+Aa2s1vf2kNmXZNfsERD8YIqdnZnfN2/fvNlA4F+/VGZnvEwWuQlZ4Bay4mgdfe+rXhNDVQA/gabo7eU+GW+m43wRC7/bjymHW/2lM0Hhgz2tSrgjqKQ2S2AiH7yzrVltOSZSfD2d70pWcNZEelszIYn8El3DsX4DxxbtCik3e1EtCgI/Q9dxJEdwkbt63h2rpGsVLSkxVO4Enj0eraFrscJ1JYGflARu0TJXcJDX8MzhQDXkx5k+3vrUYCLhoPRmRAm3B+3gRbVb2JSRsA8i9wpRaaD8gCyMNMKAdxyU3OgzmXADx4jGurX6kd6KaP1JbpnyVT2I8RZqwi7sBsh4fjrqrYDnc+zDnSM8zyZm2TVMYk1gsbGCo6gBSeSmbODXtqeGNWEFR+UaMOcShcP3r2XnF9RjimuCo7MOZuasHOcYgASD5zfDhCN4MaIG1L6D4aBhwlc4Shb5D4RgxEz9cKrgyK3ZRdC1AHKKBgA0T9+h1FMBdwX8Sa3kPf9uBQtH9DB/oQkWgokLEbo0PgUWoYKV0I1wd8z3zmm3kIg/RciP/wcURkKv+58UHg2HzP8PcDHR+Z5Jq4Ra2A24Woy6Q8qdfiSxWNF5nklNOAs4tHM0Sed5JrxoEPRTCc3wC7yi6RxPRSshCy9Uzj1XnkpYOrghLRL8qpyMT/v6zf+8vgFG80iK7km8qAAAAABJRU5ErkJggg==" parent="1" vertex="1">
          <mxGeometry x="2400" y="989" width="138" height="25" as="geometry" />
        </mxCell>
        <mxCell id="node62" value="CloudinaryImagesController" style="label;fontStyle=0;strokeColor=default;fillColor=none;align=left;verticalAlign=middle;overflow=hidden;spacingLeft=28;spacingRight=4;rotatable=0;points=[[0,0.5],[1,0.5]];portConstraint=eastwest;imageWidth=16;imageHeight=16;image=data:image/png,iVBORw0KGgoAAAANSUhEUgAAACAAAAAgCAYAAABzenr0AAACPklEQVR4Xu2WuUsDQRTG03hbe7USi9jZaGNjtNBokyjZFQUrG/GsbATvUtTOSm2DuyERBMH7qtIE2VWwEDz+Aa2s1vf2kNmXZNfsERD8YIqdnZnfN2/fvNlA4F+/VGZnvEwWuQlZ4Bay4mgdfe+rXhNDVQA/gabo7eU+GW+m43wRC7/bjymHW/2lM0Hhgz2tSrgjqKQ2S2AiH7yzrVltOSZSfD2d70pWcNZEelszIYn8El3DsX4DxxbtCik3e1EtCgI/Q9dxJEdwkbt63h2rpGsVLSkxVO4Enj0eraFrscJ1JYGflARu0TJXcJDX8MzhQDXkx5k+3vrUYCLhoPRmRAm3B+3gRbVb2JSRsA8i9wpRaaD8gCyMNMKAdxyU3OgzmXADx4jGurX6kd6KaP1JbpnyVT2I8RZqwi7sBsh4fjrqrYDnc+zDnSM8zyZm2TVMYk1gsbGCo6gBSeSmbODXtqeGNWEFR+UaMOcShcP3r2XnF9RjimuCo7MOZuasHOcYgASD5zfDhCN4MaIG1L6D4aBhwlc4Shb5D4RgxEz9cKrgyK3ZRdC1AHKKBgA0T9+h1FMBdwX8Sa3kPf9uBQtH9DB/oQkWgokLEbo0PgUWoYKV0I1wd8z3zmm3kIg/RciP/wcURkKv+58UHg2HzP8PcDHR+Z5Jq4Ra2A24Woy6Q8qdfiSxWNF5nklNOAs4tHM0Sed5JrxoEPRTCc3wC7yi6RxPRSshCy9Uzj1XnkpYOrghLRL8qpyMT/v6zf+8vgFG80iK7km8qAAAAABJRU5ErkJggg==" parent="1" vertex="1">
          <mxGeometry x="-130" y="1389" width="198" height="25" as="geometry" />
        </mxCell>
        <mxCell id="node71" value="CloudinaryService" style="label;fontStyle=0;strokeColor=default;fillColor=none;align=left;verticalAlign=middle;overflow=hidden;spacingLeft=28;spacingRight=4;rotatable=0;points=[[0,0.5],[1,0.5]];portConstraint=eastwest;imageWidth=16;imageHeight=16;image=data:image/png,iVBORw0KGgoAAAANSUhEUgAAACAAAAAgCAYAAABzenr0AAACPklEQVR4Xu2WuUsDQRTG03hbe7USi9jZaGNjtNBokyjZFQUrG/GsbATvUtTOSm2DuyERBMH7qtIE2VWwEDz+Aa2s1vf2kNmXZNfsERD8YIqdnZnfN2/fvNlA4F+/VGZnvEwWuQlZ4Bay4mgdfe+rXhNDVQA/gabo7eU+GW+m43wRC7/bjymHW/2lM0Hhgz2tSrgjqKQ2S2AiH7yzrVltOSZSfD2d70pWcNZEelszIYn8El3DsX4DxxbtCik3e1EtCgI/Q9dxJEdwkbt63h2rpGsVLSkxVO4Enj0eraFrscJ1JYGflARu0TJXcJDX8MzhQDXkx5k+3vrUYCLhoPRmRAm3B+3gRbVb2JSRsA8i9wpRaaD8gCyMNMKAdxyU3OgzmXADx4jGurX6kd6KaP1JbpnyVT2I8RZqwi7sBsh4fjrqrYDnc+zDnSM8zyZm2TVMYk1gsbGCo6gBSeSmbODXtqeGNWEFR+UaMOcShcP3r2XnF9RjimuCo7MOZuasHOcYgASD5zfDhCN4MaIG1L6D4aBhwlc4Shb5D4RgxEz9cKrgyK3ZRdC1AHKKBgA0T9+h1FMBdwX8Sa3kPf9uBQtH9DB/oQkWgokLEbo0PgUWoYKV0I1wd8z3zmm3kIg/RciP/wcURkKv+58UHg2HzP8PcDHR+Z5Jq4Ra2A24Woy6Q8qdfiSxWNF5nklNOAs4tHM0Sed5JrxoEPRTCc3wC7yi6RxPRSshCy9Uzj1XnkpYOrghLRL8qpyMT/v6zf+8vgFG80iK7km8qAAAAABJRU5ErkJggg==" parent="1" vertex="1">
          <mxGeometry x="100" y="1389" width="138" height="25" as="geometry" />
        </mxCell>
        <mxCell id="node10" value="Comentario" style="label;fontStyle=0;strokeColor=default;fillColor=none;align=left;verticalAlign=middle;overflow=hidden;spacingLeft=28;spacingRight=4;rotatable=0;points=[[0,0.5],[1,0.5]];portConstraint=eastwest;imageWidth=16;imageHeight=16;image=data:image/png,iVBORw0KGgoAAAANSUhEUgAAACAAAAAgCAYAAABzenr0AAACPklEQVR4Xu2WuUsDQRTG03hbe7USi9jZaGNjtNBokyjZFQUrG/GsbATvUtTOSm2DuyERBMH7qtIE2VWwEDz+Aa2s1vf2kNmXZNfsERD8YIqdnZnfN2/fvNlA4F+/VGZnvEwWuQlZ4Bay4mgdfe+rXhNDVQA/gabo7eU+GW+m43wRC7/bjymHW/2lM0Hhgz2tSrgjqKQ2S2AiH7yzrVltOSZSfD2d70pWcNZEelszIYn8El3DsX4DxxbtCik3e1EtCgI/Q9dxJEdwkbt63h2rpGsVLSkxVO4Enj0eraFrscJ1JYGflARu0TJXcJDX8MzhQDXkx5k+3vrUYCLhoPRmRAm3B+3gRbVb2JSRsA8i9wpRaaD8gCyMNMKAdxyU3OgzmXADx4jGurX6kd6KaP1JbpnyVT2I8RZqwi7sBsh4fjrqrYDnc+zDnSM8zyZm2TVMYk1gsbGCo6gBSeSmbODXtqeGNWEFR+UaMOcShcP3r2XnF9RjimuCo7MOZuasHOcYgASD5zfDhCN4MaIG1L6D4aBhwlc4Shb5D4RgxEz9cKrgyK3ZRdC1AHKKBgA0T9+h1FMBdwX8Sa3kPf9uBQtH9DB/oQkWgokLEbo0PgUWoYKV0I1wd8z3zmm3kIg/RciP/wcURkKv+58UHg2HzP8PcDHR+Z5Jq4Ra2A24Woy6Q8qdfiSxWNF5nklNOAs4tHM0Sed5JrxoEPRTCc3wC7yi6RxPRSshCy9Uzj1XnkpYOrghLRL8qpyMT/v6zf+8vgFG80iK7km8qAAAAABJRU5ErkJggg==" parent="1" vertex="1">
          <mxGeometry x="2745" y="414" width="98" height="25" as="geometry" />
        </mxCell>
        <mxCell id="node69" value="ComentarioDto" style="label;fontStyle=0;strokeColor=default;fillColor=none;align=left;verticalAlign=middle;overflow=hidden;spacingLeft=28;spacingRight=4;rotatable=0;points=[[0,0.5],[1,0.5]];portConstraint=eastwest;imageWidth=16;imageHeight=16;image=data:image/png,iVBORw0KGgoAAAANSUhEUgAAACAAAAAgCAYAAABzenr0AAACPklEQVR4Xu2WuUsDQRTG03hbe7USi9jZaGNjtNBokyjZFQUrG/GsbATvUtTOSm2DuyERBMH7qtIE2VWwEDz+Aa2s1vf2kNmXZNfsERD8YIqdnZnfN2/fvNlA4F+/VGZnvEwWuQlZ4Bay4mgdfe+rXhNDVQA/gabo7eU+GW+m43wRC7/bjymHW/2lM0Hhgz2tSrgjqKQ2S2AiH7yzrVltOSZSfD2d70pWcNZEelszIYn8El3DsX4DxxbtCik3e1EtCgI/Q9dxJEdwkbt63h2rpGsVLSkxVO4Enj0eraFrscJ1JYGflARu0TJXcJDX8MzhQDXkx5k+3vrUYCLhoPRmRAm3B+3gRbVb2JSRsA8i9wpRaaD8gCyMNMKAdxyU3OgzmXADx4jGurX6kd6KaP1JbpnyVT2I8RZqwi7sBsh4fjrqrYDnc+zDnSM8zyZm2TVMYk1gsbGCo6gBSeSmbODXtqeGNWEFR+UaMOcShcP3r2XnF9RjimuCo7MOZuasHOcYgASD5zfDhCN4MaIG1L6D4aBhwlc4Shb5D4RgxEz9cKrgyK3ZRdC1AHKKBgA0T9+h1FMBdwX8Sa3kPf9uBQtH9DB/oQkWgokLEbo0PgUWoYKV0I1wd8z3zmm3kIg/RciP/wcURkKv+58UHg2HzP8PcDHR+Z5Jq4Ra2A24Woy6Q8qdfiSxWNF5nklNOAs4tHM0Sed5JrxoEPRTCc3wC7yi6RxPRSshCy9Uzj1XnkpYOrghLRL8qpyMT/v6zf+8vgFG80iK7km8qAAAAABJRU5ErkJggg==" parent="1" vertex="1">
          <mxGeometry x="1084" y="1589" width="121" height="25" as="geometry" />
        </mxCell>
        <mxCell id="node7" value="EmailController" style="label;fontStyle=0;strokeColor=default;fillColor=none;align=left;verticalAlign=middle;overflow=hidden;spacingLeft=28;spacingRight=4;rotatable=0;points=[[0,0.5],[1,0.5]];portConstraint=eastwest;imageWidth=16;imageHeight=16;image=data:image/png,iVBORw0KGgoAAAANSUhEUgAAACAAAAAgCAYAAABzenr0AAACPklEQVR4Xu2WuUsDQRTG03hbe7USi9jZaGNjtNBokyjZFQUrG/GsbATvUtTOSm2DuyERBMH7qtIE2VWwEDz+Aa2s1vf2kNmXZNfsERD8YIqdnZnfN2/fvNlA4F+/VGZnvEwWuQlZ4Bay4mgdfe+rXhNDVQA/gabo7eU+GW+m43wRC7/bjymHW/2lM0Hhgz2tSrgjqKQ2S2AiH7yzrVltOSZSfD2d70pWcNZEelszIYn8El3DsX4DxxbtCik3e1EtCgI/Q9dxJEdwkbt63h2rpGsVLSkxVO4Enj0eraFrscJ1JYGflARu0TJXcJDX8MzhQDXkx5k+3vrUYCLhoPRmRAm3B+3gRbVb2JSRsA8i9wpRaaD8gCyMNMKAdxyU3OgzmXADx4jGurX6kd6KaP1JbpnyVT2I8RZqwi7sBsh4fjrqrYDnc+zDnSM8zyZm2TVMYk1gsbGCo6gBSeSmbODXtqeGNWEFR+UaMOcShcP3r2XnF9RjimuCo7MOZuasHOcYgASD5zfDhCN4MaIG1L6D4aBhwlc4Shb5D4RgxEz9cKrgyK3ZRdC1AHKKBgA0T9+h1FMBdwX8Sa3kPf9uBQtH9DB/oQkWgokLEbo0PgUWoYKV0I1wd8z3zmm3kIg/RciP/wcURkKv+58UHg2HzP8PcDHR+Z5Jq4Ra2A24Woy6Q8qdfiSxWNF5nklNOAs4tHM0Sed5JrxoEPRTCc3wC7yi6RxPRSshCy9Uzj1XnkpYOrghLRL8qpyMT/v6zf+8vgFG80iK7km8qAAAAABJRU5ErkJggg==" parent="1" vertex="1">
          <mxGeometry x="234" y="1664" width="121" height="25" as="geometry" />
        </mxCell>
        <mxCell id="node28" value="EmailRequest" style="label;fontStyle=0;strokeColor=default;fillColor=none;align=left;verticalAlign=middle;overflow=hidden;spacingLeft=28;spacingRight=4;rotatable=0;points=[[0,0.5],[1,0.5]];portConstraint=eastwest;imageWidth=16;imageHeight=16;image=data:image/png,iVBORw0KGgoAAAANSUhEUgAAACAAAAAgCAYAAABzenr0AAACPklEQVR4Xu2WuUsDQRTG03hbe7USi9jZaGNjtNBokyjZFQUrG/GsbATvUtTOSm2DuyERBMH7qtIE2VWwEDz+Aa2s1vf2kNmXZNfsERD8YIqdnZnfN2/fvNlA4F+/VGZnvEwWuQlZ4Bay4mgdfe+rXhNDVQA/gabo7eU+GW+m43wRC7/bjymHW/2lM0Hhgz2tSrgjqKQ2S2AiH7yzrVltOSZSfD2d70pWcNZEelszIYn8El3DsX4DxxbtCik3e1EtCgI/Q9dxJEdwkbt63h2rpGsVLSkxVO4Enj0eraFrscJ1JYGflARu0TJXcJDX8MzhQDXkx5k+3vrUYCLhoPRmRAm3B+3gRbVb2JSRsA8i9wpRaaD8gCyMNMKAdxyU3OgzmXADx4jGurX6kd6KaP1JbpnyVT2I8RZqwi7sBsh4fjrqrYDnc+zDnSM8zyZm2TVMYk1gsbGCo6gBSeSmbODXtqeGNWEFR+UaMOcShcP3r2XnF9RjimuCo7MOZuasHOcYgASD5zfDhCN4MaIG1L6D4aBhwlc4Shb5D4RgxEz9cKrgyK3ZRdC1AHKKBgA0T9+h1FMBdwX8Sa3kPf9uBQtH9DB/oQkWgokLEbo0PgUWoYKV0I1wd8z3zmm3kIg/RciP/wcURkKv+58UHg2HzP8PcDHR+Z5Jq4Ra2A24Woy6Q8qdfiSxWNF5nklNOAs4tHM0Sed5JrxoEPRTCc3wC7yi6RxPRSshCy9Uzj1XnkpYOrghLRL8qpyMT/v6zf+8vgFG80iK7km8qAAAAABJRU5ErkJggg==" parent="1" vertex="1">
          <mxGeometry x="240" y="1589" width="109" height="25" as="geometry" />
        </mxCell>
        <mxCell id="node2" value="EmailResponse" style="label;fontStyle=0;strokeColor=default;fillColor=none;align=left;verticalAlign=middle;overflow=hidden;spacingLeft=28;spacingRight=4;rotatable=0;points=[[0,0.5],[1,0.5]];portConstraint=eastwest;imageWidth=16;imageHeight=16;image=data:image/png,iVBORw0KGgoAAAANSUhEUgAAACAAAAAgCAYAAABzenr0AAACPklEQVR4Xu2WuUsDQRTG03hbe7USi9jZaGNjtNBokyjZFQUrG/GsbATvUtTOSm2DuyERBMH7qtIE2VWwEDz+Aa2s1vf2kNmXZNfsERD8YIqdnZnfN2/fvNlA4F+/VGZnvEwWuQlZ4Bay4mgdfe+rXhNDVQA/gabo7eU+GW+m43wRC7/bjymHW/2lM0Hhgz2tSrgjqKQ2S2AiH7yzrVltOSZSfD2d70pWcNZEelszIYn8El3DsX4DxxbtCik3e1EtCgI/Q9dxJEdwkbt63h2rpGsVLSkxVO4Enj0eraFrscJ1JYGflARu0TJXcJDX8MzhQDXkx5k+3vrUYCLhoPRmRAm3B+3gRbVb2JSRsA8i9wpRaaD8gCyMNMKAdxyU3OgzmXADx4jGurX6kd6KaP1JbpnyVT2I8RZqwi7sBsh4fjrqrYDnc+zDnSM8zyZm2TVMYk1gsbGCo6gBSeSmbODXtqeGNWEFR+UaMOcShcP3r2XnF9RjimuCo7MOZuasHOcYgASD5zfDhCN4MaIG1L6D4aBhwlc4Shb5D4RgxEz9cKrgyK3ZRdC1AHKKBgA0T9+h1FMBdwX8Sa3kPf9uBQtH9DB/oQkWgokLEbo0PgUWoYKV0I1wd8z3zmm3kIg/RciP/wcURkKv+58UHg2HzP8PcDHR+Z5Jq4Ra2A24Woy6Q8qdfiSxWNF5nklNOAs4tHM0Sed5JrxoEPRTCc3wC7yi6RxPRSshCy9Uzj1XnkpYOrghLRL8qpyMT/v6zf+8vgFG80iK7km8qAAAAABJRU5ErkJggg==" parent="1" vertex="1">
          <mxGeometry x="234" y="1739" width="120" height="25" as="geometry" />
        </mxCell>
        <mxCell id="node21" value="EmailService" style="label;fontStyle=0;strokeColor=default;fillColor=none;align=left;verticalAlign=middle;overflow=hidden;spacingLeft=28;spacingRight=4;rotatable=0;points=[[0,0.5],[1,0.5]];portConstraint=eastwest;imageWidth=16;imageHeight=16;image=data:image/png,iVBORw0KGgoAAAANSUhEUgAAACAAAAAgCAYAAABzenr0AAACPklEQVR4Xu2WuUsDQRTG03hbe7USi9jZaGNjtNBokyjZFQUrG/GsbATvUtTOSm2DuyERBMH7qtIE2VWwEDz+Aa2s1vf2kNmXZNfsERD8YIqdnZnfN2/fvNlA4F+/VGZnvEwWuQlZ4Bay4mgdfe+rXhNDVQA/gabo7eU+GW+m43wRC7/bjymHW/2lM0Hhgz2tSrgjqKQ2S2AiH7yzrVltOSZSfD2d70pWcNZEelszIYn8El3DsX4DxxbtCik3e1EtCgI/Q9dxJEdwkbt63h2rpGsVLSkxVO4Enj0eraFrscJ1JYGflARu0TJXcJDX8MzhQDXkx5k+3vrUYCLhoPRmRAm3B+3gRbVb2JSRsA8i9wpRaaD8gCyMNMKAdxyU3OgzmXADx4jGurX6kd6KaP1JbpnyVT2I8RZqwi7sBsh4fjrqrYDnc+zDnSM8zyZm2TVMYk1gsbGCo6gBSeSmbODXtqeGNWEFR+UaMOcShcP3r2XnF9RjimuCo7MOZuasHOcYgASD5zfDhCN4MaIG1L6D4aBhwlc4Shb5D4RgxEz9cKrgyK3ZRdC1AHKKBgA0T9+h1FMBdwX8Sa3kPf9uBQtH9DB/oQkWgokLEbo0PgUWoYKV0I1wd8z3zmm3kIg/RciP/wcURkKv+58UHg2HzP8PcDHR+Z5Jq4Ra2A24Woy6Q8qdfiSxWNF5nklNOAs4tHM0Sed5JrxoEPRTCc3wC7yi6RxPRSshCy9Uzj1XnkpYOrghLRL8qpyMT/v6zf+8vgFG80iK7km8qAAAAABJRU5ErkJggg==" parent="1" vertex="1">
          <mxGeometry x="417" y="1589" width="104" height="25" as="geometry" />
        </mxCell>
        <mxCell id="node6" value="EntidadesCreadasRelaccionadas" style="label;fontStyle=0;strokeColor=default;fillColor=none;align=left;verticalAlign=middle;overflow=hidden;spacingLeft=28;spacingRight=4;rotatable=0;points=[[0,0.5],[1,0.5]];portConstraint=eastwest;imageWidth=16;imageHeight=16;image=data:image/png,iVBORw0KGgoAAAANSUhEUgAAACAAAAAgCAYAAABzenr0AAACPklEQVR4Xu2WuUsDQRTG03hbe7USi9jZaGNjtNBokyjZFQUrG/GsbATvUtTOSm2DuyERBMH7qtIE2VWwEDz+Aa2s1vf2kNmXZNfsERD8YIqdnZnfN2/fvNlA4F+/VGZnvEwWuQlZ4Bay4mgdfe+rXhNDVQA/gabo7eU+GW+m43wRC7/bjymHW/2lM0Hhgz2tSrgjqKQ2S2AiH7yzrVltOSZSfD2d70pWcNZEelszIYn8El3DsX4DxxbtCik3e1EtCgI/Q9dxJEdwkbt63h2rpGsVLSkxVO4Enj0eraFrscJ1JYGflARu0TJXcJDX8MzhQDXkx5k+3vrUYCLhoPRmRAm3B+3gRbVb2JSRsA8i9wpRaaD8gCyMNMKAdxyU3OgzmXADx4jGurX6kd6KaP1JbpnyVT2I8RZqwi7sBsh4fjrqrYDnc+zDnSM8zyZm2TVMYk1gsbGCo6gBSeSmbODXtqeGNWEFR+UaMOcShcP3r2XnF9RjimuCo7MOZuasHOcYgASD5zfDhCN4MaIG1L6D4aBhwlc4Shb5D4RgxEz9cKrgyK3ZRdC1AHKKBgA0T9+h1FMBdwX8Sa3kPf9uBQtH9DB/oQkWgokLEbo0PgUWoYKV0I1wd8z3zmm3kIg/RciP/wcURkKv+58UHg2HzP8PcDHR+Z5Jq4Ra2A24Woy6Q8qdfiSxWNF5nklNOAs4tHM0Sed5JrxoEPRTCc3wC7yi6RxPRSshCy9Uzj1XnkpYOrghLRL8qpyMT/v6zf+8vgFG80iK7km8qAAAAABJRU5ErkJggg==" parent="1" vertex="1">
          <mxGeometry x="205" y="139" width="228" height="25" as="geometry" />
        </mxCell>
        <mxCell id="node38" value="Historial" style="label;fontStyle=0;strokeColor=default;fillColor=none;align=left;verticalAlign=middle;overflow=hidden;spacingLeft=28;spacingRight=4;rotatable=0;points=[[0,0.5],[1,0.5]];portConstraint=eastwest;imageWidth=16;imageHeight=16;image=data:image/png,iVBORw0KGgoAAAANSUhEUgAAACAAAAAgCAYAAABzenr0AAACPklEQVR4Xu2WuUsDQRTG03hbe7USi9jZaGNjtNBokyjZFQUrG/GsbATvUtTOSm2DuyERBMH7qtIE2VWwEDz+Aa2s1vf2kNmXZNfsERD8YIqdnZnfN2/fvNlA4F+/VGZnvEwWuQlZ4Bay4mgdfe+rXhNDVQA/gabo7eU+GW+m43wRC7/bjymHW/2lM0Hhgz2tSrgjqKQ2S2AiH7yzrVltOSZSfD2d70pWcNZEelszIYn8El3DsX4DxxbtCik3e1EtCgI/Q9dxJEdwkbt63h2rpGsVLSkxVO4Enj0eraFrscJ1JYGflARu0TJXcJDX8MzhQDXkx5k+3vrUYCLhoPRmRAm3B+3gRbVb2JSRsA8i9wpRaaD8gCyMNMKAdxyU3OgzmXADx4jGurX6kd6KaP1JbpnyVT2I8RZqwi7sBsh4fjrqrYDnc+zDnSM8zyZm2TVMYk1gsbGCo6gBSeSmbODXtqeGNWEFR+UaMOcShcP3r2XnF9RjimuCo7MOZuasHOcYgASD5zfDhCN4MaIG1L6D4aBhwlc4Shb5D4RgxEz9cKrgyK3ZRdC1AHKKBgA0T9+h1FMBdwX8Sa3kPf9uBQtH9DB/oQkWgokLEbo0PgUWoYKV0I1wd8z3zmm3kIg/RciP/wcURkKv+58UHg2HzP8PcDHR+Z5Jq4Ra2A24Woy6Q8qdfiSxWNF5nklNOAs4tHM0Sed5JrxoEPRTCc3wC7yi6RxPRSshCy9Uzj1XnkpYOrghLRL8qpyMT/v6zf+8vgFG80iK7km8qAAAAABJRU5ErkJggg==" parent="1" vertex="1">
          <mxGeometry x="4180" y="414" width="78" height="25" as="geometry" />
        </mxCell>
        <mxCell id="node73" value="IAuthService" style="label;fontStyle=0;strokeColor=default;fillColor=none;align=left;verticalAlign=middle;overflow=hidden;spacingLeft=28;spacingRight=4;rotatable=0;points=[[0,0.5],[1,0.5]];portConstraint=eastwest;imageWidth=16;imageHeight=16;image=data:image/png,iVBORw0KGgoAAAANSUhEUgAAACAAAAAgCAYAAABzenr0AAABAklEQVR4XmNgGAWjYBSMAiqAyJ5PIiGd35tCun6cD+n+/hmMQWygGEgOXT1VQXDXt+CQru8fgfg/DvwRpAZdH1UA1PJ/IIvcCo78N/So+K9uFgrGIDZIDOqIf1R3RGjbZ1GYz62j5/5XNfLFikFysJAA6UE3BwOENvxnC+763g6Mv2cgDGKDxNDVQeIc6PP8wxiWomOQGrAjgHrQzcEAId0/OjDiESiGoQ6UyIByoKBGtxAdg9RAzPpxHt0cDABU+BSk2MCtGIwxHIOG1c3CMCxExyA1UPWf0O3DAAPvgIGOggFPhMQCmmVDUsCAFkQwMKBFMQwMaGU0CkbBKBgFQx4AAMHA5vI38L6PAAAAAElFTkSuQmCC" parent="1" vertex="1">
          <mxGeometry x="2943" y="189" width="103" height="25" as="geometry" />
        </mxCell>
        <mxCell id="node41" value="ICarritoService" style="label;fontStyle=0;strokeColor=default;fillColor=none;align=left;verticalAlign=middle;overflow=hidden;spacingLeft=28;spacingRight=4;rotatable=0;points=[[0,0.5],[1,0.5]];portConstraint=eastwest;imageWidth=16;imageHeight=16;image=data:image/png,iVBORw0KGgoAAAANSUhEUgAAACAAAAAgCAYAAABzenr0AAABAklEQVR4XmNgGAWjYBSMAiqAyJ5PIiGd35tCun6cD+n+/hmMQWygGEgOXT1VQXDXt+CQru8fgfg/DvwRpAZdH1UA1PJ/IIvcCo78N/So+K9uFgrGIDZIDOqIf1R3RGjbZ1GYz62j5/5XNfLFikFysJAA6UE3BwOENvxnC+763g6Mv2cgDGKDxNDVQeIc6PP8wxiWomOQGrAjgHrQzcEAId0/OjDiESiGoQ6UyIByoKBGtxAdg9RAzPpxHt0cDABU+BSk2MCtGIwxHIOG1c3CMCxExyA1UPWf0O3DAAPvgIGOggFPhMQCmmVDUsCAFkQwMKBFMQwMaGU0CkbBKBgFQx4AAMHA5vI38L6PAAAAAElFTkSuQmCC" parent="1" vertex="1">
          <mxGeometry x="2061" y="989" width="117" height="25" as="geometry" />
        </mxCell>
        <mxCell id="node18" value="IEmailService" style="label;fontStyle=0;strokeColor=default;fillColor=none;align=left;verticalAlign=middle;overflow=hidden;spacingLeft=28;spacingRight=4;rotatable=0;points=[[0,0.5],[1,0.5]];portConstraint=eastwest;imageWidth=16;imageHeight=16;image=data:image/png,iVBORw0KGgoAAAANSUhEUgAAACAAAAAgCAYAAABzenr0AAABAklEQVR4XmNgGAWjYBSMAiqAyJ5PIiGd35tCun6cD+n+/hmMQWygGEgOXT1VQXDXt+CQru8fgfg/DvwRpAZdH1UA1PJ/IIvcCo78N/So+K9uFgrGIDZIDOqIf1R3RGjbZ1GYz62j5/5XNfLFikFysJAA6UE3BwOENvxnC+763g6Mv2cgDGKDxNDVQeIc6PP8wxiWomOQGrAjgHrQzcEAId0/OjDiESiGoQ6UyIByoKBGtxAdg9RAzPpxHt0cDABU+BSk2MCtGIwxHIOG1c3CMCxExyA1UPWf0O3DAAPvgIGOggFPhMQCmmVDUsCAFkQwMKBFMQwMaGU0CkbBKBgFQx4AAMHA5vI38L6PAAAAAElFTkSuQmCC" parent="1" vertex="1">
          <mxGeometry x="416" y="1664" width="107" height="25" as="geometry" />
        </mxCell>
        <mxCell id="node64" value="IMarcaService" style="label;fontStyle=0;strokeColor=default;fillColor=none;align=left;verticalAlign=middle;overflow=hidden;spacingLeft=28;spacingRight=4;rotatable=0;points=[[0,0.5],[1,0.5]];portConstraint=eastwest;imageWidth=16;imageHeight=16;image=data:image/png,iVBORw0KGgoAAAANSUhEUgAAACAAAAAgCAYAAABzenr0AAABAklEQVR4XmNgGAWjYBSMAiqAyJ5PIiGd35tCun6cD+n+/hmMQWygGEgOXT1VQXDXt+CQru8fgfg/DvwRpAZdH1UA1PJ/IIvcCo78N/So+K9uFgrGIDZIDOqIf1R3RGjbZ1GYz62j5/5XNfLFikFysJAA6UE3BwOENvxnC+763g6Mv2cgDGKDxNDVQeIc6PP8wxiWomOQGrAjgHrQzcEAId0/OjDiESiGoQ6UyIByoKBGtxAdg9RAzPpxHt0cDABU+BSk2MCtGIwxHIOG1c3CMCxExyA1UPWf0O3DAAPvgIGOggFPhMQCmmVDUsCAFkQwMKBFMQwMaGU0CkbBKBgFQx4AAMHA5vI38L6PAAAAAElFTkSuQmCC" parent="1" vertex="1">
          <mxGeometry x="4688" y="1239" width="112" height="25" as="geometry" />
        </mxCell>
        <mxCell id="node16" value="IPedidoService" style="label;fontStyle=0;strokeColor=default;fillColor=none;align=left;verticalAlign=middle;overflow=hidden;spacingLeft=28;spacingRight=4;rotatable=0;points=[[0,0.5],[1,0.5]];portConstraint=eastwest;imageWidth=16;imageHeight=16;image=data:image/png,iVBORw0KGgoAAAANSUhEUgAAACAAAAAgCAYAAABzenr0AAABAklEQVR4XmNgGAWjYBSMAiqAyJ5PIiGd35tCun6cD+n+/hmMQWygGEgOXT1VQXDXt+CQru8fgfg/DvwRpAZdH1UA1PJ/IIvcCo78N/So+K9uFgrGIDZIDOqIf1R3RGjbZ1GYz62j5/5XNfLFikFysJAA6UE3BwOENvxnC+763g6Mv2cgDGKDxNDVQeIc6PP8wxiWomOQGrAjgHrQzcEAId0/OjDiESiGoQ6UyIByoKBGtxAdg9RAzPpxHt0cDABU+BSk2MCtGIwxHIOG1c3CMCxExyA1UPWf0O3DAAPvgIGOggFPhMQCmmVDUsCAFkQwMKBFMQwMaGU0CkbBKBgFQx4AAMHA5vI38L6PAAAAAElFTkSuQmCC" parent="1" vertex="1">
          <mxGeometry x="1786" y="814" width="117" height="25" as="geometry" />
        </mxCell>
        <mxCell id="node67" value="IProductoService" style="label;fontStyle=0;strokeColor=default;fillColor=none;align=left;verticalAlign=middle;overflow=hidden;spacingLeft=28;spacingRight=4;rotatable=0;points=[[0,0.5],[1,0.5]];portConstraint=eastwest;imageWidth=16;imageHeight=16;image=data:image/png,iVBORw0KGgoAAAANSUhEUgAAACAAAAAgCAYAAABzenr0AAABAklEQVR4XmNgGAWjYBSMAiqAyJ5PIiGd35tCun6cD+n+/hmMQWygGEgOXT1VQXDXt+CQru8fgfg/DvwRpAZdH1UA1PJ/IIvcCo78N/So+K9uFgrGIDZIDOqIf1R3RGjbZ1GYz62j5/5XNfLFikFysJAA6UE3BwOENvxnC+763g6Mv2cgDGKDxNDVQeIc6PP8wxiWomOQGrAjgHrQzcEAId0/OjDiESiGoQ6UyIByoKBGtxAdg9RAzPpxHt0cDABU+BSk2MCtGIwxHIOG1c3CMCxExyA1UPWf0O3DAAPvgIGOggFPhMQCmmVDUsCAFkQwMKBFMQwMaGU0CkbBKBgFQx4AAMHA5vI38L6PAAAAAElFTkSuQmCC" parent="1" vertex="1">
          <mxGeometry x="304" y="1464" width="130" height="25" as="geometry" />
        </mxCell>
        <mxCell id="node27" value="ITipoProductoService" style="label;fontStyle=0;strokeColor=default;fillColor=none;align=left;verticalAlign=middle;overflow=hidden;spacingLeft=28;spacingRight=4;rotatable=0;points=[[0,0.5],[1,0.5]];portConstraint=eastwest;imageWidth=16;imageHeight=16;image=data:image/png,iVBORw0KGgoAAAANSUhEUgAAACAAAAAgCAYAAABzenr0AAABAklEQVR4XmNgGAWjYBSMAiqAyJ5PIiGd35tCun6cD+n+/hmMQWygGEgOXT1VQXDXt+CQru8fgfg/DvwRpAZdH1UA1PJ/IIvcCo78N/So+K9uFgrGIDZIDOqIf1R3RGjbZ1GYz62j5/5XNfLFikFysJAA6UE3BwOENvxnC+763g6Mv2cgDGKDxNDVQeIc6PP8wxiWomOQGrAjgHrQzcEAId0/OjDiESiGoQ6UyIByoKBGtxAdg9RAzPpxHt0cDABU+BSk2MCtGIwxHIOG1c3CMCxExyA1UPWf0O3DAAPvgIGOggFPhMQCmmVDUsCAFkQwMKBFMQwMaGU0CkbBKBgFQx4AAMHA5vI38L6PAAAAAElFTkSuQmCC" parent="1" vertex="1">
          <mxGeometry x="1115" y="139" width="158" height="25" as="geometry" />
        </mxCell>
        <mxCell id="node36" value="IUsuarioService" style="label;fontStyle=0;strokeColor=default;fillColor=none;align=left;verticalAlign=middle;overflow=hidden;spacingLeft=28;spacingRight=4;rotatable=0;points=[[0,0.5],[1,0.5]];portConstraint=eastwest;imageWidth=16;imageHeight=16;image=data:image/png,iVBORw0KGgoAAAANSUhEUgAAACAAAAAgCAYAAABzenr0AAABAklEQVR4XmNgGAWjYBSMAiqAyJ5PIiGd35tCun6cD+n+/hmMQWygGEgOXT1VQXDXt+CQru8fgfg/DvwRpAZdH1UA1PJ/IIvcCo78N/So+K9uFgrGIDZIDOqIf1R3RGjbZ1GYz62j5/5XNfLFikFysJAA6UE3BwOENvxnC+763g6Mv2cgDGKDxNDVQeIc6PP8wxiWomOQGrAjgHrQzcEAId0/OjDiESiGoQ6UyIByoKBGtxAdg9RAzPpxHt0cDABU+BSk2MCtGIwxHIOG1c3CMCxExyA1UPWf0O3DAAPvgIGOggFPhMQCmmVDUsCAFkQwMKBFMQwMaGU0CkbBKBgFQx4AAMHA5vI38L6PAAAAAElFTkSuQmCC" parent="1" vertex="1">
          <mxGeometry x="3408" y="289" width="122" height="25" as="geometry" />
        </mxCell>
        <mxCell id="node0" value="JwtHelper" style="label;fontStyle=0;strokeColor=default;fillColor=none;align=left;verticalAlign=middle;overflow=hidden;spacingLeft=28;spacingRight=4;rotatable=0;points=[[0,0.5],[1,0.5]];portConstraint=eastwest;imageWidth=16;imageHeight=16;image=data:image/png,iVBORw0KGgoAAAANSUhEUgAAACAAAAAgCAYAAABzenr0AAACPklEQVR4Xu2WuUsDQRTG03hbe7USi9jZaGNjtNBokyjZFQUrG/GsbATvUtTOSm2DuyERBMH7qtIE2VWwEDz+Aa2s1vf2kNmXZNfsERD8YIqdnZnfN2/fvNlA4F+/VGZnvEwWuQlZ4Bay4mgdfe+rXhNDVQA/gabo7eU+GW+m43wRC7/bjymHW/2lM0Hhgz2tSrgjqKQ2S2AiH7yzrVltOSZSfD2d70pWcNZEelszIYn8El3DsX4DxxbtCik3e1EtCgI/Q9dxJEdwkbt63h2rpGsVLSkxVO4Enj0eraFrscJ1JYGflARu0TJXcJDX8MzhQDXkx5k+3vrUYCLhoPRmRAm3B+3gRbVb2JSRsA8i9wpRaaD8gCyMNMKAdxyU3OgzmXADx4jGurX6kd6KaP1JbpnyVT2I8RZqwi7sBsh4fjrqrYDnc+zDnSM8zyZm2TVMYk1gsbGCo6gBSeSmbODXtqeGNWEFR+UaMOcShcP3r2XnF9RjimuCo7MOZuasHOcYgASD5zfDhCN4MaIG1L6D4aBhwlc4Shb5D4RgxEz9cKrgyK3ZRdC1AHKKBgA0T9+h1FMBdwX8Sa3kPf9uBQtH9DB/oQkWgokLEbo0PgUWoYKV0I1wd8z3zmm3kIg/RciP/wcURkKv+58UHg2HzP8PcDHR+Z5Jq4Ra2A24Woy6Q8qdfiSxWNF5nklNOAs4tHM0Sed5JrxoEPRTCc3wC7yi6RxPRSshCy9Uzj1XnkpYOrghLRL8qpyMT/v6zf+8vgFG80iK7km8qAAAAABJRU5ErkJggg==" parent="1" vertex="1">
          <mxGeometry x="3750" y="339" width="89" height="25" as="geometry" />
        </mxCell>
        <mxCell id="node60" value="LoginDto" style="label;fontStyle=0;strokeColor=default;fillColor=none;align=left;verticalAlign=middle;overflow=hidden;spacingLeft=28;spacingRight=4;rotatable=0;points=[[0,0.5],[1,0.5]];portConstraint=eastwest;imageWidth=16;imageHeight=16;image=data:image/png,iVBORw0KGgoAAAANSUhEUgAAACAAAAAgCAYAAABzenr0AAACPklEQVR4Xu2WuUsDQRTG03hbe7USi9jZaGNjtNBokyjZFQUrG/GsbATvUtTOSm2DuyERBMH7qtIE2VWwEDz+Aa2s1vf2kNmXZNfsERD8YIqdnZnfN2/fvNlA4F+/VGZnvEwWuQlZ4Bay4mgdfe+rXhNDVQA/gabo7eU+GW+m43wRC7/bjymHW/2lM0Hhgz2tSrgjqKQ2S2AiH7yzrVltOSZSfD2d70pWcNZEelszIYn8El3DsX4DxxbtCik3e1EtCgI/Q9dxJEdwkbt63h2rpGsVLSkxVO4Enj0eraFrscJ1JYGflARu0TJXcJDX8MzhQDXkx5k+3vrUYCLhoPRmRAm3B+3gRbVb2JSRsA8i9wpRaaD8gCyMNMKAdxyU3OgzmXADx4jGurX6kd6KaP1JbpnyVT2I8RZqwi7sBsh4fjrqrYDnc+zDnSM8zyZm2TVMYk1gsbGCo6gBSeSmbODXtqeGNWEFR+UaMOcShcP3r2XnF9RjimuCo7MOZuasHOcYgASD5zfDhCN4MaIG1L6D4aBhwlc4Shb5D4RgxEz9cKrgyK3ZRdC1AHKKBgA0T9+h1FMBdwX8Sa3kPf9uBQtH9DB/oQkWgokLEbo0PgUWoYKV0I1wd8z3zmm3kIg/RciP/wcURkKv+58UHg2HzP8PcDHR+Z5Jq4Ra2A24Woy6Q8qdfiSxWNF5nklNOAs4tHM0Sed5JrxoEPRTCc3wC7yi6RxPRSshCy9Uzj1XnkpYOrghLRL8qpyMT/v6zf+8vgFG80iK7km8qAAAAABJRU5ErkJggg==" parent="1" vertex="1">
          <mxGeometry x="3128" y="114" width="83" height="25" as="geometry" />
        </mxCell>
        <mxCell id="node46" value="MappingProfile" style="label;fontStyle=0;strokeColor=default;fillColor=none;align=left;verticalAlign=middle;overflow=hidden;spacingLeft=28;spacingRight=4;rotatable=0;points=[[0,0.5],[1,0.5]];portConstraint=eastwest;imageWidth=16;imageHeight=16;image=data:image/png,iVBORw0KGgoAAAANSUhEUgAAACAAAAAgCAYAAABzenr0AAACPklEQVR4Xu2WuUsDQRTG03hbe7USi9jZaGNjtNBokyjZFQUrG/GsbATvUtTOSm2DuyERBMH7qtIE2VWwEDz+Aa2s1vf2kNmXZNfsERD8YIqdnZnfN2/fvNlA4F+/VGZnvEwWuQlZ4Bay4mgdfe+rXhNDVQA/gabo7eU+GW+m43wRC7/bjymHW/2lM0Hhgz2tSrgjqKQ2S2AiH7yzrVltOSZSfD2d70pWcNZEelszIYn8El3DsX4DxxbtCik3e1EtCgI/Q9dxJEdwkbt63h2rpGsVLSkxVO4Enj0eraFrscJ1JYGflARu0TJXcJDX8MzhQDXkx5k+3vrUYCLhoPRmRAm3B+3gRbVb2JSRsA8i9wpRaaD8gCyMNMKAdxyU3OgzmXADx4jGurX6kd6KaP1JbpnyVT2I8RZqwi7sBsh4fjrqrYDnc+zDnSM8zyZm2TVMYk1gsbGCo6gBSeSmbODXtqeGNWEFR+UaMOcShcP3r2XnF9RjimuCo7MOZuasHOcYgASD5zfDhCN4MaIG1L6D4aBhwlc4Shb5D4RgxEz9cKrgyK3ZRdC1AHKKBgA0T9+h1FMBdwX8Sa3kPf9uBQtH9DB/oQkWgokLEbo0PgUWoYKV0I1wd8z3zmm3kIg/RciP/wcURkKv+58UHg2HzP8PcDHR+Z5Jq4Ra2A24Woy6Q8qdfiSxWNF5nklNOAs4tHM0Sed5JrxoEPRTCc3wC7yi6RxPRSshCy9Uzj1XnkpYOrghLRL8qpyMT/v6zf+8vgFG80iK7km8qAAAAABJRU5ErkJggg==" parent="1" vertex="1">
          <mxGeometry x="1235" y="1589" width="119" height="25" as="geometry" />
        </mxCell>
        <mxCell id="node43" value="Marca" style="label;fontStyle=0;strokeColor=default;fillColor=none;align=left;verticalAlign=middle;overflow=hidden;spacingLeft=28;spacingRight=4;rotatable=0;points=[[0,0.5],[1,0.5]];portConstraint=eastwest;imageWidth=16;imageHeight=16;image=data:image/png,iVBORw0KGgoAAAANSUhEUgAAACAAAAAgCAYAAABzenr0AAACPklEQVR4Xu2WuUsDQRTG03hbe7USi9jZaGNjtNBokyjZFQUrG/GsbATvUtTOSm2DuyERBMH7qtIE2VWwEDz+Aa2s1vf2kNmXZNfsERD8YIqdnZnfN2/fvNlA4F+/VGZnvEwWuQlZ4Bay4mgdfe+rXhNDVQA/gabo7eU+GW+m43wRC7/bjymHW/2lM0Hhgz2tSrgjqKQ2S2AiH7yzrVltOSZSfD2d70pWcNZEelszIYn8El3DsX4DxxbtCik3e1EtCgI/Q9dxJEdwkbt63h2rpGsVLSkxVO4Enj0eraFrscJ1JYGflARu0TJXcJDX8MzhQDXkx5k+3vrUYCLhoPRmRAm3B+3gRbVb2JSRsA8i9wpRaaD8gCyMNMKAdxyU3OgzmXADx4jGurX6kd6KaP1JbpnyVT2I8RZqwi7sBsh4fjrqrYDnc+zDnSM8zyZm2TVMYk1gsbGCo6gBSeSmbODXtqeGNWEFR+UaMOcShcP3r2XnF9RjimuCo7MOZuasHOcYgASD5zfDhCN4MaIG1L6D4aBhwlc4Shb5D4RgxEz9cKrgyK3ZRdC1AHKKBgA0T9+h1FMBdwX8Sa3kPf9uBQtH9DB/oQkWgokLEbo0PgUWoYKV0I1wd8z3zmm3kIg/RciP/wcURkKv+58UHg2HzP8PcDHR+Z5Jq4Ra2A24Woy6Q8qdfiSxWNF5nklNOAs4tHM0Sed5JrxoEPRTCc3wC7yi6RxPRSshCy9Uzj1XnkpYOrghLRL8qpyMT/v6zf+8vgFG80iK7km8qAAAAABJRU5ErkJggg==" parent="1" vertex="1">
          <mxGeometry x="4387" y="1239" width="64" height="25" as="geometry" />
        </mxCell>
        <mxCell id="node24" value="MarcaDto" style="label;fontStyle=0;strokeColor=default;fillColor=none;align=left;verticalAlign=middle;overflow=hidden;spacingLeft=28;spacingRight=4;rotatable=0;points=[[0,0.5],[1,0.5]];portConstraint=eastwest;imageWidth=16;imageHeight=16;image=data:image/png,iVBORw0KGgoAAAANSUhEUgAAACAAAAAgCAYAAABzenr0AAACPklEQVR4Xu2WuUsDQRTG03hbe7USi9jZaGNjtNBokyjZFQUrG/GsbATvUtTOSm2DuyERBMH7qtIE2VWwEDz+Aa2s1vf2kNmXZNfsERD8YIqdnZnfN2/fvNlA4F+/VGZnvEwWuQlZ4Bay4mgdfe+rXhNDVQA/gabo7eU+GW+m43wRC7/bjymHW/2lM0Hhgz2tSrgjqKQ2S2AiH7yzrVltOSZSfD2d70pWcNZEelszIYn8El3DsX4DxxbtCik3e1EtCgI/Q9dxJEdwkbt63h2rpGsVLSkxVO4Enj0eraFrscJ1JYGflARu0TJXcJDX8MzhQDXkx5k+3vrUYCLhoPRmRAm3B+3gRbVb2JSRsA8i9wpRaaD8gCyMNMKAdxyU3OgzmXADx4jGurX6kd6KaP1JbpnyVT2I8RZqwi7sBsh4fjrqrYDnc+zDnSM8zyZm2TVMYk1gsbGCo6gBSeSmbODXtqeGNWEFR+UaMOcShcP3r2XnF9RjimuCo7MOZuasHOcYgASD5zfDhCN4MaIG1L6D4aBhwlc4Shb5D4RgxEz9cKrgyK3ZRdC1AHKKBgA0T9+h1FMBdwX8Sa3kPf9uBQtH9DB/oQkWgokLEbo0PgUWoYKV0I1wd8z3zmm3kIg/RciP/wcURkKv+58UHg2HzP8PcDHR+Z5Jq4Ra2A24Woy6Q8qdfiSxWNF5nklNOAs4tHM0Sed5JrxoEPRTCc3wC7yi6RxPRSshCy9Uzj1XnkpYOrghLRL8qpyMT/v6zf+8vgFG80iK7km8qAAAAABJRU5ErkJggg==" parent="1" vertex="1">
          <mxGeometry x="4526" y="1314" width="86" height="25" as="geometry" />
        </mxCell>
        <mxCell id="node8" value="MarcaService" style="label;fontStyle=0;strokeColor=default;fillColor=none;align=left;verticalAlign=middle;overflow=hidden;spacingLeft=28;spacingRight=4;rotatable=0;points=[[0,0.5],[1,0.5]];portConstraint=eastwest;imageWidth=16;imageHeight=16;image=data:image/png,iVBORw0KGgoAAAANSUhEUgAAACAAAAAgCAYAAABzenr0AAACPklEQVR4Xu2WuUsDQRTG03hbe7USi9jZaGNjtNBokyjZFQUrG/GsbATvUtTOSm2DuyERBMH7qtIE2VWwEDz+Aa2s1vf2kNmXZNfsERD8YIqdnZnfN2/fvNlA4F+/VGZnvEwWuQlZ4Bay4mgdfe+rXhNDVQA/gabo7eU+GW+m43wRC7/bjymHW/2lM0Hhgz2tSrgjqKQ2S2AiH7yzrVltOSZSfD2d70pWcNZEelszIYn8El3DsX4DxxbtCik3e1EtCgI/Q9dxJEdwkbt63h2rpGsVLSkxVO4Enj0eraFrscJ1JYGflARu0TJXcJDX8MzhQDXkx5k+3vrUYCLhoPRmRAm3B+3gRbVb2JSRsA8i9wpRaaD8gCyMNMKAdxyU3OgzmXADx4jGurX6kd6KaP1JbpnyVT2I8RZqwi7sBsh4fjrqrYDnc+zDnSM8zyZm2TVMYk1gsbGCo6gBSeSmbODXtqeGNWEFR+UaMOcShcP3r2XnF9RjimuCo7MOZuasHOcYgASD5zfDhCN4MaIG1L6D4aBhwlc4Shb5D4RgxEz9cKrgyK3ZRdC1AHKKBgA0T9+h1FMBdwX8Sa3kPf9uBQtH9DB/oQkWgokLEbo0PgUWoYKV0I1wd8z3zmm3kIg/RciP/wcURkKv+58UHg2HzP8PcDHR+Z5Jq4Ra2A24Woy6Q8qdfiSxWNF5nklNOAs4tHM0Sed5JrxoEPRTCc3wC7yi6RxPRSshCy9Uzj1XnkpYOrghLRL8qpyMT/v6zf+8vgFG80iK7km8qAAAAABJRU5ErkJggg==" parent="1" vertex="1">
          <mxGeometry x="4515" y="1239" width="109" height="25" as="geometry" />
        </mxCell>
        <mxCell id="node49" value="MarcasController" style="label;fontStyle=0;strokeColor=default;fillColor=none;align=left;verticalAlign=middle;overflow=hidden;spacingLeft=28;spacingRight=4;rotatable=0;points=[[0,0.5],[1,0.5]];portConstraint=eastwest;imageWidth=16;imageHeight=16;image=data:image/png,iVBORw0KGgoAAAANSUhEUgAAACAAAAAgCAYAAABzenr0AAACPklEQVR4Xu2WuUsDQRTG03hbe7USi9jZaGNjtNBokyjZFQUrG/GsbATvUtTOSm2DuyERBMH7qtIE2VWwEDz+Aa2s1vf2kNmXZNfsERD8YIqdnZnfN2/fvNlA4F+/VGZnvEwWuQlZ4Bay4mgdfe+rXhNDVQA/gabo7eU+GW+m43wRC7/bjymHW/2lM0Hhgz2tSrgjqKQ2S2AiH7yzrVltOSZSfD2d70pWcNZEelszIYn8El3DsX4DxxbtCik3e1EtCgI/Q9dxJEdwkbt63h2rpGsVLSkxVO4Enj0eraFrscJ1JYGflARu0TJXcJDX8MzhQDXkx5k+3vrUYCLhoPRmRAm3B+3gRbVb2JSRsA8i9wpRaaD8gCyMNMKAdxyU3OgzmXADx4jGurX6kd6KaP1JbpnyVT2I8RZqwi7sBsh4fjrqrYDnc+zDnSM8zyZm2TVMYk1gsbGCo6gBSeSmbODXtqeGNWEFR+UaMOcShcP3r2XnF9RjimuCo7MOZuasHOcYgASD5zfDhCN4MaIG1L6D4aBhwlc4Shb5D4RgxEz9cKrgyK3ZRdC1AHKKBgA0T9+h1FMBdwX8Sa3kPf9uBQtH9DB/oQkWgokLEbo0PgUWoYKV0I1wd8z3zmm3kIg/RciP/wcURkKv+58UHg2HzP8PcDHR+Z5Jq4Ra2A24Woy6Q8qdfiSxWNF5nklNOAs4tHM0Sed5JrxoEPRTCc3wC7yi6RxPRSshCy9Uzj1XnkpYOrghLRL8qpyMT/v6zf+8vgFG80iK7km8qAAAAABJRU5ErkJggg==" parent="1" vertex="1">
          <mxGeometry x="4678" y="1314" width="133" height="25" as="geometry" />
        </mxCell>
        <mxCell id="node44" value="MontoDto" style="label;fontStyle=0;strokeColor=default;fillColor=none;align=left;verticalAlign=middle;overflow=hidden;spacingLeft=28;spacingRight=4;rotatable=0;points=[[0,0.5],[1,0.5]];portConstraint=eastwest;imageWidth=16;imageHeight=16;image=data:image/png,iVBORw0KGgoAAAANSUhEUgAAACAAAAAgCAYAAABzenr0AAACPklEQVR4Xu2WuUsDQRTG03hbe7USi9jZaGNjtNBokyjZFQUrG/GsbATvUtTOSm2DuyERBMH7qtIE2VWwEDz+Aa2s1vf2kNmXZNfsERD8YIqdnZnfN2/fvNlA4F+/VGZnvEwWuQlZ4Bay4mgdfe+rXhNDVQA/gabo7eU+GW+m43wRC7/bjymHW/2lM0Hhgz2tSrgjqKQ2S2AiH7yzrVltOSZSfD2d70pWcNZEelszIYn8El3DsX4DxxbtCik3e1EtCgI/Q9dxJEdwkbt63h2rpGsVLSkxVO4Enj0eraFrscJ1JYGflARu0TJXcJDX8MzhQDXkx5k+3vrUYCLhoPRmRAm3B+3gRbVb2JSRsA8i9wpRaaD8gCyMNMKAdxyU3OgzmXADx4jGurX6kd6KaP1JbpnyVT2I8RZqwi7sBsh4fjrqrYDnc+zDnSM8zyZm2TVMYk1gsbGCo6gBSeSmbODXtqeGNWEFR+UaMOcShcP3r2XnF9RjimuCo7MOZuasHOcYgASD5zfDhCN4MaIG1L6D4aBhwlc4Shb5D4RgxEz9cKrgyK3ZRdC1AHKKBgA0T9+h1FMBdwX8Sa3kPf9uBQtH9DB/oQkWgokLEbo0PgUWoYKV0I1wd8z3zmm3kIg/RciP/wcURkKv+58UHg2HzP8PcDHR+Z5Jq4Ra2A24Woy6Q8qdfiSxWNF5nklNOAs4tHM0Sed5JrxoEPRTCc3wC7yi6RxPRSshCy9Uzj1XnkpYOrghLRL8qpyMT/v6zf+8vgFG80iK7km8qAAAAABJRU5ErkJggg==" parent="1" vertex="1">
          <mxGeometry x="1925" y="714" width="89" height="25" as="geometry" />
        </mxCell>
        <mxCell id="node52" value="PagosController" style="label;fontStyle=0;strokeColor=default;fillColor=none;align=left;verticalAlign=middle;overflow=hidden;spacingLeft=28;spacingRight=4;rotatable=0;points=[[0,0.5],[1,0.5]];portConstraint=eastwest;imageWidth=16;imageHeight=16;image=data:image/png,iVBORw0KGgoAAAANSUhEUgAAACAAAAAgCAYAAABzenr0AAACPklEQVR4Xu2WuUsDQRTG03hbe7USi9jZaGNjtNBokyjZFQUrG/GsbATvUtTOSm2DuyERBMH7qtIE2VWwEDz+Aa2s1vf2kNmXZNfsERD8YIqdnZnfN2/fvNlA4F+/VGZnvEwWuQlZ4Bay4mgdfe+rXhNDVQA/gabo7eU+GW+m43wRC7/bjymHW/2lM0Hhgz2tSrgjqKQ2S2AiH7yzrVltOSZSfD2d70pWcNZEelszIYn8El3DsX4DxxbtCik3e1EtCgI/Q9dxJEdwkbt63h2rpGsVLSkxVO4Enj0eraFrscJ1JYGflARu0TJXcJDX8MzhQDXkx5k+3vrUYCLhoPRmRAm3B+3gRbVb2JSRsA8i9wpRaaD8gCyMNMKAdxyU3OgzmXADx4jGurX6kd6KaP1JbpnyVT2I8RZqwi7sBsh4fjrqrYDnc+zDnSM8zyZm2TVMYk1gsbGCo6gBSeSmbODXtqeGNWEFR+UaMOcShcP3r2XnF9RjimuCo7MOZuasHOcYgASD5zfDhCN4MaIG1L6D4aBhwlc4Shb5D4RgxEz9cKrgyK3ZRdC1AHKKBgA0T9+h1FMBdwX8Sa3kPf9uBQtH9DB/oQkWgokLEbo0PgUWoYKV0I1wd8z3zmm3kIg/RciP/wcURkKv+58UHg2HzP8PcDHR+Z5Jq4Ra2A24Woy6Q8qdfiSxWNF5nklNOAs4tHM0Sed5JrxoEPRTCc3wC7yi6RxPRSshCy9Uzj1XnkpYOrghLRL8qpyMT/v6zf+8vgFG80iK7km8qAAAAABJRU5ErkJggg==" parent="1" vertex="1">
          <mxGeometry x="2056" y="814" width="126" height="25" as="geometry" />
        </mxCell>
        <mxCell id="node58" value="PasswordHashed" style="label;fontStyle=0;strokeColor=default;fillColor=none;align=left;verticalAlign=middle;overflow=hidden;spacingLeft=28;spacingRight=4;rotatable=0;points=[[0,0.5],[1,0.5]];portConstraint=eastwest;imageWidth=16;imageHeight=16;image=data:image/png,iVBORw0KGgoAAAANSUhEUgAAACAAAAAgCAYAAABzenr0AAACPklEQVR4Xu2WuUsDQRTG03hbe7USi9jZaGNjtNBokyjZFQUrG/GsbATvUtTOSm2DuyERBMH7qtIE2VWwEDz+Aa2s1vf2kNmXZNfsERD8YIqdnZnfN2/fvNlA4F+/VGZnvEwWuQlZ4Bay4mgdfe+rXhNDVQA/gabo7eU+GW+m43wRC7/bjymHW/2lM0Hhgz2tSrgjqKQ2S2AiH7yzrVltOSZSfD2d70pWcNZEelszIYn8El3DsX4DxxbtCik3e1EtCgI/Q9dxJEdwkbt63h2rpGsVLSkxVO4Enj0eraFrscJ1JYGflARu0TJXcJDX8MzhQDXkx5k+3vrUYCLhoPRmRAm3B+3gRbVb2JSRsA8i9wpRaaD8gCyMNMKAdxyU3OgzmXADx4jGurX6kd6KaP1JbpnyVT2I8RZqwi7sBsh4fjrqrYDnc+zDnSM8zyZm2TVMYk1gsbGCo6gBSeSmbODXtqeGNWEFR+UaMOcShcP3r2XnF9RjimuCo7MOZuasHOcYgASD5zfDhCN4MaIG1L6D4aBhwlc4Shb5D4RgxEz9cKrgyK3ZRdC1AHKKBgA0T9+h1FMBdwX8Sa3kPf9uBQtH9DB/oQkWgokLEbo0PgUWoYKV0I1wd8z3zmm3kIg/RciP/wcURkKv+58UHg2HzP8PcDHR+Z5Jq4Ra2A24Woy6Q8qdfiSxWNF5nklNOAs4tHM0Sed5JrxoEPRTCc3wC7yi6RxPRSshCy9Uzj1XnkpYOrghLRL8qpyMT/v6zf+8vgFG80iK7km8qAAAAABJRU5ErkJggg==" parent="1" vertex="1">
          <mxGeometry x="2827" y="339" width="134" height="25" as="geometry" />
        </mxCell>
        <mxCell id="node39" value="PaymentIntentDto" style="label;fontStyle=0;strokeColor=default;fillColor=none;align=left;verticalAlign=middle;overflow=hidden;spacingLeft=28;spacingRight=4;rotatable=0;points=[[0,0.5],[1,0.5]];portConstraint=eastwest;imageWidth=16;imageHeight=16;image=data:image/png,iVBORw0KGgoAAAANSUhEUgAAACAAAAAgCAYAAABzenr0AAACPklEQVR4Xu2WuUsDQRTG03hbe7USi9jZaGNjtNBokyjZFQUrG/GsbATvUtTOSm2DuyERBMH7qtIE2VWwEDz+Aa2s1vf2kNmXZNfsERD8YIqdnZnfN2/fvNlA4F+/VGZnvEwWuQlZ4Bay4mgdfe+rXhNDVQA/gabo7eU+GW+m43wRC7/bjymHW/2lM0Hhgz2tSrgjqKQ2S2AiH7yzrVltOSZSfD2d70pWcNZEelszIYn8El3DsX4DxxbtCik3e1EtCgI/Q9dxJEdwkbt63h2rpGsVLSkxVO4Enj0eraFrscJ1JYGflARu0TJXcJDX8MzhQDXkx5k+3vrUYCLhoPRmRAm3B+3gRbVb2JSRsA8i9wpRaaD8gCyMNMKAdxyU3OgzmXADx4jGurX6kd6KaP1JbpnyVT2I8RZqwi7sBsh4fjrqrYDnc+zDnSM8zyZm2TVMYk1gsbGCo6gBSeSmbODXtqeGNWEFR+UaMOcShcP3r2XnF9RjimuCo7MOZuasHOcYgASD5zfDhCN4MaIG1L6D4aBhwlc4Shb5D4RgxEz9cKrgyK3ZRdC1AHKKBgA0T9+h1FMBdwX8Sa3kPf9uBQtH9DB/oQkWgokLEbo0PgUWoYKV0I1wd8z3zmm3kIg/RciP/wcURkKv+58UHg2HzP8PcDHR+Z5Jq4Ra2A24Woy6Q8qdfiSxWNF5nklNOAs4tHM0Sed5JrxoEPRTCc3wC7yi6RxPRSshCy9Uzj1XnkpYOrghLRL8qpyMT/v6zf+8vgFG80iK7km8qAAAAABJRU5ErkJggg==" parent="1" vertex="1">
          <mxGeometry x="-125" y="1589" width="138" height="25" as="geometry" />
        </mxCell>
        <mxCell id="node15" value="PaypalService" style="label;fontStyle=0;strokeColor=default;fillColor=none;align=left;verticalAlign=middle;overflow=hidden;spacingLeft=28;spacingRight=4;rotatable=0;points=[[0,0.5],[1,0.5]];portConstraint=eastwest;imageWidth=16;imageHeight=16;image=data:image/png,iVBORw0KGgoAAAANSUhEUgAAACAAAAAgCAYAAABzenr0AAACPklEQVR4Xu2WuUsDQRTG03hbe7USi9jZaGNjtNBokyjZFQUrG/GsbATvUtTOSm2DuyERBMH7qtIE2VWwEDz+Aa2s1vf2kNmXZNfsERD8YIqdnZnfN2/fvNlA4F+/VGZnvEwWuQlZ4Bay4mgdfe+rXhNDVQA/gabo7eU+GW+m43wRC7/bjymHW/2lM0Hhgz2tSrgjqKQ2S2AiH7yzrVltOSZSfD2d70pWcNZEelszIYn8El3DsX4DxxbtCik3e1EtCgI/Q9dxJEdwkbt63h2rpGsVLSkxVO4Enj0eraFrscJ1JYGflARu0TJXcJDX8MzhQDXkx5k+3vrUYCLhoPRmRAm3B+3gRbVb2JSRsA8i9wpRaaD8gCyMNMKAdxyU3OgzmXADx4jGurX6kd6KaP1JbpnyVT2I8RZqwi7sBsh4fjrqrYDnc+zDnSM8zyZm2TVMYk1gsbGCo6gBSeSmbODXtqeGNWEFR+UaMOcShcP3r2XnF9RjimuCo7MOZuasHOcYgASD5zfDhCN4MaIG1L6D4aBhwlc4Shb5D4RgxEz9cKrgyK3ZRdC1AHKKBgA0T9+h1FMBdwX8Sa3kPf9uBQtH9DB/oQkWgokLEbo0PgUWoYKV0I1wd8z3zmm3kIg/RciP/wcURkKv+58UHg2HzP8PcDHR+Z5Jq4Ra2A24Woy6Q8qdfiSxWNF5nklNOAs4tHM0Sed5JrxoEPRTCc3wC7yi6RxPRSshCy9Uzj1XnkpYOrghLRL8qpyMT/v6zf+8vgFG80iK7km8qAAAAABJRU5ErkJggg==" parent="1" vertex="1">
          <mxGeometry x="2063" y="714" width="112" height="25" as="geometry" />
        </mxCell>
        <mxCell id="node51" value="PaypalSettings" style="label;fontStyle=0;strokeColor=default;fillColor=none;align=left;verticalAlign=middle;overflow=hidden;spacingLeft=28;spacingRight=4;rotatable=0;points=[[0,0.5],[1,0.5]];portConstraint=eastwest;imageWidth=16;imageHeight=16;image=data:image/png,iVBORw0KGgoAAAANSUhEUgAAACAAAAAgCAYAAABzenr0AAACPklEQVR4Xu2WuUsDQRTG03hbe7USi9jZaGNjtNBokyjZFQUrG/GsbATvUtTOSm2DuyERBMH7qtIE2VWwEDz+Aa2s1vf2kNmXZNfsERD8YIqdnZnfN2/fvNlA4F+/VGZnvEwWuQlZ4Bay4mgdfe+rXhNDVQA/gabo7eU+GW+m43wRC7/bjymHW/2lM0Hhgz2tSrgjqKQ2S2AiH7yzrVltOSZSfD2d70pWcNZEelszIYn8El3DsX4DxxbtCik3e1EtCgI/Q9dxJEdwkbt63h2rpGsVLSkxVO4Enj0eraFrscJ1JYGflARu0TJXcJDX8MzhQDXkx5k+3vrUYCLhoPRmRAm3B+3gRbVb2JSRsA8i9wpRaaD8gCyMNMKAdxyU3OgzmXADx4jGurX6kd6KaP1JbpnyVT2I8RZqwi7sBsh4fjrqrYDnc+zDnSM8zyZm2TVMYk1gsbGCo6gBSeSmbODXtqeGNWEFR+UaMOcShcP3r2XnF9RjimuCo7MOZuasHOcYgASD5zfDhCN4MaIG1L6D4aBhwlc4Shb5D4RgxEz9cKrgyK3ZRdC1AHKKBgA0T9+h1FMBdwX8Sa3kPf9uBQtH9DB/oQkWgokLEbo0PgUWoYKV0I1wd8z3zmm3kIg/RciP/wcURkKv+58UHg2HzP8PcDHR+Z5Jq4Ra2A24Woy6Q8qdfiSxWNF5nklNOAs4tHM0Sed5JrxoEPRTCc3wC7yi6RxPRSshCy9Uzj1XnkpYOrghLRL8qpyMT/v6zf+8vgFG80iK7km8qAAAAABJRU5ErkJggg==" parent="1" vertex="1">
          <mxGeometry x="2060" y="639" width="118" height="25" as="geometry" />
        </mxCell>
        <mxCell id="node56" value="Pedido" style="label;fontStyle=0;strokeColor=default;fillColor=none;align=left;verticalAlign=middle;overflow=hidden;spacingLeft=28;spacingRight=4;rotatable=0;points=[[0,0.5],[1,0.5]];portConstraint=eastwest;imageWidth=16;imageHeight=16;image=data:image/png,iVBORw0KGgoAAAANSUhEUgAAACAAAAAgCAYAAABzenr0AAACPklEQVR4Xu2WuUsDQRTG03hbe7USi9jZaGNjtNBokyjZFQUrG/GsbATvUtTOSm2DuyERBMH7qtIE2VWwEDz+Aa2s1vf2kNmXZNfsERD8YIqdnZnfN2/fvNlA4F+/VGZnvEwWuQlZ4Bay4mgdfe+rXhNDVQA/gabo7eU+GW+m43wRC7/bjymHW/2lM0Hhgz2tSrgjqKQ2S2AiH7yzrVltOSZSfD2d70pWcNZEelszIYn8El3DsX4DxxbtCik3e1EtCgI/Q9dxJEdwkbt63h2rpGsVLSkxVO4Enj0eraFrscJ1JYGflARu0TJXcJDX8MzhQDXkx5k+3vrUYCLhoPRmRAm3B+3gRbVb2JSRsA8i9wpRaaD8gCyMNMKAdxyU3OgzmXADx4jGurX6kd6KaP1JbpnyVT2I8RZqwi7sBsh4fjrqrYDnc+zDnSM8zyZm2TVMYk1gsbGCo6gBSeSmbODXtqeGNWEFR+UaMOcShcP3r2XnF9RjimuCo7MOZuasHOcYgASD5zfDhCN4MaIG1L6D4aBhwlc4Shb5D4RgxEz9cKrgyK3ZRdC1AHKKBgA0T9+h1FMBdwX8Sa3kPf9uBQtH9DB/oQkWgokLEbo0PgUWoYKV0I1wd8z3zmm3kIg/RciP/wcURkKv+58UHg2HzP8PcDHR+Z5Jq4Ra2A24Woy6Q8qdfiSxWNF5nklNOAs4tHM0Sed5JrxoEPRTCc3wC7yi6RxPRSshCy9Uzj1XnkpYOrghLRL8qpyMT/v6zf+8vgFG80iK7km8qAAAAABJRU5ErkJggg==" parent="1" vertex="1">
          <mxGeometry x="1310" y="464" width="69" height="25" as="geometry" />
        </mxCell>
        <mxCell id="node26" value="PedidoDetalle" style="label;fontStyle=0;strokeColor=default;fillColor=none;align=left;verticalAlign=middle;overflow=hidden;spacingLeft=28;spacingRight=4;rotatable=0;points=[[0,0.5],[1,0.5]];portConstraint=eastwest;imageWidth=16;imageHeight=16;image=data:image/png,iVBORw0KGgoAAAANSUhEUgAAACAAAAAgCAYAAABzenr0AAACPklEQVR4Xu2WuUsDQRTG03hbe7USi9jZaGNjtNBokyjZFQUrG/GsbATvUtTOSm2DuyERBMH7qtIE2VWwEDz+Aa2s1vf2kNmXZNfsERD8YIqdnZnfN2/fvNlA4F+/VGZnvEwWuQlZ4Bay4mgdfe+rXhNDVQA/gabo7eU+GW+m43wRC7/bjymHW/2lM0Hhgz2tSrgjqKQ2S2AiH7yzrVltOSZSfD2d70pWcNZEelszIYn8El3DsX4DxxbtCik3e1EtCgI/Q9dxJEdwkbt63h2rpGsVLSkxVO4Enj0eraFrscJ1JYGflARu0TJXcJDX8MzhQDXkx5k+3vrUYCLhoPRmRAm3B+3gRbVb2JSRsA8i9wpRaaD8gCyMNMKAdxyU3OgzmXADx4jGurX6kd6KaP1JbpnyVT2I8RZqwi7sBsh4fjrqrYDnc+zDnSM8zyZm2TVMYk1gsbGCo6gBSeSmbODXtqeGNWEFR+UaMOcShcP3r2XnF9RjimuCo7MOZuasHOcYgASD5zfDhCN4MaIG1L6D4aBhwlc4Shb5D4RgxEz9cKrgyK3ZRdC1AHKKBgA0T9+h1FMBdwX8Sa3kPf9uBQtH9DB/oQkWgokLEbo0PgUWoYKV0I1wd8z3zmm3kIg/RciP/wcURkKv+58UHg2HzP8PcDHR+Z5Jq4Ra2A24Woy6Q8qdfiSxWNF5nklNOAs4tHM0Sed5JrxoEPRTCc3wC7yi6RxPRSshCy9Uzj1XnkpYOrghLRL8qpyMT/v6zf+8vgFG80iK7km8qAAAAABJRU5ErkJggg==" parent="1" vertex="1">
          <mxGeometry x="1289" y="539" width="111" height="25" as="geometry" />
        </mxCell>
        <mxCell id="node66" value="PedidoDetalleDto" style="label;fontStyle=0;strokeColor=default;fillColor=none;align=left;verticalAlign=middle;overflow=hidden;spacingLeft=28;spacingRight=4;rotatable=0;points=[[0,0.5],[1,0.5]];portConstraint=eastwest;imageWidth=16;imageHeight=16;image=data:image/png,iVBORw0KGgoAAAANSUhEUgAAACAAAAAgCAYAAABzenr0AAACPklEQVR4Xu2WuUsDQRTG03hbe7USi9jZaGNjtNBokyjZFQUrG/GsbATvUtTOSm2DuyERBMH7qtIE2VWwEDz+Aa2s1vf2kNmXZNfsERD8YIqdnZnfN2/fvNlA4F+/VGZnvEwWuQlZ4Bay4mgdfe+rXhNDVQA/gabo7eU+GW+m43wRC7/bjymHW/2lM0Hhgz2tSrgjqKQ2S2AiH7yzrVltOSZSfD2d70pWcNZEelszIYn8El3DsX4DxxbtCik3e1EtCgI/Q9dxJEdwkbt63h2rpGsVLSkxVO4Enj0eraFrscJ1JYGflARu0TJXcJDX8MzhQDXkx5k+3vrUYCLhoPRmRAm3B+3gRbVb2JSRsA8i9wpRaaD8gCyMNMKAdxyU3OgzmXADx4jGurX6kd6KaP1JbpnyVT2I8RZqwi7sBsh4fjrqrYDnc+zDnSM8zyZm2TVMYk1gsbGCo6gBSeSmbODXtqeGNWEFR+UaMOcShcP3r2XnF9RjimuCo7MOZuasHOcYgASD5zfDhCN4MaIG1L6D4aBhwlc4Shb5D4RgxEz9cKrgyK3ZRdC1AHKKBgA0T9+h1FMBdwX8Sa3kPf9uBQtH9DB/oQkWgokLEbo0PgUWoYKV0I1wd8z3zmm3kIg/RciP/wcURkKv+58UHg2HzP8PcDHR+Z5Jq4Ra2A24Woy6Q8qdfiSxWNF5nklNOAs4tHM0Sed5JrxoEPRTCc3wC7yi6RxPRSshCy9Uzj1XnkpYOrghLRL8qpyMT/v6zf+8vgFG80iK7km8qAAAAABJRU5ErkJggg==" parent="1" vertex="1">
          <mxGeometry x="1627" y="739" width="134" height="25" as="geometry" />
        </mxCell>
        <mxCell id="node37" value="PedidoDto" style="label;fontStyle=0;strokeColor=default;fillColor=none;align=left;verticalAlign=middle;overflow=hidden;spacingLeft=28;spacingRight=4;rotatable=0;points=[[0,0.5],[1,0.5]];portConstraint=eastwest;imageWidth=16;imageHeight=16;image=data:image/png,iVBORw0KGgoAAAANSUhEUgAAACAAAAAgCAYAAABzenr0AAACPklEQVR4Xu2WuUsDQRTG03hbe7USi9jZaGNjtNBokyjZFQUrG/GsbATvUtTOSm2DuyERBMH7qtIE2VWwEDz+Aa2s1vf2kNmXZNfsERD8YIqdnZnfN2/fvNlA4F+/VGZnvEwWuQlZ4Bay4mgdfe+rXhNDVQA/gabo7eU+GW+m43wRC7/bjymHW/2lM0Hhgz2tSrgjqKQ2S2AiH7yzrVltOSZSfD2d70pWcNZEelszIYn8El3DsX4DxxbtCik3e1EtCgI/Q9dxJEdwkbt63h2rpGsVLSkxVO4Enj0eraFrscJ1JYGflARu0TJXcJDX8MzhQDXkx5k+3vrUYCLhoPRmRAm3B+3gRbVb2JSRsA8i9wpRaaD8gCyMNMKAdxyU3OgzmXADx4jGurX6kd6KaP1JbpnyVT2I8RZqwi7sBsh4fjrqrYDnc+zDnSM8zyZm2TVMYk1gsbGCo6gBSeSmbODXtqeGNWEFR+UaMOcShcP3r2XnF9RjimuCo7MOZuasHOcYgASD5zfDhCN4MaIG1L6D4aBhwlc4Shb5D4RgxEz9cKrgyK3ZRdC1AHKKBgA0T9+h1FMBdwX8Sa3kPf9uBQtH9DB/oQkWgokLEbo0PgUWoYKV0I1wd8z3zmm3kIg/RciP/wcURkKv+58UHg2HzP8PcDHR+Z5Jq4Ra2A24Woy6Q8qdfiSxWNF5nklNOAs4tHM0Sed5JrxoEPRTCc3wC7yi6RxPRSshCy9Uzj1XnkpYOrghLRL8qpyMT/v6zf+8vgFG80iK7km8qAAAAABJRU5ErkJggg==" parent="1" vertex="1">
          <mxGeometry x="1649" y="814" width="91" height="25" as="geometry" />
        </mxCell>
        <mxCell id="node25" value="PedidoService" style="label;fontStyle=0;strokeColor=default;fillColor=none;align=left;verticalAlign=middle;overflow=hidden;spacingLeft=28;spacingRight=4;rotatable=0;points=[[0,0.5],[1,0.5]];portConstraint=eastwest;imageWidth=16;imageHeight=16;image=data:image/png,iVBORw0KGgoAAAANSUhEUgAAACAAAAAgCAYAAABzenr0AAACPklEQVR4Xu2WuUsDQRTG03hbe7USi9jZaGNjtNBokyjZFQUrG/GsbATvUtTOSm2DuyERBMH7qtIE2VWwEDz+Aa2s1vf2kNmXZNfsERD8YIqdnZnfN2/fvNlA4F+/VGZnvEwWuQlZ4Bay4mgdfe+rXhNDVQA/gabo7eU+GW+m43wRC7/bjymHW/2lM0Hhgz2tSrgjqKQ2S2AiH7yzrVltOSZSfD2d70pWcNZEelszIYn8El3DsX4DxxbtCik3e1EtCgI/Q9dxJEdwkbt63h2rpGsVLSkxVO4Enj0eraFrscJ1JYGflARu0TJXcJDX8MzhQDXkx5k+3vrUYCLhoPRmRAm3B+3gRbVb2JSRsA8i9wpRaaD8gCyMNMKAdxyU3OgzmXADx4jGurX6kd6KaP1JbpnyVT2I8RZqwi7sBsh4fjrqrYDnc+zDnSM8zyZm2TVMYk1gsbGCo6gBSeSmbODXtqeGNWEFR+UaMOcShcP3r2XnF9RjimuCo7MOZuasHOcYgASD5zfDhCN4MaIG1L6D4aBhwlc4Shb5D4RgxEz9cKrgyK3ZRdC1AHKKBgA0T9+h1FMBdwX8Sa3kPf9uBQtH9DB/oQkWgokLEbo0PgUWoYKV0I1wd8z3zmm3kIg/RciP/wcURkKv+58UHg2HzP8PcDHR+Z5Jq4Ra2A24Woy6Q8qdfiSxWNF5nklNOAs4tHM0Sed5JrxoEPRTCc3wC7yi6RxPRSshCy9Uzj1XnkpYOrghLRL8qpyMT/v6zf+8vgFG80iK7km8qAAAAABJRU5ErkJggg==" parent="1" vertex="1">
          <mxGeometry x="1462" y="1214" width="114" height="25" as="geometry" />
        </mxCell>
        <mxCell id="node9" value="PedidosController" style="label;fontStyle=0;strokeColor=default;fillColor=none;align=left;verticalAlign=middle;overflow=hidden;spacingLeft=28;spacingRight=4;rotatable=0;points=[[0,0.5],[1,0.5]];portConstraint=eastwest;imageWidth=16;imageHeight=16;image=data:image/png,iVBORw0KGgoAAAANSUhEUgAAACAAAAAgCAYAAABzenr0AAACPklEQVR4Xu2WuUsDQRTG03hbe7USi9jZaGNjtNBokyjZFQUrG/GsbATvUtTOSm2DuyERBMH7qtIE2VWwEDz+Aa2s1vf2kNmXZNfsERD8YIqdnZnfN2/fvNlA4F+/VGZnvEwWuQlZ4Bay4mgdfe+rXhNDVQA/gabo7eU+GW+m43wRC7/bjymHW/2lM0Hhgz2tSrgjqKQ2S2AiH7yzrVltOSZSfD2d70pWcNZEelszIYn8El3DsX4DxxbtCik3e1EtCgI/Q9dxJEdwkbt63h2rpGsVLSkxVO4Enj0eraFrscJ1JYGflARu0TJXcJDX8MzhQDXkx5k+3vrUYCLhoPRmRAm3B+3gRbVb2JSRsA8i9wpRaaD8gCyMNMKAdxyU3OgzmXADx4jGurX6kd6KaP1JbpnyVT2I8RZqwi7sBsh4fjrqrYDnc+zDnSM8zyZm2TVMYk1gsbGCo6gBSeSmbODXtqeGNWEFR+UaMOcShcP3r2XnF9RjimuCo7MOZuasHOcYgASD5zfDhCN4MaIG1L6D4aBhwlc4Shb5D4RgxEz9cKrgyK3ZRdC1AHKKBgA0T9+h1FMBdwX8Sa3kPf9uBQtH9DB/oQkWgokLEbo0PgUWoYKV0I1wd8z3zmm3kIg/RciP/wcURkKv+58UHg2HzP8PcDHR+Z5Jq4Ra2A24Woy6Q8qdfiSxWNF5nklNOAs4tHM0Sed5JrxoEPRTCc3wC7yi6RxPRSshCy9Uzj1XnkpYOrghLRL8qpyMT/v6zf+8vgFG80iK7km8qAAAAABJRU5ErkJggg==" parent="1" vertex="1">
          <mxGeometry x="1775" y="539" width="138" height="25" as="geometry" />
        </mxCell>
        <mxCell id="node63" value="Plataforma" style="label;fontStyle=0;strokeColor=default;fillColor=none;align=left;verticalAlign=middle;overflow=hidden;spacingLeft=28;spacingRight=4;rotatable=0;points=[[0,0.5],[1,0.5]];portConstraint=eastwest;imageWidth=16;imageHeight=16;image=data:image/png,iVBORw0KGgoAAAANSUhEUgAAACAAAAAgCAYAAABzenr0AAACPklEQVR4Xu2WuUsDQRTG03hbe7USi9jZaGNjtNBokyjZFQUrG/GsbATvUtTOSm2DuyERBMH7qtIE2VWwEDz+Aa2s1vf2kNmXZNfsERD8YIqdnZnfN2/fvNlA4F+/VGZnvEwWuQlZ4Bay4mgdfe+rXhNDVQA/gabo7eU+GW+m43wRC7/bjymHW/2lM0Hhgz2tSrgjqKQ2S2AiH7yzrVltOSZSfD2d70pWcNZEelszIYn8El3DsX4DxxbtCik3e1EtCgI/Q9dxJEdwkbt63h2rpGsVLSkxVO4Enj0eraFrscJ1JYGflARu0TJXcJDX8MzhQDXkx5k+3vrUYCLhoPRmRAm3B+3gRbVb2JSRsA8i9wpRaaD8gCyMNMKAdxyU3OgzmXADx4jGurX6kd6KaP1JbpnyVT2I8RZqwi7sBsh4fjrqrYDnc+zDnSM8zyZm2TVMYk1gsbGCo6gBSeSmbODXtqeGNWEFR+UaMOcShcP3r2XnF9RjimuCo7MOZuasHOcYgASD5zfDhCN4MaIG1L6D4aBhwlc4Shb5D4RgxEz9cKrgyK3ZRdC1AHKKBgA0T9+h1FMBdwX8Sa3kPf9uBQtH9DB/oQkWgokLEbo0PgUWoYKV0I1wd8z3zmm3kIg/RciP/wcURkKv+58UHg2HzP8PcDHR+Z5Jq4Ra2A24Woy6Q8qdfiSxWNF5nklNOAs4tHM0Sed5JrxoEPRTCc3wC7yi6RxPRSshCy9Uzj1XnkpYOrghLRL8qpyMT/v6zf+8vgFG80iK7km8qAAAAABJRU5ErkJggg==" parent="1" vertex="1">
          <mxGeometry x="5048" y="1389" width="93" height="25" as="geometry" />
        </mxCell>
        <mxCell id="node31" value="Precio" style="label;fontStyle=0;strokeColor=default;fillColor=none;align=left;verticalAlign=middle;overflow=hidden;spacingLeft=28;spacingRight=4;rotatable=0;points=[[0,0.5],[1,0.5]];portConstraint=eastwest;imageWidth=16;imageHeight=16;image=data:image/png,iVBORw0KGgoAAAANSUhEUgAAACAAAAAgCAYAAABzenr0AAACPklEQVR4Xu2WuUsDQRTG03hbe7USi9jZaGNjtNBokyjZFQUrG/GsbATvUtTOSm2DuyERBMH7qtIE2VWwEDz+Aa2s1vf2kNmXZNfsERD8YIqdnZnfN2/fvNlA4F+/VGZnvEwWuQlZ4Bay4mgdfe+rXhNDVQA/gabo7eU+GW+m43wRC7/bjymHW/2lM0Hhgz2tSrgjqKQ2S2AiH7yzrVltOSZSfD2d70pWcNZEelszIYn8El3DsX4DxxbtCik3e1EtCgI/Q9dxJEdwkbt63h2rpGsVLSkxVO4Enj0eraFrscJ1JYGflARu0TJXcJDX8MzhQDXkx5k+3vrUYCLhoPRmRAm3B+3gRbVb2JSRsA8i9wpRaaD8gCyMNMKAdxyU3OgzmXADx4jGurX6kd6KaP1JbpnyVT2I8RZqwi7sBsh4fjrqrYDnc+zDnSM8zyZm2TVMYk1gsbGCo6gBSeSmbODXtqeGNWEFR+UaMOcShcP3r2XnF9RjimuCo7MOZuasHOcYgASD5zfDhCN4MaIG1L6D4aBhwlc4Shb5D4RgxEz9cKrgyK3ZRdC1AHKKBgA0T9+h1FMBdwX8Sa3kPf9uBQtH9DB/oQkWgokLEbo0PgUWoYKV0I1wd8z3zmm3kIg/RciP/wcURkKv+58UHg2HzP8PcDHR+Z5Jq4Ra2A24Woy6Q8qdfiSxWNF5nklNOAs4tHM0Sed5JrxoEPRTCc3wC7yi6RxPRSshCy9Uzj1XnkpYOrghLRL8qpyMT/v6zf+8vgFG80iK7km8qAAAAABJRU5ErkJggg==" parent="1" vertex="1">
          <mxGeometry x="2762" y="1539" width="65" height="25" as="geometry" />
        </mxCell>
        <mxCell id="node54" value="Producto" style="label;fontStyle=0;strokeColor=default;fillColor=none;align=left;verticalAlign=middle;overflow=hidden;spacingLeft=28;spacingRight=4;rotatable=0;points=[[0,0.5],[1,0.5]];portConstraint=eastwest;imageWidth=16;imageHeight=16;image=data:image/png,iVBORw0KGgoAAAANSUhEUgAAACAAAAAgCAYAAABzenr0AAACPklEQVR4Xu2WuUsDQRTG03hbe7USi9jZaGNjtNBokyjZFQUrG/GsbATvUtTOSm2DuyERBMH7qtIE2VWwEDz+Aa2s1vf2kNmXZNfsERD8YIqdnZnfN2/fvNlA4F+/VGZnvEwWuQlZ4Bay4mgdfe+rXhNDVQA/gabo7eU+GW+m43wRC7/bjymHW/2lM0Hhgz2tSrgjqKQ2S2AiH7yzrVltOSZSfD2d70pWcNZEelszIYn8El3DsX4DxxbtCik3e1EtCgI/Q9dxJEdwkbt63h2rpGsVLSkxVO4Enj0eraFrscJ1JYGflARu0TJXcJDX8MzhQDXkx5k+3vrUYCLhoPRmRAm3B+3gRbVb2JSRsA8i9wpRaaD8gCyMNMKAdxyU3OgzmXADx4jGurX6kd6KaP1JbpnyVT2I8RZqwi7sBsh4fjrqrYDnc+zDnSM8zyZm2TVMYk1gsbGCo6gBSeSmbODXtqeGNWEFR+UaMOcShcP3r2XnF9RjimuCo7MOZuasHOcYgASD5zfDhCN4MaIG1L6D4aBhwlc4Shb5D4RgxEz9cKrgyK3ZRdC1AHKKBgA0T9+h1FMBdwX8Sa3kPf9uBQtH9DB/oQkWgokLEbo0PgUWoYKV0I1wd8z3zmm3kIg/RciP/wcURkKv+58UHg2HzP8PcDHR+Z5Jq4Ra2A24Woy6Q8qdfiSxWNF5nklNOAs4tHM0Sed5JrxoEPRTCc3wC7yi6RxPRSshCy9Uzj1XnkpYOrghLRL8qpyMT/v6zf+8vgFG80iK7km8qAAAAABJRU5ErkJggg==" parent="1" vertex="1">
          <mxGeometry x="2753" y="1389" width="82" height="25" as="geometry" />
        </mxCell>
        <mxCell id="node19" value="ProductoDto" style="label;fontStyle=0;strokeColor=default;fillColor=none;align=left;verticalAlign=middle;overflow=hidden;spacingLeft=28;spacingRight=4;rotatable=0;points=[[0,0.5],[1,0.5]];portConstraint=eastwest;imageWidth=16;imageHeight=16;image=data:image/png,iVBORw0KGgoAAAANSUhEUgAAACAAAAAgCAYAAABzenr0AAACPklEQVR4Xu2WuUsDQRTG03hbe7USi9jZaGNjtNBokyjZFQUrG/GsbATvUtTOSm2DuyERBMH7qtIE2VWwEDz+Aa2s1vf2kNmXZNfsERD8YIqdnZnfN2/fvNlA4F+/VGZnvEwWuQlZ4Bay4mgdfe+rXhNDVQA/gabo7eU+GW+m43wRC7/bjymHW/2lM0Hhgz2tSrgjqKQ2S2AiH7yzrVltOSZSfD2d70pWcNZEelszIYn8El3DsX4DxxbtCik3e1EtCgI/Q9dxJEdwkbt63h2rpGsVLSkxVO4Enj0eraFrscJ1JYGflARu0TJXcJDX8MzhQDXkx5k+3vrUYCLhoPRmRAm3B+3gRbVb2JSRsA8i9wpRaaD8gCyMNMKAdxyU3OgzmXADx4jGurX6kd6KaP1JbpnyVT2I8RZqwi7sBsh4fjrqrYDnc+zDnSM8zyZm2TVMYk1gsbGCo6gBSeSmbODXtqeGNWEFR+UaMOcShcP3r2XnF9RjimuCo7MOZuasHOcYgASD5zfDhCN4MaIG1L6D4aBhwlc4Shb5D4RgxEz9cKrgyK3ZRdC1AHKKBgA0T9+h1FMBdwX8Sa3kPf9uBQtH9DB/oQkWgokLEbo0PgUWoYKV0I1wd8z3zmm3kIg/RciP/wcURkKv+58UHg2HzP8PcDHR+Z5Jq4Ra2A24Woy6Q8qdfiSxWNF5nklNOAs4tHM0Sed5JrxoEPRTCc3wC7yi6RxPRSshCy9Uzj1XnkpYOrghLRL8qpyMT/v6zf+8vgFG80iK7km8qAAAAABJRU5ErkJggg==" parent="1" vertex="1">
          <mxGeometry x="317" y="1539" width="105" height="25" as="geometry" />
        </mxCell>
        <mxCell id="node11" value="ProductoPlataforma" style="label;fontStyle=0;strokeColor=default;fillColor=none;align=left;verticalAlign=middle;overflow=hidden;spacingLeft=28;spacingRight=4;rotatable=0;points=[[0,0.5],[1,0.5]];portConstraint=eastwest;imageWidth=16;imageHeight=16;image=data:image/png,iVBORw0KGgoAAAANSUhEUgAAACAAAAAgCAYAAABzenr0AAACPklEQVR4Xu2WuUsDQRTG03hbe7USi9jZaGNjtNBokyjZFQUrG/GsbATvUtTOSm2DuyERBMH7qtIE2VWwEDz+Aa2s1vf2kNmXZNfsERD8YIqdnZnfN2/fvNlA4F+/VGZnvEwWuQlZ4Bay4mgdfe+rXhNDVQA/gabo7eU+GW+m43wRC7/bjymHW/2lM0Hhgz2tSrgjqKQ2S2AiH7yzrVltOSZSfD2d70pWcNZEelszIYn8El3DsX4DxxbtCik3e1EtCgI/Q9dxJEdwkbt63h2rpGsVLSkxVO4Enj0eraFrscJ1JYGflARu0TJXcJDX8MzhQDXkx5k+3vrUYCLhoPRmRAm3B+3gRbVb2JSRsA8i9wpRaaD8gCyMNMKAdxyU3OgzmXADx4jGurX6kd6KaP1JbpnyVT2I8RZqwi7sBsh4fjrqrYDnc+zDnSM8zyZm2TVMYk1gsbGCo6gBSeSmbODXtqeGNWEFR+UaMOcShcP3r2XnF9RjimuCo7MOZuasHOcYgASD5zfDhCN4MaIG1L6D4aBhwlc4Shb5D4RgxEz9cKrgyK3ZRdC1AHKKBgA0T9+h1FMBdwX8Sa3kPf9uBQtH9DB/oQkWgokLEbo0PgUWoYKV0I1wd8z3zmm3kIg/RciP/wcURkKv+58UHg2HzP8PcDHR+Z5Jq4Ra2A24Woy6Q8qdfiSxWNF5nklNOAs4tHM0Sed5JrxoEPRTCc3wC7yi6RxPRSshCy9Uzj1XnkpYOrghLRL8qpyMT/v6zf+8vgFG80iK7km8qAAAAABJRU5ErkJggg==" parent="1" vertex="1">
          <mxGeometry x="4870" y="1389" width="149" height="25" as="geometry" />
        </mxCell>
        <mxCell id="node42" value="ProductoRepository" style="label;fontStyle=0;strokeColor=default;fillColor=none;align=left;verticalAlign=middle;overflow=hidden;spacingLeft=28;spacingRight=4;rotatable=0;points=[[0,0.5],[1,0.5]];portConstraint=eastwest;imageWidth=16;imageHeight=16;image=data:image/png,iVBORw0KGgoAAAANSUhEUgAAACAAAAAgCAYAAABzenr0AAACPklEQVR4Xu2WuUsDQRTG03hbe7USi9jZaGNjtNBokyjZFQUrG/GsbATvUtTOSm2DuyERBMH7qtIE2VWwEDz+Aa2s1vf2kNmXZNfsERD8YIqdnZnfN2/fvNlA4F+/VGZnvEwWuQlZ4Bay4mgdfe+rXhNDVQA/gabo7eU+GW+m43wRC7/bjymHW/2lM0Hhgz2tSrgjqKQ2S2AiH7yzrVltOSZSfD2d70pWcNZEelszIYn8El3DsX4DxxbtCik3e1EtCgI/Q9dxJEdwkbt63h2rpGsVLSkxVO4Enj0eraFrscJ1JYGflARu0TJXcJDX8MzhQDXkx5k+3vrUYCLhoPRmRAm3B+3gRbVb2JSRsA8i9wpRaaD8gCyMNMKAdxyU3OgzmXADx4jGurX6kd6KaP1JbpnyVT2I8RZqwi7sBsh4fjrqrYDnc+zDnSM8zyZm2TVMYk1gsbGCo6gBSeSmbODXtqeGNWEFR+UaMOcShcP3r2XnF9RjimuCo7MOZuasHOcYgASD5zfDhCN4MaIG1L6D4aBhwlc4Shb5D4RgxEz9cKrgyK3ZRdC1AHKKBgA0T9+h1FMBdwX8Sa3kPf9uBQtH9DB/oQkWgokLEbo0PgUWoYKV0I1wd8z3zmm3kIg/RciP/wcURkKv+58UHg2HzP8PcDHR+Z5Jq4Ra2A24Woy6Q8qdfiSxWNF5nklNOAs4tHM0Sed5JrxoEPRTCc3wC7yi6RxPRSshCy9Uzj1XnkpYOrghLRL8qpyMT/v6zf+8vgFG80iK7km8qAAAAABJRU5ErkJggg==" parent="1" vertex="1">
          <mxGeometry x="720" y="1589" width="149" height="25" as="geometry" />
        </mxCell>
        <mxCell id="node35" value="ProductoService" style="label;fontStyle=0;strokeColor=default;fillColor=none;align=left;verticalAlign=middle;overflow=hidden;spacingLeft=28;spacingRight=4;rotatable=0;points=[[0,0.5],[1,0.5]];portConstraint=eastwest;imageWidth=16;imageHeight=16;image=data:image/png,iVBORw0KGgoAAAANSUhEUgAAACAAAAAgCAYAAABzenr0AAACPklEQVR4Xu2WuUsDQRTG03hbe7USi9jZaGNjtNBokyjZFQUrG/GsbATvUtTOSm2DuyERBMH7qtIE2VWwEDz+Aa2s1vf2kNmXZNfsERD8YIqdnZnfN2/fvNlA4F+/VGZnvEwWuQlZ4Bay4mgdfe+rXhNDVQA/gabo7eU+GW+m43wRC7/bjymHW/2lM0Hhgz2tSrgjqKQ2S2AiH7yzrVltOSZSfD2d70pWcNZEelszIYn8El3DsX4DxxbtCik3e1EtCgI/Q9dxJEdwkbt63h2rpGsVLSkxVO4Enj0eraFrscJ1JYGflARu0TJXcJDX8MzhQDXkx5k+3vrUYCLhoPRmRAm3B+3gRbVb2JSRsA8i9wpRaaD8gCyMNMKAdxyU3OgzmXADx4jGurX6kd6KaP1JbpnyVT2I8RZqwi7sBsh4fjrqrYDnc+zDnSM8zyZm2TVMYk1gsbGCo6gBSeSmbODXtqeGNWEFR+UaMOcShcP3r2XnF9RjimuCo7MOZuasHOcYgASD5zfDhCN4MaIG1L6D4aBhwlc4Shb5D4RgxEz9cKrgyK3ZRdC1AHKKBgA0T9+h1FMBdwX8Sa3kPf9uBQtH9DB/oQkWgokLEbo0PgUWoYKV0I1wd8z3zmm3kIg/RciP/wcURkKv+58UHg2HzP8PcDHR+Z5Jq4Ra2A24Woy6Q8qdfiSxWNF5nklNOAs4tHM0Sed5JrxoEPRTCc3wC7yi6RxPRSshCy9Uzj1XnkpYOrghLRL8qpyMT/v6zf+8vgFG80iK7km8qAAAAABJRU5ErkJggg==" parent="1" vertex="1">
          <mxGeometry x="506" y="1464" width="127" height="25" as="geometry" />
        </mxCell>
        <mxCell id="node68" value="ProductosController" style="label;fontStyle=0;strokeColor=default;fillColor=none;align=left;verticalAlign=middle;overflow=hidden;spacingLeft=28;spacingRight=4;rotatable=0;points=[[0,0.5],[1,0.5]];portConstraint=eastwest;imageWidth=16;imageHeight=16;image=data:image/png,iVBORw0KGgoAAAANSUhEUgAAACAAAAAgCAYAAABzenr0AAACPklEQVR4Xu2WuUsDQRTG03hbe7USi9jZaGNjtNBokyjZFQUrG/GsbATvUtTOSm2DuyERBMH7qtIE2VWwEDz+Aa2s1vf2kNmXZNfsERD8YIqdnZnfN2/fvNlA4F+/VGZnvEwWuQlZ4Bay4mgdfe+rXhNDVQA/gabo7eU+GW+m43wRC7/bjymHW/2lM0Hhgz2tSrgjqKQ2S2AiH7yzrVltOSZSfD2d70pWcNZEelszIYn8El3DsX4DxxbtCik3e1EtCgI/Q9dxJEdwkbt63h2rpGsVLSkxVO4Enj0eraFrscJ1JYGflARu0TJXcJDX8MzhQDXkx5k+3vrUYCLhoPRmRAm3B+3gRbVb2JSRsA8i9wpRaaD8gCyMNMKAdxyU3OgzmXADx4jGurX6kd6KaP1JbpnyVT2I8RZqwi7sBsh4fjrqrYDnc+zDnSM8zyZm2TVMYk1gsbGCo6gBSeSmbODXtqeGNWEFR+UaMOcShcP3r2XnF9RjimuCo7MOZuasHOcYgASD5zfDhCN4MaIG1L6D4aBhwlc4Shb5D4RgxEz9cKrgyK3ZRdC1AHKKBgA0T9+h1FMBdwX8Sa3kPf9uBQtH9DB/oQkWgokLEbo0PgUWoYKV0I1wd8z3zmm3kIg/RciP/wcURkKv+58UHg2HzP8PcDHR+Z5Jq4Ra2A24Woy6Q8qdfiSxWNF5nklNOAs4tHM0Sed5JrxoEPRTCc3wC7yi6RxPRSshCy9Uzj1XnkpYOrghLRL8qpyMT/v6zf+8vgFG80iK7km8qAAAAABJRU5ErkJggg==" parent="1" vertex="1">
          <mxGeometry x="94" y="1464" width="151" height="25" as="geometry" />
        </mxCell>
        <mxCell id="node40" value="RegistroDto" style="label;fontStyle=0;strokeColor=default;fillColor=none;align=left;verticalAlign=middle;overflow=hidden;spacingLeft=28;spacingRight=4;rotatable=0;points=[[0,0.5],[1,0.5]];portConstraint=eastwest;imageWidth=16;imageHeight=16;image=data:image/png,iVBORw0KGgoAAAANSUhEUgAAACAAAAAgCAYAAABzenr0AAACPklEQVR4Xu2WuUsDQRTG03hbe7USi9jZaGNjtNBokyjZFQUrG/GsbATvUtTOSm2DuyERBMH7qtIE2VWwEDz+Aa2s1vf2kNmXZNfsERD8YIqdnZnfN2/fvNlA4F+/VGZnvEwWuQlZ4Bay4mgdfe+rXhNDVQA/gabo7eU+GW+m43wRC7/bjymHW/2lM0Hhgz2tSrgjqKQ2S2AiH7yzrVltOSZSfD2d70pWcNZEelszIYn8El3DsX4DxxbtCik3e1EtCgI/Q9dxJEdwkbt63h2rpGsVLSkxVO4Enj0eraFrscJ1JYGflARu0TJXcJDX8MzhQDXkx5k+3vrUYCLhoPRmRAm3B+3gRbVb2JSRsA8i9wpRaaD8gCyMNMKAdxyU3OgzmXADx4jGurX6kd6KaP1JbpnyVT2I8RZqwi7sBsh4fjrqrYDnc+zDnSM8zyZm2TVMYk1gsbGCo6gBSeSmbODXtqeGNWEFR+UaMOcShcP3r2XnF9RjimuCo7MOZuasHOcYgASD5zfDhCN4MaIG1L6D4aBhwlc4Shb5D4RgxEz9cKrgyK3ZRdC1AHKKBgA0T9+h1FMBdwX8Sa3kPf9uBQtH9DB/oQkWgokLEbo0PgUWoYKV0I1wd8z3zmm3kIg/RciP/wcURkKv+58UHg2HzP8PcDHR+Z5Jq4Ra2A24Woy6Q8qdfiSxWNF5nklNOAs4tHM0Sed5JrxoEPRTCc3wC7yi6RxPRSshCy9Uzj1XnkpYOrghLRL8qpyMT/v6zf+8vgFG80iK7km8qAAAAABJRU5ErkJggg==" parent="1" vertex="1">
          <mxGeometry x="3119" y="264" width="100" height="25" as="geometry" />
        </mxCell>
        <mxCell id="node3" value="StripeController" style="label;fontStyle=0;strokeColor=default;fillColor=none;align=left;verticalAlign=middle;overflow=hidden;spacingLeft=28;spacingRight=4;rotatable=0;points=[[0,0.5],[1,0.5]];portConstraint=eastwest;imageWidth=16;imageHeight=16;image=data:image/png,iVBORw0KGgoAAAANSUhEUgAAACAAAAAgCAYAAABzenr0AAACPklEQVR4Xu2WuUsDQRTG03hbe7USi9jZaGNjtNBokyjZFQUrG/GsbATvUtTOSm2DuyERBMH7qtIE2VWwEDz+Aa2s1vf2kNmXZNfsERD8YIqdnZnfN2/fvNlA4F+/VGZnvEwWuQlZ4Bay4mgdfe+rXhNDVQA/gabo7eU+GW+m43wRC7/bjymHW/2lM0Hhgz2tSrgjqKQ2S2AiH7yzrVltOSZSfD2d70pWcNZEelszIYn8El3DsX4DxxbtCik3e1EtCgI/Q9dxJEdwkbt63h2rpGsVLSkxVO4Enj0eraFrscJ1JYGflARu0TJXcJDX8MzhQDXkx5k+3vrUYCLhoPRmRAm3B+3gRbVb2JSRsA8i9wpRaaD8gCyMNMKAdxyU3OgzmXADx4jGurX6kd6KaP1JbpnyVT2I8RZqwi7sBsh4fjrqrYDnc+zDnSM8zyZm2TVMYk1gsbGCo6gBSeSmbODXtqeGNWEFR+UaMOcShcP3r2XnF9RjimuCo7MOZuasHOcYgASD5zfDhCN4MaIG1L6D4aBhwlc4Shb5D4RgxEz9cKrgyK3ZRdC1AHKKBgA0T9+h1FMBdwX8Sa3kPf9uBQtH9DB/oQkWgokLEbo0PgUWoYKV0I1wd8z3zmm3kIg/RciP/wcURkKv+58UHg2HzP8PcDHR+Z5Jq4Ra2A24Woy6Q8qdfiSxWNF5nklNOAs4tHM0Sed5JrxoEPRTCc3wC7yi6RxPRSshCy9Uzj1XnkpYOrghLRL8qpyMT/v6zf+8vgFG80iK7km8qAAAAABJRU5ErkJggg==" parent="1" vertex="1">
          <mxGeometry x="-118" y="1664" width="124" height="25" as="geometry" />
        </mxCell>
        <mxCell id="node72" value="StripeService" style="label;fontStyle=0;strokeColor=default;fillColor=none;align=left;verticalAlign=middle;overflow=hidden;spacingLeft=28;spacingRight=4;rotatable=0;points=[[0,0.5],[1,0.5]];portConstraint=eastwest;imageWidth=16;imageHeight=16;image=data:image/png,iVBORw0KGgoAAAANSUhEUgAAACAAAAAgCAYAAABzenr0AAACPklEQVR4Xu2WuUsDQRTG03hbe7USi9jZaGNjtNBokyjZFQUrG/GsbATvUtTOSm2DuyERBMH7qtIE2VWwEDz+Aa2s1vf2kNmXZNfsERD8YIqdnZnfN2/fvNlA4F+/VGZnvEwWuQlZ4Bay4mgdfe+rXhNDVQA/gabo7eU+GW+m43wRC7/bjymHW/2lM0Hhgz2tSrgjqKQ2S2AiH7yzrVltOSZSfD2d70pWcNZEelszIYn8El3DsX4DxxbtCik3e1EtCgI/Q9dxJEdwkbt63h2rpGsVLSkxVO4Enj0eraFrscJ1JYGflARu0TJXcJDX8MzhQDXkx5k+3vrUYCLhoPRmRAm3B+3gRbVb2JSRsA8i9wpRaaD8gCyMNMKAdxyU3OgzmXADx4jGurX6kd6KaP1JbpnyVT2I8RZqwi7sBsh4fjrqrYDnc+zDnSM8zyZm2TVMYk1gsbGCo6gBSeSmbODXtqeGNWEFR+UaMOcShcP3r2XnF9RjimuCo7MOZuasHOcYgASD5zfDhCN4MaIG1L6D4aBhwlc4Shb5D4RgxEz9cKrgyK3ZRdC1AHKKBgA0T9+h1FMBdwX8Sa3kPf9uBQtH9DB/oQkWgokLEbo0PgUWoYKV0I1wd8z3zmm3kIg/RciP/wcURkKv+58UHg2HzP8PcDHR+Z5Jq4Ra2A24Woy6Q8qdfiSxWNF5nklNOAs4tHM0Sed5JrxoEPRTCc3wC7yi6RxPRSshCy9Uzj1XnkpYOrghLRL8qpyMT/v6zf+8vgFG80iK7km8qAAAAABJRU5ErkJggg==" parent="1" vertex="1">
          <mxGeometry x="66" y="1664" width="107" height="25" as="geometry" />
        </mxCell>
        <mxCell id="node4" value="StripeSettings" style="label;fontStyle=0;strokeColor=default;fillColor=none;align=left;verticalAlign=middle;overflow=hidden;spacingLeft=28;spacingRight=4;rotatable=0;points=[[0,0.5],[1,0.5]];portConstraint=eastwest;imageWidth=16;imageHeight=16;image=data:image/png,iVBORw0KGgoAAAANSUhEUgAAACAAAAAgCAYAAABzenr0AAACPklEQVR4Xu2WuUsDQRTG03hbe7USi9jZaGNjtNBokyjZFQUrG/GsbATvUtTOSm2DuyERBMH7qtIE2VWwEDz+Aa2s1vf2kNmXZNfsERD8YIqdnZnfN2/fvNlA4F+/VGZnvEwWuQlZ4Bay4mgdfe+rXhNDVQA/gabo7eU+GW+m43wRC7/bjymHW/2lM0Hhgz2tSrgjqKQ2S2AiH7yzrVltOSZSfD2d70pWcNZEelszIYn8El3DsX4DxxbtCik3e1EtCgI/Q9dxJEdwkbt63h2rpGsVLSkxVO4Enj0eraFrscJ1JYGflARu0TJXcJDX8MzhQDXkx5k+3vrUYCLhoPRmRAm3B+3gRbVb2JSRsA8i9wpRaaD8gCyMNMKAdxyU3OgzmXADx4jGurX6kd6KaP1JbpnyVT2I8RZqwi7sBsh4fjrqrYDnc+zDnSM8zyZm2TVMYk1gsbGCo6gBSeSmbODXtqeGNWEFR+UaMOcShcP3r2XnF9RjimuCo7MOZuasHOcYgASD5zfDhCN4MaIG1L6D4aBhwlc4Shb5D4RgxEz9cKrgyK3ZRdC1AHKKBgA0T9+h1FMBdwX8Sa3kPf9uBQtH9DB/oQkWgokLEbo0PgUWoYKV0I1wd8z3zmm3kIg/RciP/wcURkKv+58UHg2HzP8PcDHR+Z5Jq4Ra2A24Woy6Q8qdfiSxWNF5nklNOAs4tHM0Sed5JrxoEPRTCc3wC7yi6RxPRSshCy9Uzj1XnkpYOrghLRL8qpyMT/v6zf+8vgFG80iK7km8qAAAAABJRU5ErkJggg==" parent="1" vertex="1">
          <mxGeometry x="62" y="1589" width="114" height="25" as="geometry" />
        </mxCell>
        <mxCell id="node17" value="TipoProducto" style="label;fontStyle=0;strokeColor=default;fillColor=none;align=left;verticalAlign=middle;overflow=hidden;spacingLeft=28;spacingRight=4;rotatable=0;points=[[0,0.5],[1,0.5]];portConstraint=eastwest;imageWidth=16;imageHeight=16;image=data:image/png,iVBORw0KGgoAAAANSUhEUgAAACAAAAAgCAYAAABzenr0AAACPklEQVR4Xu2WuUsDQRTG03hbe7USi9jZaGNjtNBokyjZFQUrG/GsbATvUtTOSm2DuyERBMH7qtIE2VWwEDz+Aa2s1vf2kNmXZNfsERD8YIqdnZnfN2/fvNlA4F+/VGZnvEwWuQlZ4Bay4mgdfe+rXhNDVQA/gabo7eU+GW+m43wRC7/bjymHW/2lM0Hhgz2tSrgjqKQ2S2AiH7yzrVltOSZSfD2d70pWcNZEelszIYn8El3DsX4DxxbtCik3e1EtCgI/Q9dxJEdwkbt63h2rpGsVLSkxVO4Enj0eraFrscJ1JYGflARu0TJXcJDX8MzhQDXkx5k+3vrUYCLhoPRmRAm3B+3gRbVb2JSRsA8i9wpRaaD8gCyMNMKAdxyU3OgzmXADx4jGurX6kd6KaP1JbpnyVT2I8RZqwi7sBsh4fjrqrYDnc+zDnSM8zyZm2TVMYk1gsbGCo6gBSeSmbODXtqeGNWEFR+UaMOcShcP3r2XnF9RjimuCo7MOZuasHOcYgASD5zfDhCN4MaIG1L6D4aBhwlc4Shb5D4RgxEz9cKrgyK3ZRdC1AHKKBgA0T9+h1FMBdwX8Sa3kPf9uBQtH9DB/oQkWgokLEbo0PgUWoYKV0I1wd8z3zmm3kIg/RciP/wcURkKv+58UHg2HzP8PcDHR+Z5Jq4Ra2A24Woy6Q8qdfiSxWNF5nklNOAs4tHM0Sed5JrxoEPRTCc3wC7yi6RxPRSshCy9Uzj1XnkpYOrghLRL8qpyMT/v6zf+8vgFG80iK7km8qAAAAABJRU5ErkJggg==" parent="1" vertex="1">
          <mxGeometry x="739" y="1389" width="110" height="25" as="geometry" />
        </mxCell>
        <mxCell id="node23" value="TipoProductoDto" style="label;fontStyle=0;strokeColor=default;fillColor=none;align=left;verticalAlign=middle;overflow=hidden;spacingLeft=28;spacingRight=4;rotatable=0;points=[[0,0.5],[1,0.5]];portConstraint=eastwest;imageWidth=16;imageHeight=16;image=data:image/png,iVBORw0KGgoAAAANSUhEUgAAACAAAAAgCAYAAABzenr0AAACPklEQVR4Xu2WuUsDQRTG03hbe7USi9jZaGNjtNBokyjZFQUrG/GsbATvUtTOSm2DuyERBMH7qtIE2VWwEDz+Aa2s1vf2kNmXZNfsERD8YIqdnZnfN2/fvNlA4F+/VGZnvEwWuQlZ4Bay4mgdfe+rXhNDVQA/gabo7eU+GW+m43wRC7/bjymHW/2lM0Hhgz2tSrgjqKQ2S2AiH7yzrVltOSZSfD2d70pWcNZEelszIYn8El3DsX4DxxbtCik3e1EtCgI/Q9dxJEdwkbt63h2rpGsVLSkxVO4Enj0eraFrscJ1JYGflARu0TJXcJDX8MzhQDXkx5k+3vrUYCLhoPRmRAm3B+3gRbVb2JSRsA8i9wpRaaD8gCyMNMKAdxyU3OgzmXADx4jGurX6kd6KaP1JbpnyVT2I8RZqwi7sBsh4fjrqrYDnc+zDnSM8zyZm2TVMYk1gsbGCo6gBSeSmbODXtqeGNWEFR+UaMOcShcP3r2XnF9RjimuCo7MOZuasHOcYgASD5zfDhCN4MaIG1L6D4aBhwlc4Shb5D4RgxEz9cKrgyK3ZRdC1AHKKBgA0T9+h1FMBdwX8Sa3kPf9uBQtH9DB/oQkWgokLEbo0PgUWoYKV0I1wd8z3zmm3kIg/RciP/wcURkKv+58UHg2HzP8PcDHR+Z5Jq4Ra2A24Woy6Q8qdfiSxWNF5nklNOAs4tHM0Sed5JrxoEPRTCc3wC7yi6RxPRSshCy9Uzj1XnkpYOrghLRL8qpyMT/v6zf+8vgFG80iK7km8qAAAAABJRU5ErkJggg==" parent="1" vertex="1">
          <mxGeometry x="903" y="214" width="132" height="25" as="geometry" />
        </mxCell>
        <mxCell id="node33" value="TipoProductoService" style="label;fontStyle=0;strokeColor=default;fillColor=none;align=left;verticalAlign=middle;overflow=hidden;spacingLeft=28;spacingRight=4;rotatable=0;points=[[0,0.5],[1,0.5]];portConstraint=eastwest;imageWidth=16;imageHeight=16;image=data:image/png,iVBORw0KGgoAAAANSUhEUgAAACAAAAAgCAYAAABzenr0AAACPklEQVR4Xu2WuUsDQRTG03hbe7USi9jZaGNjtNBokyjZFQUrG/GsbATvUtTOSm2DuyERBMH7qtIE2VWwEDz+Aa2s1vf2kNmXZNfsERD8YIqdnZnfN2/fvNlA4F+/VGZnvEwWuQlZ4Bay4mgdfe+rXhNDVQA/gabo7eU+GW+m43wRC7/bjymHW/2lM0Hhgz2tSrgjqKQ2S2AiH7yzrVltOSZSfD2d70pWcNZEelszIYn8El3DsX4DxxbtCik3e1EtCgI/Q9dxJEdwkbt63h2rpGsVLSkxVO4Enj0eraFrscJ1JYGflARu0TJXcJDX8MzhQDXkx5k+3vrUYCLhoPRmRAm3B+3gRbVb2JSRsA8i9wpRaaD8gCyMNMKAdxyU3OgzmXADx4jGurX6kd6KaP1JbpnyVT2I8RZqwi7sBsh4fjrqrYDnc+zDnSM8zyZm2TVMYk1gsbGCo6gBSeSmbODXtqeGNWEFR+UaMOcShcP3r2XnF9RjimuCo7MOZuasHOcYgASD5zfDhCN4MaIG1L6D4aBhwlc4Shb5D4RgxEz9cKrgyK3ZRdC1AHKKBgA0T9+h1FMBdwX8Sa3kPf9uBQtH9DB/oQkWgokLEbo0PgUWoYKV0I1wd8z3zmm3kIg/RciP/wcURkKv+58UHg2HzP8PcDHR+Z5Jq4Ra2A24Woy6Q8qdfiSxWNF5nklNOAs4tHM0Sed5JrxoEPRTCc3wC7yi6RxPRSshCy9Uzj1XnkpYOrghLRL8qpyMT/v6zf+8vgFG80iK7km8qAAAAABJRU5ErkJggg==" parent="1" vertex="1">
          <mxGeometry x="892" y="139" width="154" height="25" as="geometry" />
        </mxCell>
        <mxCell id="node20" value="TiposProductosController" style="label;fontStyle=0;strokeColor=default;fillColor=none;align=left;verticalAlign=middle;overflow=hidden;spacingLeft=28;spacingRight=4;rotatable=0;points=[[0,0.5],[1,0.5]];portConstraint=eastwest;imageWidth=16;imageHeight=16;image=data:image/png,iVBORw0KGgoAAAANSUhEUgAAACAAAAAgCAYAAABzenr0AAACPklEQVR4Xu2WuUsDQRTG03hbe7USi9jZaGNjtNBokyjZFQUrG/GsbATvUtTOSm2DuyERBMH7qtIE2VWwEDz+Aa2s1vf2kNmXZNfsERD8YIqdnZnfN2/fvNlA4F+/VGZnvEwWuQlZ4Bay4mgdfe+rXhNDVQA/gabo7eU+GW+m43wRC7/bjymHW/2lM0Hhgz2tSrgjqKQ2S2AiH7yzrVltOSZSfD2d70pWcNZEelszIYn8El3DsX4DxxbtCik3e1EtCgI/Q9dxJEdwkbt63h2rpGsVLSkxVO4Enj0eraFrscJ1JYGflARu0TJXcJDX8MzhQDXkx5k+3vrUYCLhoPRmRAm3B+3gRbVb2JSRsA8i9wpRaaD8gCyMNMKAdxyU3OgzmXADx4jGurX6kd6KaP1JbpnyVT2I8RZqwi7sBsh4fjrqrYDnc+zDnSM8zyZm2TVMYk1gsbGCo6gBSeSmbODXtqeGNWEFR+UaMOcShcP3r2XnF9RjimuCo7MOZuasHOcYgASD5zfDhCN4MaIG1L6D4aBhwlc4Shb5D4RgxEz9cKrgyK3ZRdC1AHKKBgA0T9+h1FMBdwX8Sa3kPf9uBQtH9DB/oQkWgokLEbo0PgUWoYKV0I1wd8z3zmm3kIg/RciP/wcURkKv+58UHg2HzP8PcDHR+Z5Jq4Ra2A24Woy6Q8qdfiSxWNF5nklNOAs4tHM0Sed5JrxoEPRTCc3wC7yi6RxPRSshCy9Uzj1XnkpYOrghLRL8qpyMT/v6zf+8vgFG80iK7km8qAAAAABJRU5ErkJggg==" parent="1" vertex="1">
          <mxGeometry x="1101" y="214" width="186" height="25" as="geometry" />
        </mxCell>
        <mxCell id="node29" value="Usuario" style="label;fontStyle=0;strokeColor=default;fillColor=none;align=left;verticalAlign=middle;overflow=hidden;spacingLeft=28;spacingRight=4;rotatable=0;points=[[0,0.5],[1,0.5]];portConstraint=eastwest;imageWidth=16;imageHeight=16;image=data:image/png,iVBORw0KGgoAAAANSUhEUgAAACAAAAAgCAYAAABzenr0AAACPklEQVR4Xu2WuUsDQRTG03hbe7USi9jZaGNjtNBokyjZFQUrG/GsbATvUtTOSm2DuyERBMH7qtIE2VWwEDz+Aa2s1vf2kNmXZNfsERD8YIqdnZnfN2/fvNlA4F+/VGZnvEwWuQlZ4Bay4mgdfe+rXhNDVQA/gabo7eU+GW+m43wRC7/bjymHW/2lM0Hhgz2tSrgjqKQ2S2AiH7yzrVltOSZSfD2d70pWcNZEelszIYn8El3DsX4DxxbtCik3e1EtCgI/Q9dxJEdwkbt63h2rpGsVLSkxVO4Enj0eraFrscJ1JYGflARu0TJXcJDX8MzhQDXkx5k+3vrUYCLhoPRmRAm3B+3gRbVb2JSRsA8i9wpRaaD8gCyMNMKAdxyU3OgzmXADx4jGurX6kd6KaP1JbpnyVT2I8RZqwi7sBsh4fjrqrYDnc+zDnSM8zyZm2TVMYk1gsbGCo6gBSeSmbODXtqeGNWEFR+UaMOcShcP3r2XnF9RjimuCo7MOZuasHOcYgASD5zfDhCN4MaIG1L6D4aBhwlc4Shb5D4RgxEz9cKrgyK3ZRdC1AHKKBgA0T9+h1FMBdwX8Sa3kPf9uBQtH9DB/oQkWgokLEbo0PgUWoYKV0I1wd8z3zmm3kIg/RciP/wcURkKv+58UHg2HzP8PcDHR+Z5Jq4Ra2A24Woy6Q8qdfiSxWNF5nklNOAs4tHM0Sed5JrxoEPRTCc3wC7yi6RxPRSshCy9Uzj1XnkpYOrghLRL8qpyMT/v6zf+8vgFG80iK7km8qAAAAABJRU5ErkJggg==" parent="1" vertex="1">
          <mxGeometry x="4057" y="414" width="83" height="25" as="geometry" />
        </mxCell>
        <mxCell id="node47" value="UsuarioDto" style="label;fontStyle=0;strokeColor=default;fillColor=none;align=left;verticalAlign=middle;overflow=hidden;spacingLeft=28;spacingRight=4;rotatable=0;points=[[0,0.5],[1,0.5]];portConstraint=eastwest;imageWidth=16;imageHeight=16;image=data:image/png,iVBORw0KGgoAAAANSUhEUgAAACAAAAAgCAYAAABzenr0AAACPklEQVR4Xu2WuUsDQRTG03hbe7USi9jZaGNjtNBokyjZFQUrG/GsbATvUtTOSm2DuyERBMH7qtIE2VWwEDz+Aa2s1vf2kNmXZNfsERD8YIqdnZnfN2/fvNlA4F+/VGZnvEwWuQlZ4Bay4mgdfe+rXhNDVQA/gabo7eU+GW+m43wRC7/bjymHW/2lM0Hhgz2tSrgjqKQ2S2AiH7yzrVltOSZSfD2d70pWcNZEelszIYn8El3DsX4DxxbtCik3e1EtCgI/Q9dxJEdwkbt63h2rpGsVLSkxVO4Enj0eraFrscJ1JYGflARu0TJXcJDX8MzhQDXkx5k+3vrUYCLhoPRmRAm3B+3gRbVb2JSRsA8i9wpRaaD8gCyMNMKAdxyU3OgzmXADx4jGurX6kd6KaP1JbpnyVT2I8RZqwi7sBsh4fjrqrYDnc+zDnSM8zyZm2TVMYk1gsbGCo6gBSeSmbODXtqeGNWEFR+UaMOcShcP3r2XnF9RjimuCo7MOZuasHOcYgASD5zfDhCN4MaIG1L6D4aBhwlc4Shb5D4RgxEz9cKrgyK3ZRdC1AHKKBgA0T9+h1FMBdwX8Sa3kPf9uBQtH9DB/oQkWgokLEbo0PgUWoYKV0I1wd8z3zmm3kIg/RciP/wcURkKv+58UHg2HzP8PcDHR+Z5Jq4Ra2A24Woy6Q8qdfiSxWNF5nklNOAs4tHM0Sed5JrxoEPRTCc3wC7yi6RxPRSshCy9Uzj1XnkpYOrghLRL8qpyMT/v6zf+8vgFG80iK7km8qAAAAABJRU5ErkJggg==" parent="1" vertex="1">
          <mxGeometry x="3596" y="214" width="96" height="25" as="geometry" />
        </mxCell>
        <mxCell id="node30" value="UsuarioRepository" style="label;fontStyle=0;strokeColor=default;fillColor=none;align=left;verticalAlign=middle;overflow=hidden;spacingLeft=28;spacingRight=4;rotatable=0;points=[[0,0.5],[1,0.5]];portConstraint=eastwest;imageWidth=16;imageHeight=16;image=data:image/png,iVBORw0KGgoAAAANSUhEUgAAACAAAAAgCAYAAABzenr0AAACPklEQVR4Xu2WuUsDQRTG03hbe7USi9jZaGNjtNBokyjZFQUrG/GsbATvUtTOSm2DuyERBMH7qtIE2VWwEDz+Aa2s1vf2kNmXZNfsERD8YIqdnZnfN2/fvNlA4F+/VGZnvEwWuQlZ4Bay4mgdfe+rXhNDVQA/gabo7eU+GW+m43wRC7/bjymHW/2lM0Hhgz2tSrgjqKQ2S2AiH7yzrVltOSZSfD2d70pWcNZEelszIYn8El3DsX4DxxbtCik3e1EtCgI/Q9dxJEdwkbt63h2rpGsVLSkxVO4Enj0eraFrscJ1JYGflARu0TJXcJDX8MzhQDXkx5k+3vrUYCLhoPRmRAm3B+3gRbVb2JSRsA8i9wpRaaD8gCyMNMKAdxyU3OgzmXADx4jGurX6kd6KaP1JbpnyVT2I8RZqwi7sBsh4fjrqrYDnc+zDnSM8zyZm2TVMYk1gsbGCo6gBSeSmbODXtqeGNWEFR+UaMOcShcP3r2XnF9RjimuCo7MOZuasHOcYgASD5zfDhCN4MaIG1L6D4aBhwlc4Shb5D4RgxEz9cKrgyK3ZRdC1AHKKBgA0T9+h1FMBdwX8Sa3kPf9uBQtH9DB/oQkWgokLEbo0PgUWoYKV0I1wd8z3zmm3kIg/RciP/wcURkKv+58UHg2HzP8PcDHR+Z5Jq4Ra2A24Woy6Q8qdfiSxWNF5nklNOAs4tHM0Sed5JrxoEPRTCc3wC7yi6RxPRSshCy9Uzj1XnkpYOrghLRL8qpyMT/v6zf+8vgFG80iK7km8qAAAAABJRU5ErkJggg==" parent="1" vertex="1">
          <mxGeometry x="549" y="1589" width="140" height="25" as="geometry" />
        </mxCell>
        <mxCell id="node53" value="UsuarioService" style="label;fontStyle=0;strokeColor=default;fillColor=none;align=left;verticalAlign=middle;overflow=hidden;spacingLeft=28;spacingRight=4;rotatable=0;points=[[0,0.5],[1,0.5]];portConstraint=eastwest;imageWidth=16;imageHeight=16;image=data:image/png,iVBORw0KGgoAAAANSUhEUgAAACAAAAAgCAYAAABzenr0AAACPklEQVR4Xu2WuUsDQRTG03hbe7USi9jZaGNjtNBokyjZFQUrG/GsbATvUtTOSm2DuyERBMH7qtIE2VWwEDz+Aa2s1vf2kNmXZNfsERD8YIqdnZnfN2/fvNlA4F+/VGZnvEwWuQlZ4Bay4mgdfe+rXhNDVQA/gabo7eU+GW+m43wRC7/bjymHW/2lM0Hhgz2tSrgjqKQ2S2AiH7yzrVltOSZSfD2d70pWcNZEelszIYn8El3DsX4DxxbtCik3e1EtCgI/Q9dxJEdwkbt63h2rpGsVLSkxVO4Enj0eraFrscJ1JYGflARu0TJXcJDX8MzhQDXkx5k+3vrUYCLhoPRmRAm3B+3gRbVb2JSRsA8i9wpRaaD8gCyMNMKAdxyU3OgzmXADx4jGurX6kd6KaP1JbpnyVT2I8RZqwi7sBsh4fjrqrYDnc+zDnSM8zyZm2TVMYk1gsbGCo6gBSeSmbODXtqeGNWEFR+UaMOcShcP3r2XnF9RjimuCo7MOZuasHOcYgASD5zfDhCN4MaIG1L6D4aBhwlc4Shb5D4RgxEz9cKrgyK3ZRdC1AHKKBgA0T9+h1FMBdwX8Sa3kPf9uBQtH9DB/oQkWgokLEbo0PgUWoYKV0I1wd8z3zmm3kIg/RciP/wcURkKv+58UHg2HzP8PcDHR+Z5Jq4Ra2A24Woy6Q8qdfiSxWNF5nklNOAs4tHM0Sed5JrxoEPRTCc3wC7yi6RxPRSshCy9Uzj1XnkpYOrghLRL8qpyMT/v6zf+8vgFG80iK7km8qAAAAABJRU5ErkJggg==" parent="1" vertex="1">
          <mxGeometry x="3860" y="139" width="118" height="25" as="geometry" />
        </mxCell>
        <mxCell id="node59" value="UsuariosController" style="label;fontStyle=0;strokeColor=default;fillColor=none;align=left;verticalAlign=middle;overflow=hidden;spacingLeft=28;spacingRight=4;rotatable=0;points=[[0,0.5],[1,0.5]];portConstraint=eastwest;imageWidth=16;imageHeight=16;image=data:image/png,iVBORw0KGgoAAAANSUhEUgAAACAAAAAgCAYAAABzenr0AAACPklEQVR4Xu2WuUsDQRTG03hbe7USi9jZaGNjtNBokyjZFQUrG/GsbATvUtTOSm2DuyERBMH7qtIE2VWwEDz+Aa2s1vf2kNmXZNfsERD8YIqdnZnfN2/fvNlA4F+/VGZnvEwWuQlZ4Bay4mgdfe+rXhNDVQA/gabo7eU+GW+m43wRC7/bjymHW/2lM0Hhgz2tSrgjqKQ2S2AiH7yzrVltOSZSfD2d70pWcNZEelszIYn8El3DsX4DxxbtCik3e1EtCgI/Q9dxJEdwkbt63h2rpGsVLSkxVO4Enj0eraFrscJ1JYGflARu0TJXcJDX8MzhQDXkx5k+3vrUYCLhoPRmRAm3B+3gRbVb2JSRsA8i9wpRaaD8gCyMNMKAdxyU3OgzmXADx4jGurX6kd6KaP1JbpnyVT2I8RZqwi7sBsh4fjrqrYDnc+zDnSM8zyZm2TVMYk1gsbGCo6gBSeSmbODXtqeGNWEFR+UaMOcShcP3r2XnF9RjimuCo7MOZuasHOcYgASD5zfDhCN4MaIG1L6D4aBhwlc4Shb5D4RgxEz9cKrgyK3ZRdC1AHKKBgA0T9+h1FMBdwX8Sa3kPf9uBQtH9DB/oQkWgokLEbo0PgUWoYKV0I1wd8z3zmm3kIg/RciP/wcURkKv+58UHg2HzP8PcDHR+Z5Jq4Ra2A24Woy6Q8qdfiSxWNF5nklNOAs4tHM0Sed5JrxoEPRTCc3wC7yi6RxPRSshCy9Uzj1XnkpYOrghLRL8qpyMT/v6zf+8vgFG80iK7km8qAAAAABJRU5ErkJggg==" parent="1" vertex="1">
          <mxGeometry x="3573" y="289" width="142" height="25" as="geometry" />
        </mxCell>
        <mxCell id="node45" value="VerificarDto" style="label;fontStyle=0;strokeColor=default;fillColor=none;align=left;verticalAlign=middle;overflow=hidden;spacingLeft=28;spacingRight=4;rotatable=0;points=[[0,0.5],[1,0.5]];portConstraint=eastwest;imageWidth=16;imageHeight=16;image=data:image/png,iVBORw0KGgoAAAANSUhEUgAAACAAAAAgCAYAAABzenr0AAACPklEQVR4Xu2WuUsDQRTG03hbe7USi9jZaGNjtNBokyjZFQUrG/GsbATvUtTOSm2DuyERBMH7qtIE2VWwEDz+Aa2s1vf2kNmXZNfsERD8YIqdnZnfN2/fvNlA4F+/VGZnvEwWuQlZ4Bay4mgdfe+rXhNDVQA/gabo7eU+GW+m43wRC7/bjymHW/2lM0Hhgz2tSrgjqKQ2S2AiH7yzrVltOSZSfD2d70pWcNZEelszIYn8El3DsX4DxxbtCik3e1EtCgI/Q9dxJEdwkbt63h2rpGsVLSkxVO4Enj0eraFrscJ1JYGflARu0TJXcJDX8MzhQDXkx5k+3vrUYCLhoPRmRAm3B+3gRbVb2JSRsA8i9wpRaaD8gCyMNMKAdxyU3OgzmXADx4jGurX6kd6KaP1JbpnyVT2I8RZqwi7sBsh4fjrqrYDnc+zDnSM8zyZm2TVMYk1gsbGCo6gBSeSmbODXtqeGNWEFR+UaMOcShcP3r2XnF9RjimuCo7MOZuasHOcYgASD5zfDhCN4MaIG1L6D4aBhwlc4Shb5D4RgxEz9cKrgyK3ZRdC1AHKKBgA0T9+h1FMBdwX8Sa3kPf9uBQtH9DB/oQkWgokLEbo0PgUWoYKV0I1wd8z3zmm3kIg/RciP/wcURkKv+58UHg2HzP8PcDHR+Z5Jq4Ra2A24Woy6Q8qdfiSxWNF5nklNOAs4tHM0Sed5JrxoEPRTCc3wC7yi6RxPRSshCy9Uzj1XnkpYOrghLRL8qpyMT/v6zf+8vgFG80iK7km8qAAAAABJRU5ErkJggg==" parent="1" vertex="1">
          <mxGeometry x="2219" y="814" width="100" height="25" as="geometry" />
        </mxCell>
        <mxCell id="node32" value="VerifyPaymentDto" style="label;fontStyle=0;strokeColor=default;fillColor=none;align=left;verticalAlign=middle;overflow=hidden;spacingLeft=28;spacingRight=4;rotatable=0;points=[[0,0.5],[1,0.5]];portConstraint=eastwest;imageWidth=16;imageHeight=16;image=data:image/png,iVBORw0KGgoAAAANSUhEUgAAACAAAAAgCAYAAABzenr0AAACPklEQVR4Xu2WuUsDQRTG03hbe7USi9jZaGNjtNBokyjZFQUrG/GsbATvUtTOSm2DuyERBMH7qtIE2VWwEDz+Aa2s1vf2kNmXZNfsERD8YIqdnZnfN2/fvNlA4F+/VGZnvEwWuQlZ4Bay4mgdfe+rXhNDVQA/gabo7eU+GW+m43wRC7/bjymHW/2lM0Hhgz2tSrgjqKQ2S2AiH7yzrVltOSZSfD2d70pWcNZEelszIYn8El3DsX4DxxbtCik3e1EtCgI/Q9dxJEdwkbt63h2rpGsVLSkxVO4Enj0eraFrscJ1JYGflARu0TJXcJDX8MzhQDXkx5k+3vrUYCLhoPRmRAm3B+3gRbVb2JSRsA8i9wpRaaD8gCyMNMKAdxyU3OgzmXADx4jGurX6kd6KaP1JbpnyVT2I8RZqwi7sBsh4fjrqrYDnc+zDnSM8zyZm2TVMYk1gsbGCo6gBSeSmbODXtqeGNWEFR+UaMOcShcP3r2XnF9RjimuCo7MOZuasHOcYgASD5zfDhCN4MaIG1L6D4aBhwlc4Shb5D4RgxEz9cKrgyK3ZRdC1AHKKBgA0T9+h1FMBdwX8Sa3kPf9uBQtH9DB/oQkWgokLEbo0PgUWoYKV0I1wd8z3zmm3kIg/RciP/wcURkKv+58UHg2HzP8PcDHR+Z5Jq4Ra2A24Woy6Q8qdfiSxWNF5nklNOAs4tHM0Sed5JrxoEPRTCc3wC7yi6RxPRSshCy9Uzj1XnkpYOrghLRL8qpyMT/v6zf+8vgFG80iK7km8qAAAAABJRU5ErkJggg==" parent="1" vertex="1">
          <mxGeometry x="-125" y="1739" width="138" height="25" as="geometry" />
        </mxCell>
        <mxCell id="node50" value="paypal" style="label;fontStyle=0;strokeColor=default;fillColor=none;align=left;verticalAlign=middle;overflow=hidden;spacingLeft=28;spacingRight=4;rotatable=0;points=[[0,0.5],[1,0.5]];portConstraint=eastwest;imageWidth=16;imageHeight=16;image=data:image/png,iVBORw0KGgoAAAANSUhEUgAAACAAAAAgCAYAAABzenr0AAACPklEQVR4Xu2WuUsDQRTG03hbe7USi9jZaGNjtNBokyjZFQUrG/GsbATvUtTOSm2DuyERBMH7qtIE2VWwEDz+Aa2s1vf2kNmXZNfsERD8YIqdnZnfN2/fvNlA4F+/VGZnvEwWuQlZ4Bay4mgdfe+rXhNDVQA/gabo7eU+GW+m43wRC7/bjymHW/2lM0Hhgz2tSrgjqKQ2S2AiH7yzrVltOSZSfD2d70pWcNZEelszIYn8El3DsX4DxxbtCik3e1EtCgI/Q9dxJEdwkbt63h2rpGsVLSkxVO4Enj0eraFrscJ1JYGflARu0TJXcJDX8MzhQDXkx5k+3vrUYCLhoPRmRAm3B+3gRbVb2JSRsA8i9wpRaaD8gCyMNMKAdxyU3OgzmXADx4jGurX6kd6KaP1JbpnyVT2I8RZqwi7sBsh4fjrqrYDnc+zDnSM8zyZm2TVMYk1gsbGCo6gBSeSmbODXtqeGNWEFR+UaMOcShcP3r2XnF9RjimuCo7MOZuasHOcYgASD5zfDhCN4MaIG1L6D4aBhwlc4Shb5D4RgxEz9cKrgyK3ZRdC1AHKKBgA0T9+h1FMBdwX8Sa3kPf9uBQtH9DB/oQkWgokLEbo0PgUWoYKV0I1wd8z3zmm3kIg/RciP/wcURkKv+58UHg2HzP8PcDHR+Z5Jq4Ra2A24Woy6Q8qdfiSxWNF5nklNOAs4tHM0Sed5JrxoEPRTCc3wC7yi6RxPRSshCy9Uzj1XnkpYOrghLRL8qpyMT/v6zf+8vgFG80iK7km8qAAAAABJRU5ErkJggg==" parent="1" vertex="1">
          <mxGeometry x="536" y="-11" width="67" height="25" as="geometry" />
        </mxCell>
        <mxCell id="edge169" value="" style="html=1;rounded=1;;dashed=0;startArrow=none;endArrow=block;endSize=12;strokeColor=#3574f0;exitX=0.500;exitY=1.001;exitDx=0;exitDy=0;entryX=0.057;entryY=0.002;entryDx=0;entryDy=0;" parent="1" source="node48" target="node65" edge="1">
          <mxGeometry width="50" height="50" relative="1" as="geometry">
            <Array as="points">
              <mxPoint x="5319" y="1747" />
              <mxPoint x="5255" y="1812" />
              <mxPoint x="-125" y="1812" />
              <mxPoint x="-180" y="1757" />
              <mxPoint x="-180" y="78" />
              <mxPoint x="-115" y="14" />
              <mxPoint x="483" y="14" />
              <mxPoint x="497" y="28" />
            </Array>
          </mxGeometry>
        </mxCell>
        <mxCell id="edge95" value="" style="html=1;rounded=1;;dashed=0;startArrow=none;endArrow=block;endSize=12;strokeColor=#3574f0;exitX=0.905;exitY=1.002;exitDx=0;exitDy=0;entryX=0.362;entryY=1.002;entryDx=0;entryDy=0;" parent="1" source="node65" target="node70" edge="1">
          <mxGeometry width="50" height="50" relative="1" as="geometry">
            <Array as="points">
              <mxPoint x="635" y="1222" />
              <mxPoint x="700" y="1287" />
              <mxPoint x="2467" y="1287" />
              <mxPoint x="2503" y="1250" />
              <mxPoint x="2503" y="1200" />
              <mxPoint x="2540" y="1164" />
              <mxPoint x="2596" y="1164" />
              <mxPoint x="2635" y="1125" />
            </Array>
          </mxGeometry>
        </mxCell>
        <mxCell id="edge92" value="" style="html=1;rounded=1;;dashed=0;startArrow=none;endArrow=block;endSize=12;strokeColor=#3574f0;exitX=0.767;exitY=1.002;exitDx=0;exitDy=0;entryX=0.347;entryY=1.001;entryDx=0;entryDy=0;" parent="1" source="node65" target="node5" edge="1">
          <mxGeometry width="50" height="50" relative="1" as="geometry">
            <Array as="points">
              <mxPoint x="613" y="1263" />
              <mxPoint x="677" y="1327" />
              <mxPoint x="2599" y="1327" />
              <mxPoint x="2625" y="1300" />
            </Array>
          </mxGeometry>
        </mxCell>
        <mxCell id="edge90" value="" style="html=1;rounded=1;;dashed=0;startArrow=none;endArrow=block;endSize=12;strokeColor=#3574f0;exitX=0.989;exitY=1.001;exitDx=0;exitDy=0;entryX=0.000;entryY=0.217;entryDx=0;entryDy=0;" parent="1" source="node65" target="node10" edge="1">
          <mxGeometry width="50" height="50" relative="1" as="geometry">
            <Array as="points">
              <mxPoint x="649" y="354" />
              <mxPoint x="714" y="419" />
            </Array>
          </mxGeometry>
        </mxCell>
        <mxCell id="edge91" value="" style="html=1;rounded=1;;dashed=0;startArrow=none;endArrow=block;endSize=12;strokeColor=#3574f0;exitX=0.294;exitY=0.001;exitDx=0;exitDy=0;entryX=0.791;entryY=0.001;entryDx=0;entryDy=0;" parent="1" source="node65" target="node38" edge="1">
          <mxGeometry width="50" height="50" relative="1" as="geometry">
            <Array as="points">
              <mxPoint x="536" y="-41" />
              <mxPoint x="581" y="-86" />
              <mxPoint x="4178" y="-86" />
              <mxPoint x="4242" y="-22" />
            </Array>
          </mxGeometry>
        </mxCell>
        <mxCell id="edge85" value="" style="html=1;rounded=1;;dashed=0;startArrow=none;endArrow=block;endSize=12;strokeColor=#3574f0;exitX=0.233;exitY=0.001;exitDx=0;exitDy=0;entryX=0.500;entryY=0.002;entryDx=0;entryDy=0;" parent="1" source="node65" target="node43" edge="1">
          <mxGeometry width="50" height="50" relative="1" as="geometry">
            <Array as="points">
              <mxPoint x="526" y="-55" />
              <mxPoint x="577" y="-106" />
              <mxPoint x="4355" y="-106" />
              <mxPoint x="4419" y="-42" />
            </Array>
          </mxGeometry>
        </mxCell>
        <mxCell id="edge84" value="" style="html=1;rounded=1;;dashed=0;startArrow=none;endArrow=block;endSize=12;strokeColor=#3574f0;exitX=0.951;exitY=1.002;exitDx=0;exitDy=0;entryX=0.001;entryY=0.500;entryDx=0;entryDy=0;" parent="1" source="node65" target="node56" edge="1">
          <mxGeometry width="50" height="50" relative="1" as="geometry">
            <Array as="points">
              <mxPoint x="643" y="411" />
              <mxPoint x="707" y="475" />
            </Array>
          </mxGeometry>
        </mxCell>
        <mxCell id="edge86" value="" style="html=1;rounded=1;;dashed=0;startArrow=none;endArrow=block;endSize=12;strokeColor=#3574f0;exitX=0.936;exitY=1.002;exitDx=0;exitDy=0;entryX=0.000;entryY=0.500;entryDx=0;entryDy=0;" parent="1" source="node65" target="node26" edge="1">
          <mxGeometry width="50" height="50" relative="1" as="geometry">
            <Array as="points">
              <mxPoint x="640" y="486" />
              <mxPoint x="704" y="550" />
            </Array>
          </mxGeometry>
        </mxCell>
        <mxCell id="edge83" value="" style="html=1;rounded=1;;dashed=0;startArrow=none;endArrow=block;endSize=12;strokeColor=#3574f0;exitX=0.040;exitY=0.002;exitDx=0;exitDy=0;entryX=0.797;entryY=1.002;entryDx=0;entryDy=0;" parent="1" source="node65" target="node63" edge="1">
          <mxGeometry width="50" height="50" relative="1" as="geometry">
            <Array as="points">
              <mxPoint x="494" y="42" />
              <mxPoint x="486" y="34" />
              <mxPoint x="-95" y="34" />
              <mxPoint x="-160" y="98" />
              <mxPoint x="-160" y="1757" />
              <mxPoint x="-125" y="1792" />
              <mxPoint x="5058" y="1792" />
              <mxPoint x="5122" y="1727" />
            </Array>
          </mxGeometry>
        </mxCell>
        <mxCell id="edge89" value="" style="html=1;rounded=1;;dashed=0;startArrow=none;endArrow=block;endSize=12;strokeColor=#3574f0;exitX=0.521;exitY=1.002;exitDx=0;exitDy=0;entryX=0.223;entryY=1.002;entryDx=0;entryDy=0;" parent="1" source="node65" target="node31" edge="1">
          <mxGeometry width="50" height="50" relative="1" as="geometry">
            <Array as="points">
              <mxPoint x="573" y="1243" />
              <mxPoint x="637" y="1307" />
              <mxPoint x="2488" y="1307" />
              <mxPoint x="2552" y="1371" />
              <mxPoint x="2552" y="1528" />
              <mxPoint x="2616" y="1592" />
              <mxPoint x="2768" y="1592" />
              <mxPoint x="2776" y="1583" />
            </Array>
          </mxGeometry>
        </mxCell>
        <mxCell id="edge94" value="" style="html=1;rounded=1;;dashed=0;startArrow=none;endArrow=block;endSize=12;strokeColor=#3574f0;exitX=0.966;exitY=0.002;exitDx=0;exitDy=0;entryX=0.793;entryY=0.002;entryDx=0;entryDy=0;" parent="1" source="node65" target="node54" edge="1">
          <mxGeometry width="50" height="50" relative="1" as="geometry">
            <Array as="points">
              <mxPoint x="645" y="42" />
              <mxPoint x="654" y="34" />
              <mxPoint x="2280" y="34" />
              <mxPoint x="2344" y="98" />
              <mxPoint x="2344" y="688" />
              <mxPoint x="2408" y="752" />
              <mxPoint x="2754" y="752" />
              <mxPoint x="2818" y="816" />
            </Array>
          </mxGeometry>
        </mxCell>
        <mxCell id="edge87" value="" style="html=1;rounded=1;;dashed=0;startArrow=none;endArrow=block;endSize=12;strokeColor=#3574f0;exitX=0.890;exitY=1.002;exitDx=0;exitDy=0;entryX=0.189;entryY=1.002;entryDx=0;entryDy=0;" parent="1" source="node65" target="node11" edge="1">
          <mxGeometry width="50" height="50" relative="1" as="geometry">
            <Array as="points">
              <mxPoint x="633" y="1263" />
              <mxPoint x="717" y="1347" />
              <mxPoint x="1341" y="1347" />
              <mxPoint x="1432" y="1438" />
              <mxPoint x="1432" y="1617" />
              <mxPoint x="1467" y="1652" />
              <mxPoint x="4834" y="1652" />
              <mxPoint x="4898" y="1587" />
            </Array>
          </mxGeometry>
        </mxCell>
        <mxCell id="edge88" value="" style="html=1;rounded=1;;dashed=0;startArrow=none;endArrow=block;endSize=12;strokeColor=#3574f0;exitX=0.399;exitY=1.002;exitDx=0;exitDy=0;entryX=0.000;entryY=0.500;entryDx=0;entryDy=0;" parent="1" source="node65" target="node17" edge="1">
          <mxGeometry width="50" height="50" relative="1" as="geometry">
            <Array as="points">
              <mxPoint x="553" y="1345" />
              <mxPoint x="608" y="1400" />
            </Array>
          </mxGeometry>
        </mxCell>
        <mxCell id="edge93" value="" style="html=1;rounded=1;;dashed=0;startArrow=none;endArrow=block;endSize=12;strokeColor=#3574f0;exitX=0.706;exitY=0.002;exitDx=0;exitDy=0;entryX=0.930;entryY=0.001;entryDx=0;entryDy=0;" parent="1" source="node65" target="node29" edge="1">
          <mxGeometry width="50" height="50" relative="1" as="geometry">
            <Array as="points">
              <mxPoint x="603" y="-31" />
              <mxPoint x="638" y="-66" />
              <mxPoint x="4062" y="-66" />
              <mxPoint x="4126" y="-2" />
            </Array>
          </mxGeometry>
        </mxCell>
        <mxCell id="edge171" value="" style="html=1;rounded=1;;dashed=0;startArrow=none;endArrow=block;endSize=12;strokeColor=#3574f0;exitX=1.000;exitY=0.500;exitDx=0;exitDy=0;entryX=0.000;entryY=0.500;entryDx=0;entryDy=0;" parent="1" source="node55" target="node65" edge="1">
          <mxGeometry width="50" height="50" relative="1" as="geometry">
            <Array as="points" />
          </mxGeometry>
        </mxCell>
        <mxCell id="edge151" value="" style="html=1;rounded=1;;dashed=0;startArrow=none;endArrow=block;endSize=12;strokeColor=#3574f0;exitX=0.000;exitY=0.359;exitDx=0;exitDy=0;entryX=1.000;entryY=0.359;entryDx=0;entryDy=0;" parent="1" source="node34" target="node73" edge="1">
          <mxGeometry width="50" height="50" relative="1" as="geometry">
            <Array as="points" />
          </mxGeometry>
        </mxCell>
        <mxCell id="edge152" value="" style="html=1;rounded=1;;dashed=1;dashPattern=1 1;startArrow=none;endArrow=block;endSize=12;strokeColor=#5fad65;exitX=0.000;exitY=0.641;exitDx=0;exitDy=0;entryX=1.000;entryY=0.641;entryDx=0;entryDy=0;" parent="1" source="node34" target="node73" edge="1">
          <mxGeometry width="50" height="50" relative="1" as="geometry">
            <Array as="points" />
          </mxGeometry>
        </mxCell>
        <mxCell id="edge49" value="" style="html=1;rounded=1;;dashed=0;startArrow=none;endArrow=block;endSize=12;strokeColor=#3574f0;exitX=0.500;exitY=0.001;exitDx=0;exitDy=0;entryX=0.500;entryY=1.001;entryDx=0;entryDy=0;" parent="1" source="node34" target="node60" edge="1">
          <mxGeometry width="50" height="50" relative="1" as="geometry">
            <Array as="points" />
          </mxGeometry>
        </mxCell>
        <mxCell id="edge48" value="" style="html=1;rounded=1;;dashed=0;startArrow=none;endArrow=block;endSize=12;strokeColor=#3574f0;exitX=0.500;exitY=1.001;exitDx=0;exitDy=0;entryX=0.500;entryY=0.001;entryDx=0;entryDy=0;" parent="1" source="node34" target="node40" edge="1">
          <mxGeometry width="50" height="50" relative="1" as="geometry">
            <Array as="points" />
          </mxGeometry>
        </mxCell>
        <mxCell id="edge127" value="" style="html=1;rounded=1;;dashed=0;startArrow=none;endArrow=block;endSize=12;strokeColor=#3574f0;exitX=0.838;exitY=0.002;exitDx=0;exitDy=0;entryX=0.920;entryY=0.001;entryDx=0;entryDy=0;" parent="1" source="node13" target="node65" edge="1">
          <mxGeometry width="50" height="50" relative="1" as="geometry">
            <Array as="points">
              <mxPoint x="3353" y="38" />
              <mxPoint x="3289" y="-26" />
              <mxPoint x="658" y="-26" />
              <mxPoint x="638" y="-6" />
            </Array>
          </mxGeometry>
        </mxCell>
        <mxCell id="edge128" value="" style="html=1;rounded=1;;dashed=1;dashPattern=1 1;startArrow=none;endArrow=block;endSize=12;strokeColor=#5fad65;exitX=0.613;exitY=0.001;exitDx=0;exitDy=0;entryX=0.936;entryY=0.001;entryDx=0;entryDy=0;" parent="1" source="node13" target="node65" edge="1">
          <mxGeometry width="50" height="50" relative="1" as="geometry">
            <Array as="points">
              <mxPoint x="3330" y="58" />
              <mxPoint x="3266" y="-6" />
              <mxPoint x="658" y="-6" />
              <mxPoint x="640" y="11" />
            </Array>
          </mxGeometry>
        </mxCell>
        <mxCell id="edge120" value="" style="html=1;rounded=1;;dashed=1;startArrow=none;endArrow=block;endSize=12;endFill=0;strokeColor=#24a394;exitX=0.000;exitY=0.500;exitDx=0;exitDy=0;entryX=0.591;entryY=1.002;entryDx=0;entryDy=0;" parent="1" source="node13" target="node73" edge="1">
          <mxGeometry width="50" height="50" relative="1" as="geometry">
            <Array as="points">
              <mxPoint x="3044" y="350" />
              <mxPoint x="3003" y="309" />
            </Array>
          </mxGeometry>
        </mxCell>
        <mxCell id="edge78" value="" style="html=1;rounded=1;;dashed=1;dashPattern=1 1;startArrow=none;endArrow=block;endSize=12;strokeColor=#5fad65;exitX=1.000;exitY=0.217;exitDx=0;exitDy=0;entryX=0.001;entryY=0.217;entryDx=0;entryDy=0;" parent="1" source="node13" target="node0" edge="1">
          <mxGeometry width="50" height="50" relative="1" as="geometry">
            <Array as="points" />
          </mxGeometry>
        </mxCell>
        <mxCell id="edge79" value="" style="html=1;rounded=1;;dashed=0;startArrow=none;endArrow=block;endSize=12;strokeColor=#3574f0;exitX=0.800;exitY=1.001;exitDx=0;exitDy=0;entryX=0.278;entryY=1.001;entryDx=0;entryDy=0;" parent="1" source="node13" target="node0" edge="1">
          <mxGeometry width="50" height="50" relative="1" as="geometry">
            <Array as="points">
              <mxPoint x="3349" y="416" />
              <mxPoint x="3372" y="439" />
              <mxPoint x="3752" y="439" />
              <mxPoint x="3774" y="416" />
            </Array>
          </mxGeometry>
        </mxCell>
        <mxCell id="edge71" value="" style="html=1;rounded=1;;dashed=0;startArrow=none;endArrow=block;endSize=12;strokeColor=#3574f0;exitX=0.388;exitY=0.002;exitDx=0;exitDy=0;entryX=1.000;entryY=0.500;entryDx=0;entryDy=0;" parent="1" source="node13" target="node60" edge="1">
          <mxGeometry width="50" height="50" relative="1" as="geometry">
            <Array as="points">
              <mxPoint x="3308" y="154" />
              <mxPoint x="3279" y="125" />
            </Array>
          </mxGeometry>
        </mxCell>
        <mxCell id="edge77" value="" style="html=1;rounded=1;;dashed=0;startArrow=none;endArrow=block;endSize=12;strokeColor=#3574f0;exitX=0.200;exitY=1.002;exitDx=0;exitDy=0;entryX=0.653;entryY=1.002;entryDx=0;entryDy=0;" parent="1" source="node13" target="node58" edge="1">
          <mxGeometry width="50" height="50" relative="1" as="geometry">
            <Array as="points">
              <mxPoint x="3289" y="383" />
              <mxPoint x="3281" y="392" />
              <mxPoint x="2924" y="392" />
              <mxPoint x="2915" y="383" />
            </Array>
          </mxGeometry>
        </mxCell>
        <mxCell id="edge70" value="" style="html=1;rounded=1;;dashed=0;startArrow=none;endArrow=block;endSize=12;strokeColor=#3574f0;exitX=0.163;exitY=0.002;exitDx=0;exitDy=0;entryX=1.000;entryY=0.500;entryDx=0;entryDy=0;" parent="1" source="node13" target="node40" edge="1">
          <mxGeometry width="50" height="50" relative="1" as="geometry">
            <Array as="points">
              <mxPoint x="3285" y="293" />
              <mxPoint x="3267" y="275" />
            </Array>
          </mxGeometry>
        </mxCell>
        <mxCell id="edge99" value="" style="html=1;rounded=1;;dashed=0;startArrow=none;endArrow=block;endSize=12;strokeColor=#3574f0;exitX=0.500;exitY=1.002;exitDx=0;exitDy=0;entryX=0.349;entryY=1.002;entryDx=0;entryDy=0;" parent="1" source="node13" target="node29" edge="1">
          <mxGeometry width="50" height="50" relative="1" as="geometry">
            <Array as="points">
              <mxPoint x="3319" y="449" />
              <mxPoint x="3357" y="487" />
              <mxPoint x="4069" y="487" />
              <mxPoint x="4083" y="472" />
            </Array>
          </mxGeometry>
        </mxCell>
        <mxCell id="edge26" value="" style="html=1;rounded=1;;dashed=0;startArrow=none;endArrow=block;endSize=12;strokeColor=#3574f0;exitX=0.652;exitY=1.001;exitDx=0;exitDy=0;entryX=0.584;entryY=0.001;entryDx=0;entryDy=0;" parent="1" source="node70" target="node5" edge="1">
          <mxGeometry width="50" height="50" relative="1" as="geometry">
            <Array as="points" />
          </mxGeometry>
        </mxCell>
        <mxCell id="edge0" value="" style="html=1;rounded=1;;dashed=0;startArrow=none;endArrow=block;endSize=12;strokeColor=#3574f0;exitX=0.652;exitY=0.002;exitDx=0;exitDy=0;entryX=0.890;entryY=0.001;entryDx=0;entryDy=0;" parent="1" source="node70" target="node29" edge="1">
          <mxGeometry width="50" height="50" relative="1" as="geometry">
            <Array as="points">
              <mxPoint x="2655" y="148" />
              <mxPoint x="2719" y="84" />
              <mxPoint x="4044" y="84" />
              <mxPoint x="4123" y="163" />
            </Array>
          </mxGeometry>
        </mxCell>
        <mxCell id="edge39" value="" style="html=1;rounded=1;;dashed=0;startArrow=none;endArrow=block;endSize=12;strokeColor=#955ae0;exitX=1.001;exitY=0.783;exitDx=0;exitDy=0;entryX=0.926;entryY=1.001;entryDx=0;entryDy=0;" parent="1" source="node70" target="node29" edge="1">
          <mxGeometry width="50" height="50" relative="1" as="geometry">
            <Array as="points">
              <mxPoint x="4062" y="932" />
              <mxPoint x="4126" y="868" />
            </Array>
          </mxGeometry>
        </mxCell>
        <mxCell id="edge42" value="" style="html=1;rounded=1;;dashed=0;startArrow=none;endArrow=block;endSize=12;strokeColor=#3574f0;exitX=1.000;exitY=0.500;exitDx=0;exitDy=0;entryX=0.000;entryY=0.500;entryDx=0;entryDy=0;" parent="1" source="node14" target="node61" edge="1">
          <mxGeometry width="50" height="50" relative="1" as="geometry">
            <Array as="points" />
          </mxGeometry>
        </mxCell>
        <mxCell id="edge16" value="" style="html=1;rounded=1;;dashed=0;startArrow=none;endArrow=block;endSize=12;strokeColor=#955ae0;exitX=0.604;exitY=0.001;exitDx=0;exitDy=0;entryX=0.688;entryY=1.001;entryDx=0;entryDy=0;" parent="1" source="node5" target="node70" edge="1">
          <mxGeometry width="50" height="50" relative="1" as="geometry">
            <Array as="points" />
          </mxGeometry>
        </mxCell>
        <mxCell id="edge40" value="" style="html=1;rounded=1;;dashed=0;startArrow=none;endArrow=block;endSize=12;strokeColor=#3574f0;exitX=0.689;exitY=0.001;exitDx=0;exitDy=0;entryX=0.842;entryY=1.001;entryDx=0;entryDy=0;" parent="1" source="node5" target="node70" edge="1">
          <mxGeometry width="50" height="50" relative="1" as="geometry">
            <Array as="points" />
          </mxGeometry>
        </mxCell>
        <mxCell id="edge5" value="" style="html=1;rounded=1;;dashed=0;startArrow=none;endArrow=block;endSize=12;strokeColor=#955ae0;exitX=0.960;exitY=1.002;exitDx=0;exitDy=0;entryX=0.061;entryY=0.001;entryDx=0;entryDy=0;" parent="1" source="node5" target="node54" edge="1">
          <mxGeometry width="50" height="50" relative="1" as="geometry">
            <Array as="points">
              <mxPoint x="2702" y="1258" />
              <mxPoint x="2711" y="1267" />
              <mxPoint x="2742" y="1267" />
              <mxPoint x="2758" y="1283" />
            </Array>
          </mxGeometry>
        </mxCell>
        <mxCell id="edge44" value="" style="html=1;rounded=1;;dashed=0;startArrow=none;endArrow=block;endSize=12;strokeColor=#3574f0;exitX=0.653;exitY=1.001;exitDx=0;exitDy=0;entryX=0.000;entryY=0.359;entryDx=0;entryDy=0;" parent="1" source="node5" target="node54" edge="1">
          <mxGeometry width="50" height="50" relative="1" as="geometry">
            <Array as="points">
              <mxPoint x="2663" y="1370" />
              <mxPoint x="2690" y="1397" />
            </Array>
          </mxGeometry>
        </mxCell>
        <mxCell id="edge135" value="" style="html=1;rounded=1;;dashed=1;dashPattern=1 1;startArrow=none;endArrow=block;endSize=12;strokeColor=#5fad65;exitX=0.000;exitY=0.217;exitDx=0;exitDy=0;entryX=0.110;entryY=0.002;entryDx=0;entryDy=0;" parent="1" source="node12" target="node65" edge="1">
          <mxGeometry width="50" height="50" relative="1" as="geometry">
            <Array as="points">
              <mxPoint x="1612" y="1144" />
              <mxPoint x="1547" y="1079" />
              <mxPoint x="1547" y="-102" />
              <mxPoint x="1483" y="-166" />
              <mxPoint x="560" y="-166" />
              <mxPoint x="506" y="-112" />
            </Array>
          </mxGeometry>
        </mxCell>
        <mxCell id="edge136" value="" style="html=1;rounded=1;;dashed=0;startArrow=none;endArrow=block;endSize=12;strokeColor=#3574f0;exitX=0.158;exitY=1.002;exitDx=0;exitDy=0;entryX=0.644;entryY=1.001;entryDx=0;entryDy=0;" parent="1" source="node12" target="node65" edge="1">
          <mxGeometry width="50" height="50" relative="1" as="geometry">
            <Array as="points">
              <mxPoint x="2080" y="1235" />
              <mxPoint x="2049" y="1267" />
              <mxPoint x="657" y="1267" />
              <mxPoint x="593" y="1203" />
            </Array>
          </mxGeometry>
        </mxCell>
        <mxCell id="edge100" value="" style="html=1;rounded=1;;dashed=0;startArrow=none;endArrow=block;endSize=12;strokeColor=#3574f0;exitX=0.842;exitY=1.002;exitDx=0;exitDy=0;entryX=0.072;entryY=1.001;entryDx=0;entryDy=0;" parent="1" source="node12" target="node70" edge="1">
          <mxGeometry width="50" height="50" relative="1" as="geometry">
            <Array as="points">
              <mxPoint x="2158" y="1183" />
              <mxPoint x="2167" y="1192" />
              <mxPoint x="2416" y="1192" />
              <mxPoint x="2491" y="1117" />
              <mxPoint x="2567" y="1117" />
              <mxPoint x="2615" y="1069" />
            </Array>
          </mxGeometry>
        </mxCell>
        <mxCell id="edge74" value="" style="html=1;rounded=1;;dashed=0;startArrow=none;endArrow=block;endSize=12;strokeColor=#3574f0;exitX=0.604;exitY=0.001;exitDx=0;exitDy=0;entryX=0.630;entryY=1.001;entryDx=0;entryDy=0;" parent="1" source="node12" target="node14" edge="1">
          <mxGeometry width="50" height="50" relative="1" as="geometry">
            <Array as="points" />
          </mxGeometry>
        </mxCell>
        <mxCell id="edge102" value="" style="html=1;rounded=1;;dashed=0;startArrow=none;endArrow=block;endSize=12;strokeColor=#3574f0;exitX=0.614;exitY=1.002;exitDx=0;exitDy=0;entryX=0.000;entryY=0.435;entryDx=0;entryDy=0;" parent="1" source="node12" target="node5" edge="1">
          <mxGeometry width="50" height="50" relative="1" as="geometry">
            <Array as="points">
              <mxPoint x="2132" y="1205" />
              <mxPoint x="2151" y="1224" />
            </Array>
          </mxGeometry>
        </mxCell>
        <mxCell id="edge75" value="" style="html=1;rounded=1;;dashed=0;startArrow=none;endArrow=block;endSize=12;strokeColor=#3574f0;exitX=1.000;exitY=0.500;exitDx=0;exitDy=0;entryX=0.966;entryY=1.002;entryDx=0;entryDy=0;" parent="1" source="node12" target="node61" edge="1">
          <mxGeometry width="50" height="50" relative="1" as="geometry">
            <Array as="points">
              <mxPoint x="2344" y="1150" />
              <mxPoint x="2363" y="1132" />
            </Array>
          </mxGeometry>
        </mxCell>
        <mxCell id="edge124" value="" style="html=1;rounded=1;;dashed=1;startArrow=none;endArrow=block;endSize=12;endFill=0;strokeColor=#24a394;exitX=0.101;exitY=0.001;exitDx=0;exitDy=0;entryX=0.111;entryY=1.001;entryDx=0;entryDy=0;" parent="1" source="node12" target="node41" edge="1">
          <mxGeometry width="50" height="50" relative="1" as="geometry">
            <Array as="points" />
          </mxGeometry>
        </mxCell>
        <mxCell id="edge101" value="" style="html=1;rounded=1;;dashed=0;startArrow=none;endArrow=block;endSize=12;strokeColor=#3574f0;exitX=0.386;exitY=1.002;exitDx=0;exitDy=0;entryX=0.000;entryY=0.641;entryDx=0;entryDy=0;" parent="1" source="node12" target="node54" edge="1">
          <mxGeometry width="50" height="50" relative="1" as="geometry">
            <Array as="points">
              <mxPoint x="2106" y="1339" />
              <mxPoint x="2170" y="1403" />
            </Array>
          </mxGeometry>
        </mxCell>
        <mxCell id="edge47" value="" style="html=1;rounded=1;;dashed=0;startArrow=none;endArrow=block;endSize=12;strokeColor=#3574f0;exitX=0.036;exitY=1.002;exitDx=0;exitDy=0;entryX=1.000;entryY=0.217;entryDx=0;entryDy=0;" parent="1" source="node22" target="node61" edge="1">
          <mxGeometry width="50" height="50" relative="1" as="geometry">
            <Array as="points">
              <mxPoint x="2405" y="1058" />
              <mxPoint x="2395" y="1069" />
            </Array>
          </mxGeometry>
        </mxCell>
        <mxCell id="edge153" value="" style="html=1;rounded=1;;dashed=0;startArrow=none;endArrow=block;endSize=12;strokeColor=#3574f0;exitX=0.268;exitY=0.002;exitDx=0;exitDy=0;entryX=0.889;entryY=0.002;entryDx=0;entryDy=0;" parent="1" source="node22" target="node41" edge="1">
          <mxGeometry width="50" height="50" relative="1" as="geometry">
            <Array as="points">
              <mxPoint x="2437" y="967" />
              <mxPoint x="2429" y="959" />
              <mxPoint x="2174" y="959" />
              <mxPoint x="2165" y="967" />
            </Array>
          </mxGeometry>
        </mxCell>
        <mxCell id="edge155" value="" style="html=1;rounded=1;;dashed=1;dashPattern=1 1;startArrow=none;endArrow=block;endSize=12;strokeColor=#5fad65;exitX=0.732;exitY=0.002;exitDx=0;exitDy=0;entryX=0.859;entryY=0.002;entryDx=0;entryDy=0;" parent="1" source="node22" target="node41" edge="1">
          <mxGeometry width="50" height="50" relative="1" as="geometry">
            <Array as="points">
              <mxPoint x="2501" y="953" />
              <mxPoint x="2487" y="939" />
              <mxPoint x="2176" y="939" />
              <mxPoint x="2161" y="953" />
            </Array>
          </mxGeometry>
        </mxCell>
        <mxCell id="edge141" value="" style="html=1;rounded=1;;dashed=0;startArrow=none;endArrow=block;endSize=12;strokeColor=#3574f0;exitX=1.000;exitY=0.652;exitDx=0;exitDy=0;entryX=0.000;entryY=0.652;entryDx=0;entryDy=0;" parent="1" source="node62" target="node71" edge="1">
          <mxGeometry width="50" height="50" relative="1" as="geometry">
            <Array as="points" />
          </mxGeometry>
        </mxCell>
        <mxCell id="edge143" value="" style="html=1;rounded=1;;dashed=1;dashPattern=1 1;startArrow=none;endArrow=block;endSize=12;strokeColor=#5fad65;exitX=0.500;exitY=0.002;exitDx=0;exitDy=0;entryX=0.500;entryY=0.002;entryDx=0;entryDy=0;" parent="1" source="node62" target="node71" edge="1">
          <mxGeometry width="50" height="50" relative="1" as="geometry">
            <Array as="points">
              <mxPoint x="-31" y="1367" />
              <mxPoint x="-22" y="1359" />
              <mxPoint x="161" y="1359" />
              <mxPoint x="169" y="1367" />
            </Array>
          </mxGeometry>
        </mxCell>
        <mxCell id="edge21" value="" style="html=1;rounded=1;;dashed=0;startArrow=none;endArrow=block;endSize=12;strokeColor=#955ae0;exitX=0.796;exitY=1.001;exitDx=0;exitDy=0;entryX=0.854;entryY=0.001;entryDx=0;entryDy=0;" parent="1" source="node10" target="node54" edge="1">
          <mxGeometry width="50" height="50" relative="1" as="geometry">
            <Array as="points" />
          </mxGeometry>
        </mxCell>
        <mxCell id="edge29" value="" style="html=1;rounded=1;;dashed=0;startArrow=none;endArrow=block;endSize=12;strokeColor=#3574f0;exitX=0.770;exitY=1.001;exitDx=0;exitDy=0;entryX=0.823;entryY=0.001;entryDx=0;entryDy=0;" parent="1" source="node10" target="node54" edge="1">
          <mxGeometry width="50" height="50" relative="1" as="geometry">
            <Array as="points" />
          </mxGeometry>
        </mxCell>
        <mxCell id="edge11" value="" style="html=1;rounded=1;;dashed=0;startArrow=none;endArrow=block;endSize=12;strokeColor=#3574f0;exitX=0.291;exitY=0.001;exitDx=0;exitDy=0;entryX=0.912;entryY=0.001;entryDx=0;entryDy=0;" parent="1" source="node10" target="node29" edge="1">
          <mxGeometry width="50" height="50" relative="1" as="geometry">
            <Array as="points">
              <mxPoint x="2774" y="-102" />
              <mxPoint x="2838" y="-166" />
              <mxPoint x="4061" y="-166" />
              <mxPoint x="4125" y="-102" />
            </Array>
          </mxGeometry>
        </mxCell>
        <mxCell id="edge18" value="" style="html=1;rounded=1;;dashed=0;startArrow=none;endArrow=block;endSize=12;strokeColor=#955ae0;exitX=0.133;exitY=1.001;exitDx=0;exitDy=0;entryX=0.890;entryY=1.001;entryDx=0;entryDy=0;" parent="1" source="node10" target="node29" edge="1">
          <mxGeometry width="50" height="50" relative="1" as="geometry">
            <Array as="points">
              <mxPoint x="2758" y="500" />
              <mxPoint x="2785" y="527" />
              <mxPoint x="4097" y="527" />
              <mxPoint x="4123" y="500" />
            </Array>
          </mxGeometry>
        </mxCell>
        <mxCell id="edge82" value="" style="html=1;rounded=1;;dashed=0;startArrow=none;endArrow=block;endSize=12;strokeColor=#3574f0;exitX=0.674;exitY=0.001;exitDx=0;exitDy=0;entryX=0.693;entryY=1.001;entryDx=0;entryDy=0;" parent="1" source="node7" target="node28" edge="1">
          <mxGeometry width="50" height="50" relative="1" as="geometry">
            <Array as="points" />
          </mxGeometry>
        </mxCell>
        <mxCell id="edge80" value="" style="html=1;rounded=1;;dashed=0;startArrow=none;endArrow=block;endSize=12;strokeColor=#3574f0;exitX=0.500;exitY=1.001;exitDx=0;exitDy=0;entryX=0.500;entryY=0.001;entryDx=0;entryDy=0;" parent="1" source="node7" target="node2" edge="1">
          <mxGeometry width="50" height="50" relative="1" as="geometry">
            <Array as="points" />
          </mxGeometry>
        </mxCell>
        <mxCell id="edge159" value="" style="html=1;rounded=1;;dashed=1;dashPattern=1 1;startArrow=none;endArrow=block;endSize=12;strokeColor=#5fad65;exitX=1.000;exitY=0.641;exitDx=0;exitDy=0;entryX=0.000;entryY=0.641;entryDx=0;entryDy=0;" parent="1" source="node7" target="node18" edge="1">
          <mxGeometry width="50" height="50" relative="1" as="geometry">
            <Array as="points" />
          </mxGeometry>
        </mxCell>
        <mxCell id="edge160" value="" style="html=1;rounded=1;;dashed=0;startArrow=none;endArrow=block;endSize=12;strokeColor=#3574f0;exitX=1.000;exitY=0.359;exitDx=0;exitDy=0;entryX=0.000;entryY=0.359;entryDx=0;entryDy=0;" parent="1" source="node7" target="node18" edge="1">
          <mxGeometry width="50" height="50" relative="1" as="geometry">
            <Array as="points" />
          </mxGeometry>
        </mxCell>
        <mxCell id="edge118" value="" style="html=1;rounded=1;;dashed=1;startArrow=none;endArrow=block;endSize=12;endFill=0;strokeColor=#24a394;exitX=0.190;exitY=1.001;exitDx=0;exitDy=0;entryX=0.199;entryY=0.001;entryDx=0;entryDy=0;" parent="1" source="node21" target="node18" edge="1">
          <mxGeometry width="50" height="50" relative="1" as="geometry">
            <Array as="points" />
          </mxGeometry>
        </mxCell>
        <mxCell id="edge172" value="" style="html=1;rounded=1;;dashed=0;startArrow=none;endArrow=block;endSize=12;strokeColor=#3574f0;exitX=1.000;exitY=0.500;exitDx=0;exitDy=0;entryX=0.031;entryY=1.002;entryDx=0;entryDy=0;" parent="1" source="node6" target="node65" edge="1">
          <mxGeometry width="50" height="50" relative="1" as="geometry">
            <Array as="points">
              <mxPoint x="475" y="150" />
              <mxPoint x="493" y="133" />
            </Array>
          </mxGeometry>
        </mxCell>
        <mxCell id="edge4" value="" style="html=1;rounded=1;;dashed=0;startArrow=none;endArrow=block;endSize=12;strokeColor=#955ae0;exitX=0.500;exitY=0.001;exitDx=0;exitDy=0;entryX=0.079;entryY=0.001;entryDx=0;entryDy=0;" parent="1" source="node38" target="node29" edge="1">
          <mxGeometry width="50" height="50" relative="1" as="geometry">
            <Array as="points">
              <mxPoint x="4219" y="163" />
              <mxPoint x="4173" y="117" />
              <mxPoint x="4110" y="117" />
              <mxPoint x="4063" y="163" />
            </Array>
          </mxGeometry>
        </mxCell>
        <mxCell id="edge41" value="" style="html=1;rounded=1;;dashed=0;startArrow=none;endArrow=block;endSize=12;strokeColor=#3574f0;exitX=0.001;exitY=0.500;exitDx=0;exitDy=0;entryX=1.001;entryY=0.500;entryDx=0;entryDy=0;" parent="1" source="node38" target="node29" edge="1">
          <mxGeometry width="50" height="50" relative="1" as="geometry">
            <Array as="points" />
          </mxGeometry>
        </mxCell>
        <mxCell id="edge59" value="" style="html=1;rounded=1;;dashed=0;startArrow=none;endArrow=block;endSize=12;strokeColor=#3574f0;exitX=0.500;exitY=0.002;exitDx=0;exitDy=0;entryX=0.000;entryY=0.500;entryDx=0;entryDy=0;" parent="1" source="node73" target="node60" edge="1">
          <mxGeometry width="50" height="50" relative="1" as="geometry">
            <Array as="points">
              <mxPoint x="2994" y="144" />
              <mxPoint x="3013" y="125" />
            </Array>
          </mxGeometry>
        </mxCell>
        <mxCell id="edge58" value="" style="html=1;rounded=1;;dashed=0;startArrow=none;endArrow=block;endSize=12;strokeColor=#3574f0;exitX=0.831;exitY=1.002;exitDx=0;exitDy=0;entryX=0.000;entryY=0.500;entryDx=0;entryDy=0;" parent="1" source="node73" target="node40" edge="1">
          <mxGeometry width="50" height="50" relative="1" as="geometry">
            <Array as="points">
              <mxPoint x="3028" y="256" />
              <mxPoint x="3047" y="275" />
            </Array>
          </mxGeometry>
        </mxCell>
        <mxCell id="edge96" value="" style="html=1;rounded=1;;dashed=0;startArrow=none;endArrow=block;endSize=12;strokeColor=#3574f0;exitX=0.688;exitY=0.002;exitDx=0;exitDy=0;entryX=0.000;entryY=0.217;entryDx=0;entryDy=0;" parent="1" source="node41" target="node70" edge="1">
          <mxGeometry width="50" height="50" relative="1" as="geometry">
            <Array as="points">
              <mxPoint x="2141" y="939" />
              <mxPoint x="2162" y="919" />
            </Array>
          </mxGeometry>
        </mxCell>
        <mxCell id="edge60" value="" style="html=1;rounded=1;;dashed=0;startArrow=none;endArrow=block;endSize=12;strokeColor=#3574f0;exitX=0.601;exitY=1.001;exitDx=0;exitDy=0;entryX=0.630;entryY=0.001;entryDx=0;entryDy=0;" parent="1" source="node41" target="node14" edge="1">
          <mxGeometry width="50" height="50" relative="1" as="geometry">
            <Array as="points" />
          </mxGeometry>
        </mxCell>
        <mxCell id="edge61" value="" style="html=1;rounded=1;;dashed=0;startArrow=none;endArrow=block;endSize=12;strokeColor=#3574f0;exitX=1.000;exitY=0.500;exitDx=0;exitDy=0;entryX=0.500;entryY=0.002;entryDx=0;entryDy=0;" parent="1" source="node41" target="node61" edge="1">
          <mxGeometry width="50" height="50" relative="1" as="geometry">
            <Array as="points">
              <mxPoint x="2275" y="1000" />
              <mxPoint x="2294" y="1019" />
            </Array>
          </mxGeometry>
        </mxCell>
        <mxCell id="edge63" value="" style="html=1;rounded=1;;dashed=0;startArrow=none;endArrow=block;endSize=12;strokeColor=#3574f0;exitX=0.500;exitY=0.002;exitDx=0;exitDy=0;entryX=0.000;entryY=0.500;entryDx=0;entryDy=0;" parent="1" source="node64" target="node24" edge="1">
          <mxGeometry width="50" height="50" relative="1" as="geometry">
            <Array as="points">
              <mxPoint x="4744" y="1217" />
              <mxPoint x="4736" y="1209" />
              <mxPoint x="4515" y="1209" />
              <mxPoint x="4485" y="1239" />
              <mxPoint x="4485" y="1314" />
              <mxPoint x="4496" y="1325" />
            </Array>
          </mxGeometry>
        </mxCell>
        <mxCell id="edge98" value="" style="html=1;rounded=1;;dashed=0;startArrow=none;endArrow=block;endSize=12;strokeColor=#3574f0;exitX=0.386;exitY=1.001;exitDx=0;exitDy=0;entryX=0.688;entryY=0.002;entryDx=0;entryDy=0;" parent="1" source="node16" target="node70" edge="1">
          <mxGeometry width="50" height="50" relative="1" as="geometry">
            <Array as="points">
              <mxPoint x="1831" y="867" />
              <mxPoint x="1843" y="879" />
              <mxPoint x="2647" y="879" />
              <mxPoint x="2657" y="889" />
            </Array>
          </mxGeometry>
        </mxCell>
        <mxCell id="edge64" value="" style="html=1;rounded=1;;dashed=0;startArrow=none;endArrow=block;endSize=12;strokeColor=#3574f0;exitX=0.000;exitY=0.500;exitDx=0;exitDy=0;entryX=1.000;entryY=0.500;entryDx=0;entryDy=0;" parent="1" source="node16" target="node37" edge="1">
          <mxGeometry width="50" height="50" relative="1" as="geometry">
            <Array as="points" />
          </mxGeometry>
        </mxCell>
        <mxCell id="edge56" value="" style="html=1;rounded=1;;dashed=0;startArrow=none;endArrow=block;endSize=12;strokeColor=#3574f0;exitX=0.354;exitY=1.001;exitDx=0;exitDy=0;entryX=0.319;entryY=0.001;entryDx=0;entryDy=0;" parent="1" source="node67" target="node19" edge="1">
          <mxGeometry width="50" height="50" relative="1" as="geometry">
            <Array as="points" />
          </mxGeometry>
        </mxCell>
        <mxCell id="edge57" value="" style="html=1;rounded=1;;dashed=0;startArrow=none;endArrow=block;endSize=12;strokeColor=#3574f0;exitX=0.500;exitY=0.001;exitDx=0;exitDy=0;entryX=0.000;entryY=0.500;entryDx=0;entryDy=0;" parent="1" source="node27" target="node23" edge="1">
          <mxGeometry width="50" height="50" relative="1" as="geometry">
            <Array as="points">
              <mxPoint x="1194" y="84" />
              <mxPoint x="1172" y="62" />
              <mxPoint x="796" y="62" />
              <mxPoint x="747" y="110" />
              <mxPoint x="747" y="179" />
              <mxPoint x="793" y="225" />
            </Array>
          </mxGeometry>
        </mxCell>
        <mxCell id="edge97" value="" style="html=1;rounded=1;;dashed=0;startArrow=none;endArrow=block;endSize=12;strokeColor=#3574f0;exitX=0.270;exitY=1.001;exitDx=0;exitDy=0;entryX=0.079;entryY=1.002;entryDx=0;entryDy=0;" parent="1" source="node36" target="node29" edge="1">
          <mxGeometry width="50" height="50" relative="1" as="geometry">
            <Array as="points">
              <mxPoint x="3441" y="420" />
              <mxPoint x="3488" y="467" />
              <mxPoint x="4055" y="467" />
              <mxPoint x="4063" y="458" />
            </Array>
          </mxGeometry>
        </mxCell>
        <mxCell id="edge62" value="" style="html=1;rounded=1;;dashed=0;startArrow=none;endArrow=block;endSize=12;strokeColor=#3574f0;exitX=0.730;exitY=0.002;exitDx=0;exitDy=0;entryX=0.000;entryY=0.500;entryDx=0;entryDy=0;" parent="1" source="node36" target="node47" edge="1">
          <mxGeometry width="50" height="50" relative="1" as="geometry">
            <Array as="points">
              <mxPoint x="3497" y="244" />
              <mxPoint x="3516" y="225" />
            </Array>
          </mxGeometry>
        </mxCell>
        <mxCell id="edge147" value="" style="html=1;rounded=1;;dashed=1;dashPattern=1 1;startArrow=none;endArrow=block;endSize=12;strokeColor=#5fad65;exitX=0.722;exitY=0.001;exitDx=0;exitDy=0;entryX=0.702;entryY=1.001;entryDx=0;entryDy=0;" parent="1" source="node0" target="node1" edge="1">
          <mxGeometry width="50" height="50" relative="1" as="geometry">
            <Array as="points" />
          </mxGeometry>
        </mxCell>
        <mxCell id="edge148" value="" style="html=1;rounded=1;;dashed=0;startArrow=none;endArrow=block;endSize=12;strokeColor=#3574f0;exitX=0.278;exitY=0.001;exitDx=0;exitDy=0;entryX=0.298;entryY=1.001;entryDx=0;entryDy=0;" parent="1" source="node0" target="node1" edge="1">
          <mxGeometry width="50" height="50" relative="1" as="geometry">
            <Array as="points" />
          </mxGeometry>
        </mxCell>
        <mxCell id="edge27" value="" style="html=1;rounded=1;;dashed=0;startArrow=none;endArrow=block;endSize=12;strokeColor=#3574f0;exitX=0.722;exitY=1.002;exitDx=0;exitDy=0;entryX=0.000;entryY=0.217;entryDx=0;entryDy=0;" parent="1" source="node0" target="node29" edge="1">
          <mxGeometry width="50" height="50" relative="1" as="geometry">
            <Array as="points">
              <mxPoint x="3814" y="402" />
              <mxPoint x="3831" y="419" />
            </Array>
          </mxGeometry>
        </mxCell>
        <mxCell id="edge12" value="" style="html=1;rounded=1;;dashed=0;startArrow=none;endArrow=block;endSize=12;strokeColor=#3574f0;exitX=0.711;exitY=1.001;exitDx=0;exitDy=0;entryX=0.927;entryY=1.002;entryDx=0;entryDy=0;" parent="1" source="node43" target="node54" edge="1">
          <mxGeometry width="50" height="50" relative="1" as="geometry">
            <Array as="points">
              <mxPoint x="4433" y="1388" />
              <mxPoint x="4379" y="1442" />
              <mxPoint x="2838" y="1442" />
              <mxPoint x="2829" y="1433" />
            </Array>
          </mxGeometry>
        </mxCell>
        <mxCell id="edge133" value="" style="html=1;rounded=1;;dashed=0;startArrow=none;endArrow=block;endSize=12;strokeColor=#3574f0;exitX=0.727;exitY=0.002;exitDx=0;exitDy=0;entryX=0.075;entryY=0.002;entryDx=0;entryDy=0;" parent="1" source="node8" target="node65" edge="1">
          <mxGeometry width="50" height="50" relative="1" as="geometry">
            <Array as="points">
              <mxPoint x="4594" y="-82" />
              <mxPoint x="4530" y="-146" />
              <mxPoint x="560" y="-146" />
              <mxPoint x="500" y="-87" />
            </Array>
          </mxGeometry>
        </mxCell>
        <mxCell id="edge134" value="" style="html=1;rounded=1;;dashed=1;dashPattern=1 1;startArrow=none;endArrow=block;endSize=12;strokeColor=#5fad65;exitX=0.273;exitY=0.002;exitDx=0;exitDy=0;entryX=0.093;entryY=0.001;entryDx=0;entryDy=0;" parent="1" source="node8" target="node65" edge="1">
          <mxGeometry width="50" height="50" relative="1" as="geometry">
            <Array as="points">
              <mxPoint x="4544" y="-62" />
              <mxPoint x="4480" y="-126" />
              <mxPoint x="560" y="-126" />
              <mxPoint x="503" y="-70" />
            </Array>
          </mxGeometry>
        </mxCell>
        <mxCell id="edge123" value="" style="html=1;rounded=1;;dashed=1;startArrow=none;endArrow=block;endSize=12;endFill=0;strokeColor=#24a394;exitX=1.000;exitY=0.500;exitDx=0;exitDy=0;entryX=0.000;entryY=0.500;entryDx=0;entryDy=0;" parent="1" source="node8" target="node64" edge="1">
          <mxGeometry width="50" height="50" relative="1" as="geometry">
            <Array as="points" />
          </mxGeometry>
        </mxCell>
        <mxCell id="edge109" value="" style="html=1;rounded=1;;dashed=0;startArrow=none;endArrow=block;endSize=12;strokeColor=#3574f0;exitX=0.000;exitY=0.500;exitDx=0;exitDy=0;entryX=1.000;entryY=0.500;entryDx=0;entryDy=0;" parent="1" source="node8" target="node43" edge="1">
          <mxGeometry width="50" height="50" relative="1" as="geometry">
            <Array as="points" />
          </mxGeometry>
        </mxCell>
        <mxCell id="edge66" value="" style="html=1;rounded=1;;dashed=0;startArrow=none;endArrow=block;endSize=12;strokeColor=#3574f0;exitX=0.500;exitY=1.001;exitDx=0;exitDy=0;entryX=0.500;entryY=0.001;entryDx=0;entryDy=0;" parent="1" source="node8" target="node24" edge="1">
          <mxGeometry width="50" height="50" relative="1" as="geometry">
            <Array as="points" />
          </mxGeometry>
        </mxCell>
        <mxCell id="edge157" value="" style="html=1;rounded=1;;dashed=0;startArrow=none;endArrow=block;endSize=12;strokeColor=#3574f0;exitX=0.692;exitY=0.001;exitDx=0;exitDy=0;entryX=0.728;entryY=1.001;entryDx=0;entryDy=0;" parent="1" source="node49" target="node64" edge="1">
          <mxGeometry width="50" height="50" relative="1" as="geometry">
            <Array as="points" />
          </mxGeometry>
        </mxCell>
        <mxCell id="edge158" value="" style="html=1;rounded=1;;dashed=1;dashPattern=1 1;startArrow=none;endArrow=block;endSize=12;strokeColor=#5fad65;exitX=0.308;exitY=0.001;exitDx=0;exitDy=0;entryX=0.272;entryY=1.001;entryDx=0;entryDy=0;" parent="1" source="node49" target="node64" edge="1">
          <mxGeometry width="50" height="50" relative="1" as="geometry">
            <Array as="points" />
          </mxGeometry>
        </mxCell>
        <mxCell id="edge51" value="" style="html=1;rounded=1;;dashed=0;startArrow=none;endArrow=block;endSize=12;strokeColor=#3574f0;exitX=0.000;exitY=0.500;exitDx=0;exitDy=0;entryX=1.000;entryY=0.500;entryDx=0;entryDy=0;" parent="1" source="node49" target="node24" edge="1">
          <mxGeometry width="50" height="50" relative="1" as="geometry">
            <Array as="points" />
          </mxGeometry>
        </mxCell>
        <mxCell id="edge81" value="" style="html=1;rounded=1;;dashed=0;startArrow=none;endArrow=block;endSize=12;strokeColor=#3574f0;exitX=0.816;exitY=0.002;exitDx=0;exitDy=0;entryX=0.072;entryY=0.002;entryDx=0;entryDy=0;" parent="1" source="node52" target="node70" edge="1">
          <mxGeometry width="50" height="50" relative="1" as="geometry">
            <Array as="points">
              <mxPoint x="2159" y="792" />
              <mxPoint x="2168" y="784" />
              <mxPoint x="2576" y="784" />
              <mxPoint x="2615" y="823" />
            </Array>
          </mxGeometry>
        </mxCell>
        <mxCell id="edge154" value="" style="html=1;rounded=1;;dashed=0;startArrow=none;endArrow=block;endSize=12;strokeColor=#3574f0;exitX=0.357;exitY=1.002;exitDx=0;exitDy=0;entryX=0.346;entryY=0.002;entryDx=0;entryDy=0;" parent="1" source="node52" target="node41" edge="1">
          <mxGeometry width="50" height="50" relative="1" as="geometry">
            <Array as="points" />
          </mxGeometry>
        </mxCell>
        <mxCell id="edge156" value="" style="html=1;rounded=1;;dashed=1;dashPattern=1 1;startArrow=none;endArrow=block;endSize=12;strokeColor=#5fad65;exitX=0.516;exitY=1.002;exitDx=0;exitDy=0;entryX=0.517;entryY=0.002;entryDx=0;entryDy=0;" parent="1" source="node52" target="node41" edge="1">
          <mxGeometry width="50" height="50" relative="1" as="geometry">
            <Array as="points" />
          </mxGeometry>
        </mxCell>
        <mxCell id="edge165" value="" style="html=1;rounded=1;;dashed=0;startArrow=none;endArrow=block;endSize=12;strokeColor=#3574f0;exitX=0.040;exitY=1.002;exitDx=0;exitDy=0;entryX=0.843;entryY=1.002;entryDx=0;entryDy=0;" parent="1" source="node52" target="node16" edge="1">
          <mxGeometry width="50" height="50" relative="1" as="geometry">
            <Array as="points">
              <mxPoint x="2061" y="880" />
              <mxPoint x="2043" y="899" />
              <mxPoint x="1903" y="899" />
              <mxPoint x="1884" y="880" />
            </Array>
          </mxGeometry>
        </mxCell>
        <mxCell id="edge167" value="" style="html=1;rounded=1;;dashed=1;dashPattern=1 1;startArrow=none;endArrow=block;endSize=12;strokeColor=#5fad65;exitX=0.198;exitY=1.002;exitDx=0;exitDy=0;entryX=0.614;entryY=1.002;entryDx=0;entryDy=0;" parent="1" source="node52" target="node16" edge="1">
          <mxGeometry width="50" height="50" relative="1" as="geometry">
            <Array as="points">
              <mxPoint x="2081" y="858" />
              <mxPoint x="2073" y="867" />
              <mxPoint x="1866" y="867" />
              <mxPoint x="1857" y="858" />
            </Array>
          </mxGeometry>
        </mxCell>
        <mxCell id="edge46" value="" style="html=1;rounded=1;;dashed=0;startArrow=none;endArrow=block;endSize=12;strokeColor=#3574f0;exitX=0.000;exitY=0.500;exitDx=0;exitDy=0;entryX=0.517;entryY=1.001;entryDx=0;entryDy=0;" parent="1" source="node52" target="node44" edge="1">
          <mxGeometry width="50" height="50" relative="1" as="geometry">
            <Array as="points">
              <mxPoint x="1996" y="825" />
              <mxPoint x="1971" y="800" />
            </Array>
          </mxGeometry>
        </mxCell>
        <mxCell id="edge145" value="" style="html=1;rounded=1;;dashed=0;startArrow=none;endArrow=block;endSize=12;strokeColor=#3574f0;exitX=0.239;exitY=0.002;exitDx=0;exitDy=0;entryX=0.207;entryY=1.002;entryDx=0;entryDy=0;" parent="1" source="node52" target="node15" edge="1">
          <mxGeometry width="50" height="50" relative="1" as="geometry">
            <Array as="points" />
          </mxGeometry>
        </mxCell>
        <mxCell id="edge146" value="" style="html=1;rounded=1;;dashed=1;dashPattern=1 1;startArrow=none;endArrow=block;endSize=12;strokeColor=#5fad65;exitX=0.528;exitY=0.002;exitDx=0;exitDy=0;entryX=0.531;entryY=1.002;entryDx=0;entryDy=0;" parent="1" source="node52" target="node15" edge="1">
          <mxGeometry width="50" height="50" relative="1" as="geometry">
            <Array as="points" />
          </mxGeometry>
        </mxCell>
        <mxCell id="edge45" value="" style="html=1;rounded=1;;dashed=0;startArrow=none;endArrow=block;endSize=12;strokeColor=#3574f0;exitX=1.000;exitY=0.500;exitDx=0;exitDy=0;entryX=0.000;entryY=0.500;entryDx=0;entryDy=0;" parent="1" source="node52" target="node45" edge="1">
          <mxGeometry width="50" height="50" relative="1" as="geometry">
            <Array as="points" />
          </mxGeometry>
        </mxCell>
        <mxCell id="edge67" value="" style="html=1;rounded=1;;dashed=0;startArrow=none;endArrow=block;endSize=12;strokeColor=#3574f0;exitX=0.000;exitY=0.500;exitDx=0;exitDy=0;entryX=1.001;entryY=0.500;entryDx=0;entryDy=0;" parent="1" source="node15" target="node44" edge="1">
          <mxGeometry width="50" height="50" relative="1" as="geometry">
            <Array as="points" />
          </mxGeometry>
        </mxCell>
        <mxCell id="edge115" value="" style="html=1;rounded=1;;dashed=0;startArrow=none;endArrow=block;endSize=12;strokeColor=#3574f0;exitX=0.728;exitY=0.001;exitDx=0;exitDy=0;entryX=0.716;entryY=1.001;entryDx=0;entryDy=0;" parent="1" source="node15" target="node51" edge="1">
          <mxGeometry width="50" height="50" relative="1" as="geometry">
            <Array as="points" />
          </mxGeometry>
        </mxCell>
        <mxCell id="edge116" value="" style="html=1;rounded=1;;dashed=1;dashPattern=1 1;startArrow=none;endArrow=block;endSize=12;strokeColor=#5fad65;exitX=0.272;exitY=0.001;exitDx=0;exitDy=0;entryX=0.284;entryY=1.001;entryDx=0;entryDy=0;" parent="1" source="node15" target="node51" edge="1">
          <mxGeometry width="50" height="50" relative="1" as="geometry">
            <Array as="points" />
          </mxGeometry>
        </mxCell>
        <mxCell id="edge32" value="" style="html=1;rounded=1;;dashed=0;startArrow=none;endArrow=block;endSize=12;strokeColor=#3574f0;exitX=0.795;exitY=1.001;exitDx=0;exitDy=0;entryX=0.683;entryY=0.001;entryDx=0;entryDy=0;" parent="1" source="node56" target="node26" edge="1">
          <mxGeometry width="50" height="50" relative="1" as="geometry">
            <Array as="points" />
          </mxGeometry>
        </mxCell>
        <mxCell id="edge31" value="" style="html=1;rounded=1;;dashed=0;startArrow=none;endArrow=block;endSize=12;strokeColor=#955ae0;exitX=0.825;exitY=0.002;exitDx=0;exitDy=0;entryX=0.917;entryY=0.002;entryDx=0;entryDy=0;" parent="1" source="node56" target="node29" edge="1">
          <mxGeometry width="50" height="50" relative="1" as="geometry">
            <Array as="points">
              <mxPoint x="1366" y="78" />
              <mxPoint x="1431" y="14" />
              <mxPoint x="4061" y="14" />
              <mxPoint x="4125" y="78" />
            </Array>
          </mxGeometry>
        </mxCell>
        <mxCell id="edge36" value="" style="html=1;rounded=1;;dashed=0;startArrow=none;endArrow=block;endSize=12;strokeColor=#3574f0;exitX=0.535;exitY=0.002;exitDx=0;exitDy=0;entryX=0.921;entryY=0.002;entryDx=0;entryDy=0;" parent="1" source="node56" target="node29" edge="1">
          <mxGeometry width="50" height="50" relative="1" as="geometry">
            <Array as="points">
              <mxPoint x="1346" y="138" />
              <mxPoint x="1423" y="62" />
              <mxPoint x="4062" y="62" />
              <mxPoint x="4125" y="125" />
            </Array>
          </mxGeometry>
        </mxCell>
        <mxCell id="edge1" value="" style="html=1;rounded=1;;dashed=0;startArrow=none;endArrow=block;endSize=12;strokeColor=#955ae0;exitX=0.323;exitY=0.001;exitDx=0;exitDy=0;entryX=0.215;entryY=1.001;entryDx=0;entryDy=0;" parent="1" source="node26" target="node56" edge="1">
          <mxGeometry width="50" height="50" relative="1" as="geometry">
            <Array as="points" />
          </mxGeometry>
        </mxCell>
        <mxCell id="edge20" value="" style="html=1;rounded=1;;dashed=0;startArrow=none;endArrow=block;endSize=12;strokeColor=#3574f0;exitX=0.503;exitY=0.001;exitDx=0;exitDy=0;entryX=0.505;entryY=1.001;entryDx=0;entryDy=0;" parent="1" source="node26" target="node56" edge="1">
          <mxGeometry width="50" height="50" relative="1" as="geometry">
            <Array as="points" />
          </mxGeometry>
        </mxCell>
        <mxCell id="edge7" value="" style="html=1;rounded=1;;dashed=0;startArrow=none;endArrow=block;endSize=12;strokeColor=#3574f0;exitX=0.532;exitY=1.002;exitDx=0;exitDy=0;entryX=0.457;entryY=1.002;entryDx=0;entryDy=0;" parent="1" source="node26" target="node54" edge="1">
          <mxGeometry width="50" height="50" relative="1" as="geometry">
            <Array as="points">
              <mxPoint x="1348" y="1315" />
              <mxPoint x="1537" y="1504" />
              <mxPoint x="2782" y="1504" />
              <mxPoint x="2790" y="1496" />
            </Array>
          </mxGeometry>
        </mxCell>
        <mxCell id="edge17" value="" style="html=1;rounded=1;;dashed=0;startArrow=none;endArrow=block;endSize=12;strokeColor=#955ae0;exitX=0.207;exitY=1.002;exitDx=0;exitDy=0;entryX=0.545;entryY=1.002;entryDx=0;entryDy=0;" parent="1" source="node26" target="node54" edge="1">
          <mxGeometry width="50" height="50" relative="1" as="geometry">
            <Array as="points">
              <mxPoint x="1312" y="1299" />
              <mxPoint x="1522" y="1509" />
              <mxPoint x="2798" y="1509" />
            </Array>
          </mxGeometry>
        </mxCell>
        <mxCell id="edge9" value="" style="html=1;rounded=1;;dashed=0;startArrow=none;endArrow=block;endSize=12;strokeColor=#3574f0;exitX=0.500;exitY=0.001;exitDx=0;exitDy=0;entryX=0.500;entryY=1.001;entryDx=0;entryDy=0;" parent="1" source="node37" target="node66" edge="1">
          <mxGeometry width="50" height="50" relative="1" as="geometry">
            <Array as="points" />
          </mxGeometry>
        </mxCell>
        <mxCell id="edge131" value="" style="html=1;rounded=1;;dashed=0;startArrow=none;endArrow=block;endSize=12;strokeColor=#3574f0;exitX=0.000;exitY=0.217;exitDx=0;exitDy=0;entryX=0.920;entryY=1.001;entryDx=0;entryDy=0;" parent="1" source="node25" target="node65" edge="1">
          <mxGeometry width="50" height="50" relative="1" as="geometry">
            <Array as="points">
              <mxPoint x="702" y="1219" />
              <mxPoint x="638" y="1155" />
            </Array>
          </mxGeometry>
        </mxCell>
        <mxCell id="edge132" value="" style="html=1;rounded=1;;dashed=1;dashPattern=1 1;startArrow=none;endArrow=block;endSize=12;strokeColor=#5fad65;exitX=0.395;exitY=0.002;exitDx=0;exitDy=0;entryX=0.966;entryY=1.001;entryDx=0;entryDy=0;" parent="1" source="node25" target="node65" edge="1">
          <mxGeometry width="50" height="50" relative="1" as="geometry">
            <Array as="points">
              <mxPoint x="1507" y="422" />
              <mxPoint x="1443" y="358" />
              <mxPoint x="710" y="358" />
              <mxPoint x="645" y="293" />
            </Array>
          </mxGeometry>
        </mxCell>
        <mxCell id="edge104" value="" style="html=1;rounded=1;;dashed=0;startArrow=none;endArrow=block;endSize=12;strokeColor=#3574f0;exitX=0.570;exitY=0.001;exitDx=0;exitDy=0;entryX=0.362;entryY=0.001;entryDx=0;entryDy=0;" parent="1" source="node25" target="node70" edge="1">
          <mxGeometry width="50" height="50" relative="1" as="geometry">
            <Array as="points">
              <mxPoint x="1527" y="673" />
              <mxPoint x="1592" y="609" />
              <mxPoint x="2571" y="609" />
              <mxPoint x="2635" y="673" />
            </Array>
          </mxGeometry>
        </mxCell>
        <mxCell id="edge107" value="" style="html=1;rounded=1;;dashed=0;startArrow=none;endArrow=block;endSize=12;strokeColor=#3574f0;exitX=0.219;exitY=1.002;exitDx=0;exitDy=0;entryX=0.040;entryY=1.002;entryDx=0;entryDy=0;" parent="1" source="node25" target="node5" edge="1">
          <mxGeometry width="50" height="50" relative="1" as="geometry">
            <Array as="points">
              <mxPoint x="1487" y="1314" />
              <mxPoint x="1520" y="1347" />
              <mxPoint x="2554" y="1347" />
              <mxPoint x="2587" y="1314" />
            </Array>
          </mxGeometry>
        </mxCell>
        <mxCell id="edge121" value="" style="html=1;rounded=1;;dashed=1;startArrow=none;endArrow=block;endSize=12;endFill=0;strokeColor=#24a394;exitX=1.000;exitY=0.500;exitDx=0;exitDy=0;entryX=0.157;entryY=1.002;entryDx=0;entryDy=0;" parent="1" source="node25" target="node16" edge="1">
          <mxGeometry width="50" height="50" relative="1" as="geometry">
            <Array as="points">
              <mxPoint x="1739" y="1225" />
              <mxPoint x="1804" y="1160" />
            </Array>
          </mxGeometry>
        </mxCell>
        <mxCell id="edge106" value="" style="html=1;rounded=1;;dashed=0;startArrow=none;endArrow=block;endSize=12;strokeColor=#3574f0;exitX=0.219;exitY=0.002;exitDx=0;exitDy=0;entryX=1.001;entryY=0.500;entryDx=0;entryDy=0;" parent="1" source="node25" target="node56" edge="1">
          <mxGeometry width="50" height="50" relative="1" as="geometry">
            <Array as="points">
              <mxPoint x="1487" y="507" />
              <mxPoint x="1455" y="475" />
            </Array>
          </mxGeometry>
        </mxCell>
        <mxCell id="edge103" value="" style="html=1;rounded=1;;dashed=0;startArrow=none;endArrow=block;endSize=12;strokeColor=#3574f0;exitX=0.044;exitY=0.002;exitDx=0;exitDy=0;entryX=1.000;entryY=0.500;entryDx=0;entryDy=0;" parent="1" source="node25" target="node26" edge="1">
          <mxGeometry width="50" height="50" relative="1" as="geometry">
            <Array as="points">
              <mxPoint x="1467" y="570" />
              <mxPoint x="1447" y="550" />
            </Array>
          </mxGeometry>
        </mxCell>
        <mxCell id="edge73" value="" style="html=1;rounded=1;;dashed=0;startArrow=none;endArrow=block;endSize=12;strokeColor=#3574f0;exitX=0.921;exitY=0.001;exitDx=0;exitDy=0;entryX=0.000;entryY=0.500;entryDx=0;entryDy=0;" parent="1" source="node25" target="node66" edge="1">
          <mxGeometry width="50" height="50" relative="1" as="geometry">
            <Array as="points">
              <mxPoint x="1567" y="768" />
              <mxPoint x="1585" y="750" />
            </Array>
          </mxGeometry>
        </mxCell>
        <mxCell id="edge72" value="" style="html=1;rounded=1;;dashed=0;startArrow=none;endArrow=block;endSize=12;strokeColor=#3574f0;exitX=0.943;exitY=0.002;exitDx=0;exitDy=0;entryX=0.000;entryY=0.500;entryDx=0;entryDy=0;" parent="1" source="node25" target="node37" edge="1">
          <mxGeometry width="50" height="50" relative="1" as="geometry">
            <Array as="points">
              <mxPoint x="1570" y="849" />
              <mxPoint x="1593" y="825" />
            </Array>
          </mxGeometry>
        </mxCell>
        <mxCell id="edge105" value="" style="html=1;rounded=1;;dashed=0;startArrow=none;endArrow=block;endSize=12;strokeColor=#3574f0;exitX=0.044;exitY=1.002;exitDx=0;exitDy=0;entryX=0.105;entryY=1.002;entryDx=0;entryDy=0;" parent="1" source="node25" target="node54" edge="1">
          <mxGeometry width="50" height="50" relative="1" as="geometry">
            <Array as="points">
              <mxPoint x="1467" y="1394" />
              <mxPoint x="1535" y="1462" />
              <mxPoint x="2747" y="1462" />
              <mxPoint x="2762" y="1447" />
            </Array>
          </mxGeometry>
        </mxCell>
        <mxCell id="edge166" value="" style="html=1;rounded=1;;dashed=0;startArrow=none;endArrow=block;endSize=12;strokeColor=#3574f0;exitX=0.303;exitY=1.001;exitDx=0;exitDy=0;entryX=0.268;entryY=0.001;entryDx=0;entryDy=0;" parent="1" source="node9" target="node16" edge="1">
          <mxGeometry width="50" height="50" relative="1" as="geometry">
            <Array as="points" />
          </mxGeometry>
        </mxCell>
        <mxCell id="edge168" value="" style="html=1;rounded=1;;dashed=1;dashPattern=1 1;startArrow=none;endArrow=block;endSize=12;strokeColor=#5fad65;exitX=0.678;exitY=1.001;exitDx=0;exitDy=0;entryX=0.710;entryY=0.001;entryDx=0;entryDy=0;" parent="1" source="node9" target="node16" edge="1">
          <mxGeometry width="50" height="50" relative="1" as="geometry">
            <Array as="points" />
          </mxGeometry>
        </mxCell>
        <mxCell id="edge38" value="" style="html=1;rounded=1;;dashed=0;startArrow=none;endArrow=block;endSize=12;strokeColor=#3574f0;exitX=0.500;exitY=0.002;exitDx=0;exitDy=0;entryX=0.811;entryY=0.002;entryDx=0;entryDy=0;" parent="1" source="node63" target="node11" edge="1">
          <mxGeometry width="50" height="50" relative="1" as="geometry">
            <Array as="points">
              <mxPoint x="5094" y="1367" />
              <mxPoint x="5086" y="1359" />
              <mxPoint x="4999" y="1359" />
              <mxPoint x="4990" y="1367" />
            </Array>
          </mxGeometry>
        </mxCell>
        <mxCell id="edge19" value="" style="html=1;rounded=1;;dashed=0;startArrow=none;endArrow=block;endSize=12;strokeColor=#3574f0;exitX=0.113;exitY=0.001;exitDx=0;exitDy=0;entryX=0.193;entryY=1.001;entryDx=0;entryDy=0;" parent="1" source="node31" target="node54" edge="1">
          <mxGeometry width="50" height="50" relative="1" as="geometry">
            <Array as="points" />
          </mxGeometry>
        </mxCell>
        <mxCell id="edge30" value="" style="html=1;rounded=1;;dashed=0;startArrow=none;endArrow=block;endSize=12;strokeColor=#955ae0;exitX=0.889;exitY=0.001;exitDx=0;exitDy=0;entryX=0.808;entryY=1.001;entryDx=0;entryDy=0;" parent="1" source="node31" target="node54" edge="1">
          <mxGeometry width="50" height="50" relative="1" as="geometry">
            <Array as="points" />
          </mxGeometry>
        </mxCell>
        <mxCell id="edge23" value="" style="html=1;rounded=1;;dashed=0;startArrow=none;endArrow=block;endSize=12;strokeColor=#3574f0;exitX=0.305;exitY=0.002;exitDx=0;exitDy=0;entryX=1.000;entryY=0.435;entryDx=0;entryDy=0;" parent="1" source="node54" target="node5" edge="1">
          <mxGeometry width="50" height="50" relative="1" as="geometry">
            <Array as="points">
              <mxPoint x="2778" y="1244" />
              <mxPoint x="2758" y="1224" />
            </Array>
          </mxGeometry>
        </mxCell>
        <mxCell id="edge15" value="" style="html=1;rounded=1;;dashed=0;startArrow=none;endArrow=block;endSize=12;strokeColor=#3574f0;exitX=0.884;exitY=0.001;exitDx=0;exitDy=0;entryX=0.821;entryY=1.001;entryDx=0;entryDy=0;" parent="1" source="node54" target="node10" edge="1">
          <mxGeometry width="50" height="50" relative="1" as="geometry">
            <Array as="points" />
          </mxGeometry>
        </mxCell>
        <mxCell id="edge13" value="" style="html=1;rounded=1;;dashed=0;startArrow=none;endArrow=block;endSize=12;strokeColor=#955ae0;exitX=0.934;exitY=0.002;exitDx=0;exitDy=0;entryX=0.001;entryY=0.217;entryDx=0;entryDy=0;" parent="1" source="node54" target="node43" edge="1">
          <mxGeometry width="50" height="50" relative="1" as="geometry">
            <Array as="points">
              <mxPoint x="2830" y="1286" />
              <mxPoint x="2872" y="1244" />
            </Array>
          </mxGeometry>
        </mxCell>
        <mxCell id="edge35" value="" style="html=1;rounded=1;;dashed=0;startArrow=none;endArrow=block;endSize=12;strokeColor=#3574f0;exitX=1.001;exitY=0.333;exitDx=0;exitDy=0;entryX=0.289;entryY=1.002;entryDx=0;entryDy=0;" parent="1" source="node54" target="node43" edge="1">
          <mxGeometry width="50" height="50" relative="1" as="geometry">
            <Array as="points">
              <mxPoint x="4366" y="1396" />
              <mxPoint x="4406" y="1356" />
            </Array>
          </mxGeometry>
        </mxCell>
        <mxCell id="edge6" value="" style="html=1;rounded=1;;dashed=0;startArrow=none;endArrow=block;endSize=12;strokeColor=#3574f0;exitX=0.369;exitY=1.001;exitDx=0;exitDy=0;entryX=0.856;entryY=1.002;entryDx=0;entryDy=0;" parent="1" source="node54" target="node26" edge="1">
          <mxGeometry width="50" height="50" relative="1" as="geometry">
            <Array as="points">
              <mxPoint x="2783" y="1475" />
              <mxPoint x="2756" y="1502" />
              <mxPoint x="1555" y="1502" />
              <mxPoint x="1384" y="1331" />
            </Array>
          </mxGeometry>
        </mxCell>
        <mxCell id="edge43" value="" style="html=1;rounded=1;;dashed=0;startArrow=none;endArrow=block;endSize=12;strokeColor=#3574f0;exitX=0.281;exitY=1.001;exitDx=0;exitDy=0;entryX=0.223;entryY=0.001;entryDx=0;entryDy=0;" parent="1" source="node54" target="node31" edge="1">
          <mxGeometry width="50" height="50" relative="1" as="geometry">
            <Array as="points" />
          </mxGeometry>
        </mxCell>
        <mxCell id="edge10" value="" style="html=1;rounded=1;;dashed=0;startArrow=none;endArrow=block;endSize=12;strokeColor=#3574f0;exitX=0.915;exitY=0.002;exitDx=0;exitDy=0;entryX=0.500;entryY=0.002;entryDx=0;entryDy=0;" parent="1" source="node54" target="node11" edge="1">
          <mxGeometry width="50" height="50" relative="1" as="geometry">
            <Array as="points">
              <mxPoint x="2828" y="1239" />
              <mxPoint x="2884" y="1184" />
              <mxPoint x="4883" y="1184" />
              <mxPoint x="4944" y="1245" />
            </Array>
          </mxGeometry>
        </mxCell>
        <mxCell id="edge14" value="" style="html=1;rounded=1;;dashed=0;startArrow=none;endArrow=block;endSize=12;strokeColor=#955ae0;exitX=0.633;exitY=1.002;exitDx=0;exitDy=0;entryX=0.727;entryY=1.002;entryDx=0;entryDy=0;" parent="1" source="node54" target="node17" edge="1">
          <mxGeometry width="50" height="50" relative="1" as="geometry">
            <Array as="points">
              <mxPoint x="2805" y="1461" />
              <mxPoint x="2784" y="1482" />
              <mxPoint x="2748" y="1482" />
              <mxPoint x="2701" y="1529" />
              <mxPoint x="854" y="1529" />
              <mxPoint x="819" y="1494" />
            </Array>
          </mxGeometry>
        </mxCell>
        <mxCell id="edge37" value="" style="html=1;rounded=1;;dashed=0;startArrow=none;endArrow=block;endSize=12;strokeColor=#3574f0;exitX=0.720;exitY=1.001;exitDx=0;exitDy=0;entryX=0.273;entryY=1.002;entryDx=0;entryDy=0;" parent="1" source="node54" target="node17" edge="1">
          <mxGeometry width="50" height="50" relative="1" as="geometry">
            <Array as="points">
              <mxPoint x="2812" y="1514" />
              <mxPoint x="2797" y="1529" />
              <mxPoint x="804" y="1529" />
              <mxPoint x="769" y="1494" />
            </Array>
          </mxGeometry>
        </mxCell>
        <mxCell id="edge2" value="" style="html=1;rounded=1;;dashed=0;startArrow=none;endArrow=block;endSize=12;strokeColor=#955ae0;exitX=0.500;exitY=1.002;exitDx=0;exitDy=0;entryX=0.500;entryY=1.002;entryDx=0;entryDy=0;" parent="1" source="node11" target="node63" edge="1">
          <mxGeometry width="50" height="50" relative="1" as="geometry">
            <Array as="points">
              <mxPoint x="4944" y="1447" />
              <mxPoint x="4959" y="1462" />
              <mxPoint x="5080" y="1462" />
              <mxPoint x="5094" y="1447" />
            </Array>
          </mxGeometry>
        </mxCell>
        <mxCell id="edge24" value="" style="html=1;rounded=1;;dashed=0;startArrow=none;endArrow=block;endSize=12;strokeColor=#3574f0;exitX=0.811;exitY=1.002;exitDx=0;exitDy=0;entryX=0.203;entryY=1.002;entryDx=0;entryDy=0;" parent="1" source="node11" target="node63" edge="1">
          <mxGeometry width="50" height="50" relative="1" as="geometry">
            <Array as="points">
              <mxPoint x="4990" y="1433" />
              <mxPoint x="4999" y="1442" />
              <mxPoint x="5058" y="1442" />
              <mxPoint x="5066" y="1433" />
            </Array>
          </mxGeometry>
        </mxCell>
        <mxCell id="edge22" value="" style="html=1;rounded=1;;dashed=0;startArrow=none;endArrow=block;endSize=12;strokeColor=#3574f0;exitX=0.189;exitY=0.001;exitDx=0;exitDy=0;entryX=0.924;entryY=0.001;entryDx=0;entryDy=0;" parent="1" source="node11" target="node54" edge="1">
          <mxGeometry width="50" height="50" relative="1" as="geometry">
            <Array as="points">
              <mxPoint x="4898" y="1259" />
              <mxPoint x="4843" y="1204" />
              <mxPoint x="2884" y="1204" />
              <mxPoint x="2829" y="1258" />
            </Array>
          </mxGeometry>
        </mxCell>
        <mxCell id="edge25" value="" style="html=1;rounded=1;;dashed=0;startArrow=none;endArrow=block;endSize=12;strokeColor=#955ae0;exitX=0.000;exitY=0.333;exitDx=0;exitDy=0;entryX=1.001;entryY=0.565;entryDx=0;entryDy=0;" parent="1" source="node11" target="node54" edge="1">
          <mxGeometry width="50" height="50" relative="1" as="geometry">
            <Array as="points">
              <mxPoint x="4838" y="1396" />
              <mxPoint x="4813" y="1422" />
              <mxPoint x="3215" y="1422" />
              <mxPoint x="3195" y="1402" />
            </Array>
          </mxGeometry>
        </mxCell>
        <mxCell id="edge137" value="" style="html=1;rounded=1;;dashed=1;dashPattern=1 1;startArrow=none;endArrow=block;endSize=12;strokeColor=#5fad65;exitX=0.055;exitY=0.002;exitDx=0;exitDy=0;entryX=0.153;entryY=1.002;entryDx=0;entryDy=0;" parent="1" source="node35" target="node65" edge="1">
          <mxGeometry width="50" height="50" relative="1" as="geometry">
            <Array as="points" />
          </mxGeometry>
        </mxCell>
        <mxCell id="edge138" value="" style="html=1;rounded=1;;dashed=0;startArrow=none;endArrow=block;endSize=12;strokeColor=#3574f0;exitX=0.213;exitY=0.002;exitDx=0;exitDy=0;entryX=0.276;entryY=1.002;entryDx=0;entryDy=0;" parent="1" source="node35" target="node65" edge="1">
          <mxGeometry width="50" height="50" relative="1" as="geometry">
            <Array as="points" />
          </mxGeometry>
        </mxCell>
        <mxCell id="edge122" value="" style="html=1;rounded=1;;dashed=1;startArrow=none;endArrow=block;endSize=12;endFill=0;strokeColor=#24a394;exitX=0.000;exitY=0.500;exitDx=0;exitDy=0;entryX=1.000;entryY=0.500;entryDx=0;entryDy=0;" parent="1" source="node35" target="node67" edge="1">
          <mxGeometry width="50" height="50" relative="1" as="geometry">
            <Array as="points" />
          </mxGeometry>
        </mxCell>
        <mxCell id="edge110" value="" style="html=1;rounded=1;;dashed=0;startArrow=none;endArrow=block;endSize=12;strokeColor=#3574f0;exitX=1.000;exitY=0.783;exitDx=0;exitDy=0;entryX=0.334;entryY=1.001;entryDx=0;entryDy=0;" parent="1" source="node35" target="node31" edge="1">
          <mxGeometry width="50" height="50" relative="1" as="geometry">
            <Array as="points">
              <mxPoint x="1370" y="1482" />
              <mxPoint x="1408" y="1520" />
              <mxPoint x="1408" y="1573" />
              <mxPoint x="1447" y="1612" />
              <mxPoint x="2768" y="1612" />
              <mxPoint x="2783" y="1597" />
            </Array>
          </mxGeometry>
        </mxCell>
        <mxCell id="edge111" value="" style="html=1;rounded=1;;dashed=0;startArrow=none;endArrow=block;endSize=12;strokeColor=#3574f0;exitX=0.676;exitY=1.002;exitDx=0;exitDy=0;entryX=0.896;entryY=1.002;entryDx=0;entryDy=0;" parent="1" source="node35" target="node54" edge="1">
          <mxGeometry width="50" height="50" relative="1" as="geometry">
            <Array as="points">
              <mxPoint x="591" y="1530" />
              <mxPoint x="610" y="1549" />
              <mxPoint x="1344" y="1549" />
              <mxPoint x="1427" y="1632" />
              <mxPoint x="2769" y="1632" />
              <mxPoint x="2827" y="1574" />
            </Array>
          </mxGeometry>
        </mxCell>
        <mxCell id="edge65" value="" style="html=1;rounded=1;;dashed=0;startArrow=none;endArrow=block;endSize=12;strokeColor=#3574f0;exitX=0.106;exitY=1.002;exitDx=0;exitDy=0;entryX=1.000;entryY=0.565;entryDx=0;entryDy=0;" parent="1" source="node35" target="node19" edge="1">
          <mxGeometry width="50" height="50" relative="1" as="geometry">
            <Array as="points">
              <mxPoint x="519" y="1532" />
              <mxPoint x="500" y="1552" />
            </Array>
          </mxGeometry>
        </mxCell>
        <mxCell id="edge142" value="" style="html=1;rounded=1;;dashed=0;startArrow=none;endArrow=block;endSize=12;strokeColor=#3574f0;exitX=0.225;exitY=0.001;exitDx=0;exitDy=0;entryX=0.199;entryY=1.001;entryDx=0;entryDy=0;" parent="1" source="node68" target="node71" edge="1">
          <mxGeometry width="50" height="50" relative="1" as="geometry">
            <Array as="points" />
          </mxGeometry>
        </mxCell>
        <mxCell id="edge144" value="" style="html=1;rounded=1;;dashed=1;dashPattern=1 1;startArrow=none;endArrow=block;endSize=12;strokeColor=#5fad65;exitX=0.522;exitY=0.001;exitDx=0;exitDy=0;entryX=0.524;entryY=1.001;entryDx=0;entryDy=0;" parent="1" source="node68" target="node71" edge="1">
          <mxGeometry width="50" height="50" relative="1" as="geometry">
            <Array as="points" />
          </mxGeometry>
        </mxCell>
        <mxCell id="edge161" value="" style="html=1;rounded=1;;dashed=0;startArrow=none;endArrow=block;endSize=12;strokeColor=#3574f0;exitX=1.000;exitY=0.500;exitDx=0;exitDy=0;entryX=0.000;entryY=0.500;entryDx=0;entryDy=0;" parent="1" source="node68" target="node67" edge="1">
          <mxGeometry width="50" height="50" relative="1" as="geometry">
            <Array as="points" />
          </mxGeometry>
        </mxCell>
        <mxCell id="edge162" value="" style="html=1;rounded=1;;dashed=1;dashPattern=1 1;startArrow=none;endArrow=block;endSize=12;strokeColor=#5fad65;exitX=0.818;exitY=0.002;exitDx=0;exitDy=0;entryX=0.500;entryY=0.002;entryDx=0;entryDy=0;" parent="1" source="node68" target="node67" edge="1">
          <mxGeometry width="50" height="50" relative="1" as="geometry">
            <Array as="points">
              <mxPoint x="217" y="1442" />
              <mxPoint x="226" y="1434" />
              <mxPoint x="361" y="1434" />
              <mxPoint x="369" y="1442" />
            </Array>
          </mxGeometry>
        </mxCell>
        <mxCell id="edge55" value="" style="html=1;rounded=1;;dashed=0;startArrow=none;endArrow=block;endSize=12;strokeColor=#3574f0;exitX=0.868;exitY=1.002;exitDx=0;exitDy=0;entryX=0.000;entryY=0.435;entryDx=0;entryDy=0;" parent="1" source="node68" target="node19" edge="1">
          <mxGeometry width="50" height="50" relative="1" as="geometry">
            <Array as="points">
              <mxPoint x="225" y="1531" />
              <mxPoint x="243" y="1549" />
            </Array>
          </mxGeometry>
        </mxCell>
        <mxCell id="edge54" value="" style="html=1;rounded=1;;dashed=0;startArrow=none;endArrow=block;endSize=12;strokeColor=#3574f0;exitX=0.500;exitY=0.001;exitDx=0;exitDy=0;entryX=0.500;entryY=1.001;entryDx=0;entryDy=0;" parent="1" source="node3" target="node39" edge="1">
          <mxGeometry width="50" height="50" relative="1" as="geometry">
            <Array as="points" />
          </mxGeometry>
        </mxCell>
        <mxCell id="edge139" value="" style="html=1;rounded=1;;dashed=1;dashPattern=1 1;startArrow=none;endArrow=block;endSize=12;strokeColor=#5fad65;exitX=1.000;exitY=0.500;exitDx=0;exitDy=0;entryX=0.000;entryY=0.500;entryDx=0;entryDy=0;" parent="1" source="node3" target="node72" edge="1">
          <mxGeometry width="50" height="50" relative="1" as="geometry">
            <Array as="points" />
          </mxGeometry>
        </mxCell>
        <mxCell id="edge140" value="" style="html=1;rounded=1;;dashed=0;startArrow=none;endArrow=block;endSize=12;strokeColor=#3574f0;exitX=0.730;exitY=1.002;exitDx=0;exitDy=0;entryX=0.500;entryY=1.002;entryDx=0;entryDy=0;" parent="1" source="node3" target="node72" edge="1">
          <mxGeometry width="50" height="50" relative="1" as="geometry">
            <Array as="points">
              <mxPoint x="-27" y="1708" />
              <mxPoint x="-18" y="1717" />
              <mxPoint x="111" y="1717" />
              <mxPoint x="119" y="1708" />
            </Array>
          </mxGeometry>
        </mxCell>
        <mxCell id="edge53" value="" style="html=1;rounded=1;;dashed=0;startArrow=none;endArrow=block;endSize=12;strokeColor=#3574f0;exitX=0.270;exitY=1.001;exitDx=0;exitDy=0;entryX=0.293;entryY=0.001;entryDx=0;entryDy=0;" parent="1" source="node3" target="node32" edge="1">
          <mxGeometry width="50" height="50" relative="1" as="geometry">
            <Array as="points" />
          </mxGeometry>
        </mxCell>
        <mxCell id="edge113" value="" style="html=1;rounded=1;;dashed=1;dashPattern=1 1;startArrow=none;endArrow=block;endSize=12;strokeColor=#5fad65;exitX=0.727;exitY=0.001;exitDx=0;exitDy=0;entryX=0.713;entryY=1.001;entryDx=0;entryDy=0;" parent="1" source="node72" target="node4" edge="1">
          <mxGeometry width="50" height="50" relative="1" as="geometry">
            <Array as="points" />
          </mxGeometry>
        </mxCell>
        <mxCell id="edge114" value="" style="html=1;rounded=1;;dashed=0;startArrow=none;endArrow=block;endSize=12;strokeColor=#3574f0;exitX=0.273;exitY=0.001;exitDx=0;exitDy=0;entryX=0.287;entryY=1.001;entryDx=0;entryDy=0;" parent="1" source="node72" target="node4" edge="1">
          <mxGeometry width="50" height="50" relative="1" as="geometry">
            <Array as="points" />
          </mxGeometry>
        </mxCell>
        <mxCell id="edge28" value="" style="html=1;rounded=1;;dashed=0;startArrow=none;endArrow=block;endSize=12;strokeColor=#3574f0;exitX=0.720;exitY=0.001;exitDx=0;exitDy=0;entryX=0.549;entryY=0.001;entryDx=0;entryDy=0;" parent="1" source="node17" target="node54" edge="1">
          <mxGeometry width="50" height="50" relative="1" as="geometry">
            <Array as="points">
              <mxPoint x="818" y="402" />
              <mxPoint x="882" y="338" />
              <mxPoint x="2644" y="338" />
              <mxPoint x="2709" y="403" />
              <mxPoint x="2709" y="1024" />
              <mxPoint x="2798" y="1113" />
            </Array>
          </mxGeometry>
        </mxCell>
        <mxCell id="edge125" value="" style="html=1;rounded=1;;dashed=0;startArrow=none;endArrow=block;endSize=12;strokeColor=#3574f0;exitX=0.266;exitY=0.002;exitDx=0;exitDy=0;entryX=1.000;entryY=0.783;entryDx=0;entryDy=0;" parent="1" source="node33" target="node65" edge="1">
          <mxGeometry width="50" height="50" relative="1" as="geometry">
            <Array as="points">
              <mxPoint x="933" y="98" />
              <mxPoint x="917" y="82" />
            </Array>
          </mxGeometry>
        </mxCell>
        <mxCell id="edge126" value="" style="html=1;rounded=1;;dashed=1;dashPattern=1 1;startArrow=none;endArrow=block;endSize=12;strokeColor=#5fad65;exitX=0.734;exitY=0.002;exitDx=0;exitDy=0;entryX=0.951;entryY=0.001;entryDx=0;entryDy=0;" parent="1" source="node33" target="node65" edge="1">
          <mxGeometry width="50" height="50" relative="1" as="geometry">
            <Array as="points">
              <mxPoint x="1005" y="51" />
              <mxPoint x="968" y="14" />
              <mxPoint x="658" y="14" />
              <mxPoint x="643" y="29" />
            </Array>
          </mxGeometry>
        </mxCell>
        <mxCell id="edge117" value="" style="html=1;rounded=1;;dashed=1;startArrow=none;endArrow=block;endSize=12;endFill=0;strokeColor=#24a394;exitX=1.000;exitY=0.500;exitDx=0;exitDy=0;entryX=0.000;entryY=0.500;entryDx=0;entryDy=0;" parent="1" source="node33" target="node27" edge="1">
          <mxGeometry width="50" height="50" relative="1" as="geometry">
            <Array as="points" />
          </mxGeometry>
        </mxCell>
        <mxCell id="edge108" value="" style="html=1;rounded=1;;dashed=0;startArrow=none;endArrow=block;endSize=12;strokeColor=#3574f0;exitX=0.000;exitY=0.500;exitDx=0;exitDy=0;entryX=0.252;entryY=0.002;entryDx=0;entryDy=0;" parent="1" source="node33" target="node17" edge="1">
          <mxGeometry width="50" height="50" relative="1" as="geometry">
            <Array as="points">
              <mxPoint x="804" y="150" />
              <mxPoint x="767" y="187" />
            </Array>
          </mxGeometry>
        </mxCell>
        <mxCell id="edge68" value="" style="html=1;rounded=1;;dashed=0;startArrow=none;endArrow=block;endSize=12;strokeColor=#3574f0;exitX=0.500;exitY=1.001;exitDx=0;exitDy=0;entryX=0.500;entryY=0.001;entryDx=0;entryDy=0;" parent="1" source="node33" target="node23" edge="1">
          <mxGeometry width="50" height="50" relative="1" as="geometry">
            <Array as="points" />
          </mxGeometry>
        </mxCell>
        <mxCell id="edge163" value="" style="html=1;rounded=1;;dashed=1;dashPattern=1 1;startArrow=none;endArrow=block;endSize=12;strokeColor=#5fad65;exitX=0.699;exitY=0.001;exitDx=0;exitDy=0;entryX=0.734;entryY=1.001;entryDx=0;entryDy=0;" parent="1" source="node20" target="node27" edge="1">
          <mxGeometry width="50" height="50" relative="1" as="geometry">
            <Array as="points" />
          </mxGeometry>
        </mxCell>
        <mxCell id="edge164" value="" style="html=1;rounded=1;;dashed=0;startArrow=none;endArrow=block;endSize=12;strokeColor=#3574f0;exitX=0.301;exitY=0.001;exitDx=0;exitDy=0;entryX=0.266;entryY=1.001;entryDx=0;entryDy=0;" parent="1" source="node20" target="node27" edge="1">
          <mxGeometry width="50" height="50" relative="1" as="geometry">
            <Array as="points" />
          </mxGeometry>
        </mxCell>
        <mxCell id="edge50" value="" style="html=1;rounded=1;;dashed=0;startArrow=none;endArrow=block;endSize=12;strokeColor=#3574f0;exitX=0.000;exitY=0.500;exitDx=0;exitDy=0;entryX=1.000;entryY=0.500;entryDx=0;entryDy=0;" parent="1" source="node20" target="node23" edge="1">
          <mxGeometry width="50" height="50" relative="1" as="geometry">
            <Array as="points" />
          </mxGeometry>
        </mxCell>
        <mxCell id="edge34" value="" style="html=1;rounded=1;;dashed=0;startArrow=none;endArrow=block;endSize=12;strokeColor=#3574f0;exitX=0.912;exitY=1.001;exitDx=0;exitDy=0;entryX=0.725;entryY=0.001;entryDx=0;entryDy=0;" parent="1" source="node29" target="node70" edge="1">
          <mxGeometry width="50" height="50" relative="1" as="geometry">
            <Array as="points">
              <mxPoint x="4125" y="656" />
              <mxPoint x="4061" y="720" />
              <mxPoint x="2718" y="720" />
              <mxPoint x="2660" y="778" />
            </Array>
          </mxGeometry>
        </mxCell>
        <mxCell id="edge33" value="" style="html=1;rounded=1;;dashed=0;startArrow=none;endArrow=block;endSize=12;strokeColor=#3574f0;exitX=0.619;exitY=1.002;exitDx=0;exitDy=0;entryX=0.337;entryY=1.002;entryDx=0;entryDy=0;" parent="1" source="node29" target="node10" edge="1">
          <mxGeometry width="50" height="50" relative="1" as="geometry">
            <Array as="points">
              <mxPoint x="4103" y="486" />
              <mxPoint x="4083" y="507" />
              <mxPoint x="2799" y="507" />
              <mxPoint x="2778" y="486" />
            </Array>
          </mxGeometry>
        </mxCell>
        <mxCell id="edge3" value="" style="html=1;rounded=1;;dashed=0;startArrow=none;endArrow=block;endSize=12;strokeColor=#3574f0;exitX=0.349;exitY=0.001;exitDx=0;exitDy=0;entryX=0.209;entryY=0.001;entryDx=0;entryDy=0;" parent="1" source="node29" target="node38" edge="1">
          <mxGeometry width="50" height="50" relative="1" as="geometry">
            <Array as="points">
              <mxPoint x="4083" y="170" />
              <mxPoint x="4117" y="137" />
              <mxPoint x="4163" y="137" />
              <mxPoint x="4196" y="170" />
            </Array>
          </mxGeometry>
        </mxCell>
        <mxCell id="edge8" value="" style="html=1;rounded=1;;dashed=0;startArrow=none;endArrow=block;endSize=12;strokeColor=#3574f0;exitX=0.926;exitY=0.001;exitDx=0;exitDy=0;entryX=0.245;entryY=0.002;entryDx=0;entryDy=0;" parent="1" source="node29" target="node56" edge="1">
          <mxGeometry width="50" height="50" relative="1" as="geometry">
            <Array as="points">
              <mxPoint x="4126" y="146" />
              <mxPoint x="4062" y="82" />
              <mxPoint x="1383" y="82" />
              <mxPoint x="1326" y="138" />
            </Array>
          </mxGeometry>
        </mxCell>
        <mxCell id="edge129" value="" style="html=1;rounded=1;;dashed=1;dashPattern=1 1;startArrow=none;endArrow=block;endSize=12;strokeColor=#5fad65;exitX=0.729;exitY=0.001;exitDx=0;exitDy=0;entryX=0.890;entryY=0.001;entryDx=0;entryDy=0;" parent="1" source="node53" target="node65" edge="1">
          <mxGeometry width="50" height="50" relative="1" as="geometry">
            <Array as="points">
              <mxPoint x="3946" y="9" />
              <mxPoint x="3891" y="-46" />
              <mxPoint x="638" y="-46" />
              <mxPoint x="633" y="-41" />
            </Array>
          </mxGeometry>
        </mxCell>
        <mxCell id="edge130" value="" style="html=1;rounded=1;;dashed=0;startArrow=none;endArrow=block;endSize=12;strokeColor=#3574f0;exitX=0.271;exitY=0.001;exitDx=0;exitDy=0;entryX=0.905;entryY=0.002;entryDx=0;entryDy=0;" parent="1" source="node53" target="node65" edge="1">
          <mxGeometry width="50" height="50" relative="1" as="geometry">
            <Array as="points">
              <mxPoint x="3892" y="9" />
              <mxPoint x="3837" y="-46" />
              <mxPoint x="658" y="-46" />
              <mxPoint x="635" y="-24" />
            </Array>
          </mxGeometry>
        </mxCell>
        <mxCell id="edge119" value="" style="html=1;rounded=1;;dashed=1;startArrow=none;endArrow=block;endSize=12;endFill=0;strokeColor=#24a394;exitX=0.000;exitY=0.500;exitDx=0;exitDy=0;entryX=0.270;entryY=0.002;entryDx=0;entryDy=0;" parent="1" source="node53" target="node36" edge="1">
          <mxGeometry width="50" height="50" relative="1" as="geometry">
            <Array as="points">
              <mxPoint x="3482" y="150" />
              <mxPoint x="3441" y="191" />
            </Array>
          </mxGeometry>
        </mxCell>
        <mxCell id="edge76" value="" style="html=1;rounded=1;;dashed=1;dashPattern=1 1;startArrow=none;endArrow=block;endSize=12;strokeColor=#5fad65;exitX=0.729;exitY=1.002;exitDx=0;exitDy=0;entryX=1.000;entryY=0.500;entryDx=0;entryDy=0;" parent="1" source="node53" target="node0" edge="1">
          <mxGeometry width="50" height="50" relative="1" as="geometry">
            <Array as="points">
              <mxPoint x="3946" y="318" />
              <mxPoint x="3914" y="350" />
            </Array>
          </mxGeometry>
        </mxCell>
        <mxCell id="edge112" value="" style="html=1;rounded=1;;dashed=0;startArrow=none;endArrow=block;endSize=12;strokeColor=#3574f0;exitX=1.000;exitY=0.783;exitDx=0;exitDy=0;entryX=0.619;entryY=0.001;entryDx=0;entryDy=0;" parent="1" source="node53" target="node29" edge="1">
          <mxGeometry width="50" height="50" relative="1" as="geometry">
            <Array as="points">
              <mxPoint x="4066" y="157" />
              <mxPoint x="4103" y="194" />
            </Array>
          </mxGeometry>
        </mxCell>
        <mxCell id="edge69" value="" style="html=1;rounded=1;;dashed=0;startArrow=none;endArrow=block;endSize=12;strokeColor=#3574f0;exitX=0.271;exitY=1.002;exitDx=0;exitDy=0;entryX=1.000;entryY=0.500;entryDx=0;entryDy=0;" parent="1" source="node53" target="node47" edge="1">
          <mxGeometry width="50" height="50" relative="1" as="geometry">
            <Array as="points">
              <mxPoint x="3892" y="206" />
              <mxPoint x="3873" y="225" />
            </Array>
          </mxGeometry>
        </mxCell>
        <mxCell id="edge149" value="" style="html=1;rounded=1;;dashed=1;dashPattern=1 1;startArrow=none;endArrow=block;endSize=12;strokeColor=#5fad65;exitX=0.000;exitY=0.500;exitDx=0;exitDy=0;entryX=1.000;entryY=0.500;entryDx=0;entryDy=0;" parent="1" source="node59" target="node36" edge="1">
          <mxGeometry width="50" height="50" relative="1" as="geometry">
            <Array as="points" />
          </mxGeometry>
        </mxCell>
        <mxCell id="edge150" value="" style="html=1;rounded=1;;dashed=0;startArrow=none;endArrow=block;endSize=12;strokeColor=#3574f0;exitX=0.500;exitY=1.002;exitDx=0;exitDy=0;entryX=0.730;entryY=1.002;entryDx=0;entryDy=0;" parent="1" source="node59" target="node36" edge="1">
          <mxGeometry width="50" height="50" relative="1" as="geometry">
            <Array as="points">
              <mxPoint x="3644" y="348" />
              <mxPoint x="3629" y="364" />
              <mxPoint x="3513" y="364" />
              <mxPoint x="3497" y="348" />
            </Array>
          </mxGeometry>
        </mxCell>
        <mxCell id="edge52" value="" style="html=1;rounded=1;;dashed=0;startArrow=none;endArrow=block;endSize=12;strokeColor=#3574f0;exitX=0.500;exitY=0.001;exitDx=0;exitDy=0;entryX=0.500;entryY=1.001;entryDx=0;entryDy=0;" parent="1" source="node59" target="node47" edge="1">
          <mxGeometry width="50" height="50" relative="1" as="geometry">
            <Array as="points" />
          </mxGeometry>
        </mxCell>
        <mxCell id="edge170" value="" style="html=1;rounded=1;;dashed=0;startArrow=none;endArrow=block;endSize=12;strokeColor=#3574f0;exitX=0.500;exitY=1.001;exitDx=0;exitDy=0;entryX=0.500;entryY=0.001;entryDx=0;entryDy=0;" parent="1" source="node50" target="node65" edge="1">
          <mxGeometry width="50" height="50" relative="1" as="geometry">
            <Array as="points" />
          </mxGeometry>
        </mxCell>
      </root>
    </mxGraphModel>
  </diagram>
</mxfile>
